<?xml version="1.0" encoding="UTF-8" standalone="no"?>
<!-- Created with Inkscape (http://www.inkscape.org/) -->

<svg
   xmlns:dc="http://purl.org/dc/elements/1.1/"
   xmlns:cc="http://creativecommons.org/ns#"
   xmlns:rdf="http://www.w3.org/1999/02/22-rdf-syntax-ns#"
   xmlns:svg="http://www.w3.org/2000/svg"
   xmlns="http://www.w3.org/2000/svg"
   xmlns:sodipodi="http://sodipodi.sourceforge.net/DTD/sodipodi-0.dtd"
   xmlns:inkscape="http://www.inkscape.org/namespaces/inkscape"
   width="40mm"
   height="60mm"
   viewBox="0 0 40.000002 60.000003"
   version="1.1"
   id="svg8"
   sodipodi:docname="keychainfull.svg"
   inkscape:version="0.92.3 (2405546, 2018-03-11)">
  <defs
     id="defs2" />
  <sodipodi:namedview
     id="base"
     pagecolor="#838383"
     bordercolor="#666666"
     borderopacity="1.0"
     inkscape:pageopacity="0"
     inkscape:pageshadow="2"
     inkscape:zoom="174.21697"
     inkscape:cx="149.81695"
     inkscape:cy="227.20479"
     inkscape:document-units="mm"
     inkscape:current-layer="layer2"
     showgrid="false"
     units="mm"
     inkscape:window-width="1920"
     inkscape:window-height="1043"
     inkscape:window-x="0"
     inkscape:window-y="0"
     inkscape:window-maximized="1"
     showguides="false" />
  <metadata
     id="metadata5">
    <rdf:RDF>
      <cc:Work
         rdf:about="">
        <dc:format>image/svg+xml</dc:format>
        <dc:type
           rdf:resource="http://purl.org/dc/dcmitype/StillImage" />
        <dc:title></dc:title>
      </cc:Work>
    </rdf:RDF>
  </metadata>
  <g
     inkscape:groupmode="layer"
     id="layer2"
     inkscape:label="Graphics"
     transform="translate(0,-219.39999)">
    <g
       id="g795"
       transform="matrix(0.91734701,0,0,0.91734701,-25.542108,28.123677)">
      <path
         id="path793"
         style="fill:none;fill-opacity:1;stroke:#178ade;stroke-width:0.354"
         d="m 57.728596,267.28702 c 0,0 0,0 0,0 m 9e-6,-0.1 c 0,0 2.611835,0 2.611835,0 m 0.0072,-0.1 c 0,0 -2.619065,0 -2.619065,0 m 9e-6,-0.1 c 0,0 2.626295,0 2.626295,0 m 0.0072,-0.1 c 0,0 -2.633527,0 -2.633527,0 m 0,-0.1 c 0,0 2.640769,0 2.640769,0 m 0.0072,-0.1 c 0,0 -2.648011,0 -2.648011,0 m 0,-0.1 c 0,0 2.655252,0 2.655252,0 m -3.483174,-0.8 c 0,0 4.267111,0 4.267111,0 m 0.0072,-0.1 c 0,0 -4.274344,0 -4.274344,0 m 6e-6,-0.1 c 0,0 4.281577,0 4.281577,0 m 0.0072,-0.1 c 0,0 -4.288812,0 -4.288812,0 m 0,-0.1 c 0,0 4.29605,0 4.29605,0 m 0.0072,-0.1 c 0,0 -4.303289,0 -4.303289,0 m 0,-0.1 c 0,0 4.310528,0 4.310528,0 m -5.390449,-0.8 c 0,0 6.378565,0 6.378565,0 m 0,0 c 0,0 0,0 0,0 0,0 0,-0.1 0,-0.1 0,0 0,0 0,0 m 0,0 c 0,0 -6.371338,0 -6.371338,0 m 0.0072,-0.1 c 0,0 6.364111,0 6.364111,0 m 0,0 c 0,0 0,0 0,0 0,0 0,-0.1 0,-0.1 0,0 0,0 0,0 m 0,0 c 0,0 -6.356881,0 -6.356881,0 m 0.0072,-0.1 c 0,0 6.349642,0 6.349642,0 m 0,0 c 0,0 0,0 0,0 0,0 0,-0.1 0,-0.1 0,0 0,0 0,0 m 0,0 c 0,0 -6.342403,0 -6.342403,0 m 0.0072,-0.1 c 0,0 6.335164,0 6.335164,0 m 0,0 c 0,0 0,0 0,0 0,0 0,-0.0643 0,-0.0643 m 0,0 c 0,0 0,0 0,0 m -2.8113,-0.0357 c 0,0 -0.748727,0 -0.748727,0 m -18.073669,-0.1 c 0,0 0.854242,0 0.854242,0 m 1.07525,0 c 0,0 0.869607,0 0.869607,0 m 15.27457,0 c 0,0 0.746978,0 0.746978,0 m -0.0017,-0.1 c 0,0 -0.745229,0 -0.745229,0 m -15.27193,0 c 0,0 -0.872247,0 -0.872247,0 m -1.07525,0 c 0,0 -0.911731,0 -0.911731,0 m 0,-0.1 c 0,0 0.911731,0 0.911731,0 m 1.07525,0 c 0,0 0.874887,0 0.874887,0 m 15.26929,0 c 0,0 0.743479,0 0.743479,0 m -0.0017,-0.1 c 0,0 -0.74173,0 -0.74173,0 m -15.266649,0 c 0,0 -0.877528,0 -0.877528,0 m -1.07525,0 c 0,0 -0.911731,0 -0.911731,0 m 0,-0.1 c 0,0 0.911731,0 0.911731,0 m 1.07525,0 c 0,0 0.880168,0 0.880168,0 m 15.264009,0 c 0,0 0.739981,0 0.739981,0 m -0.0018,-0.1 c 0,0 -0.738231,0 -0.738231,0 m -15.261368,0 c 0,0 -0.882809,0 -0.882809,0 m -1.07525,0 c 0,0 -0.911731,0 -0.911731,0 m 0,-0.1 c 0,0 0.911731,0 0.911731,0 m 1.07525,0 c 0,0 0.885449,0 0.885449,0 m 15.258728,0 c 0,0 0.736482,0 0.736482,0 m -0.0017,-0.1 c 0,0 -0.734733,0 -0.734733,0 m -15.256087,0 c 0,0 -0.88809,0 -0.88809,0 m -1.07525,0 c 0,0 -0.911731,0 -0.911731,0 m 0,-0.1 c 0,0 0.911731,0 0.911731,0 m 1.07525,0 c 0,0 0.89073,0 0.89073,0 m 15.253447,0 c 0,0 0.732983,0 0.732983,0 m -0.0017,-0.1 c 0,0 -0.731234,0 -0.731234,0 m -15.250806,0 c 0,0 -0.893371,0 -0.893371,0 m -1.07525,0 c 0,0 -0.911731,0 -0.911731,0 m 0,-0.1 c 0,0 0.911731,0 0.911731,0 m 1.07525,0 c 0,0 0.896011,0 0.896011,0 m 15.248166,0 c 0,0 0.729485,0 0.729485,0 m -0.0017,-0.1 c 0,0 -0.727736,0 -0.727736,0 m -15.245526,0 c 0,0 -0.898651,0 -0.898651,0 m -1.07525,0 c 0,0 -0.911731,0 -0.911731,0 m -6.242055,0 c 0,0 -0.910983,0 -0.910983,0 m -0.181289,-0.1 c 0,0 1.181052,0 1.181052,0 m 6.153275,0 c 0,0 0.911731,0 0.911731,0 m 1.07525,0 c 0,0 0.901292,0 0.901292,0 m 15.242885,0 c 0,0 0.725986,0 0.725986,0 m -0.0017,-0.1 c 0,0 -0.724237,0 -0.724237,0 m -15.240245,0 c 0,0 -0.903932,0 -0.903932,0 m -1.07525,0 c 0,0 -0.911731,0 -0.911731,0 m -6.064496,0 c 0,0 -1.451132,0 -1.451132,0 m -0.08667,-0.1 c 0,0 1.626583,0 1.626583,0 m 5.975716,0 c 0,0 0.911731,0 0.911731,0 m 1.07525,0 c 0,0 0.906573,0 0.906573,0 m 15.237604,0 c 0,0 0.722488,0 0.722488,0 m -0.0017,-0.1 c 0,0 -0.720738,0 -0.720738,0 m -15.234964,0 c 0,0 -0.909213,0 -0.909213,0 m -1.07525,0 c 0,0 -0.911731,0 -0.911731,0 m -5.886938,0 c 0,0 -1.768992,0 -1.768992,0 m -0.05363,-0.1 c 0,0 1.911401,0 1.911401,0 m 5.79816,0 c 0,0 0.911731,0 0.911731,0 m 1.07525,0 c 0,0 0.911854,0 0.911854,0 m 15.232323,0 c 0,0 0.718989,0 0.718989,0 m -0.0017,-0.1 c 0,0 -0.71724,0 -0.71724,0 m -15.229683,0 c 0,0 -0.914494,0 -0.914494,0 m -1.07525,0 c 0,0 -0.911731,0 -0.911731,0 m -5.709382,0 c 0,0 -0.767094,0 -0.767094,0 m -0.566283,0 c 0,0 -0.720432,0 -0.720432,0 m -0.05363,-0.1 c 0,0 0.708541,0 0.708541,0 m 0.731887,0 c 0,0 7.288124,0 7.288124,0 m 1.07525,0 c 0,0 16.859667,0 16.859667,0 m -0.0017,-0.1 c 0,0 -16.857918,0 -16.857918,0 m -1.07525,0 c 0,0 -7.203822,0 -7.203822,0 m -0.88171,0 c 0,0 -0.691301,0 -0.691301,0 m 6.6e-5,-0.1 c 0,0 0.625713,0 0.625713,0 m 0.947232,0 c 0,0 7.203822,0 7.203822,0 m 1.07525,0 c 0,0 16.856169,0 16.856169,0 m -0.0017,-0.1 c 0,0 -16.85442,0 -16.85442,0 m -1.07525,0 c 0,0 -7.203822,0 -7.203822,0 m -1.012753,0 c 0,0 -0.560125,0 -0.560125,0 m 6.6e-5,-0.1 c 0,0 0.593168,0 0.593168,0 m 0.979644,0 c 0,0 7.203822,0 7.203822,0 m 1.07525,0 c 0,0 16.85267,0 16.85267,0 m -0.0017,-0.1 c 0,0 -16.850921,0 -16.850921,0 m -1.07525,0 c 0,0 -7.203822,0 -7.203822,0 m -0.923788,0 c 0,0 -0.648957,0 -0.648957,0 m 0.0055,-0.1 c 0,0 0.699309,0 0.699309,0 m 0.86793,0 c 0,0 7.203822,0 7.203822,0 m 1.07525,0 c 0,0 16.849172,0 16.849172,0 m -10.481394,-0.1 c 0,0 -6.367778,0 -6.367778,0 m -1.07525,0 c 0,0 -7.311745,0 -7.311745,0 m -0.704149,0 c 0,0 -0.703972,0 -0.703972,0 m 0.05119,-0.1 c 0,0 1.14862,0 1.14862,0 m 0.08784,0 c 0,0 0.795187,0 0.795187,0 m 2.24816,0 c 0,0 0.911755,0 0.911755,0 m 2.563047,0 c 0,0 0.914061,0 0.914061,0 m 1.07525,0 c 0,0 0.91404,0 0.91404,0 m -0.0026,-0.1 c 0,0 -0.911398,0 -0.911398,0 m -1.07525,0 c 0,0 -0.91142,0 -0.91142,0 m -2.565566,0 c 0,0 -0.911877,0 -0.911877,0 m -2.33694,0 c 0,0 -1.891673,0 -1.891673,0 m 0.0512,-0.1 c 0,0 1.751698,0 1.751698,0 m 2.425719,0 c 0,0 0.911999,0 0.911999,0 m 2.568084,0 c 0,0 0.90878,0 0.90878,0 m 1.07525,0 c 0,0 0.908756,0 0.908756,0 m -0.0026,-0.1 c 0,0 -0.906115,0 -0.906115,0 m -1.07525,0 c 0,0 -0.90614,0 -0.90614,0 m -2.570602,0 c 0,0 -0.912121,0 -0.912121,0 m -2.514498,0 c 0,0 -1.611723,0 -1.611723,0 m 0.111436,-0.1 c 0,0 1.411507,0 1.411507,0 m 2.603278,0 c 0,0 0.912243,0 0.912243,0 m 2.573121,0 c 0,0 0.903499,0 0.903499,0 m 1.07525,0 c 0,0 0.903473,0 0.903473,0 m -0.0026,-0.1 c 0,0 -0.900831,0 -0.900831,0 m -1.07525,0 c 0,0 -0.900859,0 -0.900859,0 m -2.575639,0 c 0,0 -0.912365,0 -0.912365,0 m -2.692057,0 c 0,0 -1.138081,0 -1.138081,0 m 0.184647,-0.1 c 0,0 0.79188,0 0.79188,0 m 2.853611,0 c 0,0 0.912488,0 0.912488,0 m 2.578157,0 c 0,0 0.898218,0 0.898218,0 m 1.07525,0 c 0,0 0.89819,0 0.89819,0 m -0.0026,-0.1 c 0,0 -0.895548,0 -0.895548,0 m -1.07525,0 c 0,0 -0.895578,0 -0.895578,0 m -2.580675,0 c 0,0 -0.91261,0 -0.91261,0 m 0,-0.1 c 0,0 0.912732,0 0.912732,0 m 2.583194,0 c 0,0 0.892937,0 0.892937,0 m 1.07525,0 c 0,0 0.892906,0 0.892906,0 m -0.0026,-0.1 c 0,0 -0.890265,0 -0.890265,0 m -1.07525,0 c 0,0 -0.890297,0 -0.890297,0 m -2.585712,0 c 0,0 -0.912854,0 -0.912854,0 m 0,-0.1 c 0,0 0.912976,0 0.912976,0 m 2.588231,0 c 0,0 0.887656,0 0.887656,0 m 1.07525,0 c 0,0 0.887623,0 0.887623,0 m -0.0026,-0.1 c 0,0 -0.884981,0 -0.884981,0 m -1.07525,0 c 0,0 -0.885016,0 -0.885016,0 m -2.590749,0 c 0,0 -0.913098,0 -0.913098,0 m 0,-0.1 c 0,0 0.91322,0 0.91322,0 m 2.593268,0 c 0,0 0.882375,0 0.882375,0 m 1.07525,0 c 0,0 0.88234,0 0.88234,0 m -0.0026,-0.1 c 0,0 -0.879698,0 -0.879698,0 m -1.07525,0 c 0,0 -0.879735,0 -0.879735,0 m -2.595786,0 c 0,0 -0.913342,0 -0.913342,0 m 0,-0.1 c 0,0 0.913464,0 0.913464,0 m 2.598305,0 c 0,0 0.877094,0 0.877094,0 m 1.07525,0 c 0,0 0.877056,0 0.877056,0 m -0.0026,-0.1 c 0,0 -0.874415,0 -0.874415,0 m -1.07525,0 c 0,0 -0.874454,0 -0.874454,0 m -2.600823,0 c 0,0 -0.913586,0 -0.913586,0 m 0,-0.1 c 0,0 0.913708,0 0.913708,0 m 2.603342,0 c 0,0 0.871813,0 0.871813,0 m 1.07525,0 c 0,0 0.871773,0 0.871773,0 m 13.756461,0 c 0,0 0.424951,0 0.424951,0 m 0.365927,-0.1 c 0,0 -1.069976,0 -1.069976,0 m -2.344504,0 c 0,0 -0.993488,0 -0.993488,0 m -0.786514,0 c 0,0 -1.01824,0 -1.01824,0 m -8.448187,0 c 0,0 -0.758203,0 -0.758203,0 m -1.07525,0 c 0,0 -0.785673,0 -0.785673,0 m -2.68936,0 c 0,0 -0.91383,0 -0.91383,0 m 0,-0.1 c 0,0 0.913952,0 0.913952,0 m 13.756551,0 c 0,0 1.01824,0 1.01824,0 m 0.786514,0 c 0,0 0.993488,0 0.993488,0 m 2.064004,0 c 0,0 1.602191,0 1.602191,0 m 0.132462,-0.1 c 0,0 -1.84713,0 -1.84713,0 m -1.951527,0 c 0,0 -0.993488,0 -0.993488,0 m -0.786514,0 c 0,0 -1.01824,0 -1.01824,0 m -13.756429,0 c 0,0 -0.914074,0 -0.914074,0 m 0,-0.1 c 0,0 0.914196,0 0.914196,0 m 13.756307,0 c 0,0 1.01824,0 1.01824,0 m 0.786514,0 c 0,0 0.993488,0 0.993488,0 m 1.847152,0 c 0,0 2.083966,0 2.083966,0 m 0.132458,-0.1 c 0,0 -2.320806,0 -2.320806,0 m -1.74277,0 c 0,0 -0.993488,0 -0.993488,0 m -0.786514,0 c 0,0 -1.01824,0 -1.01824,0 m -13.756185,0 c 0,0 -0.914318,0 -0.914318,0 m 0,-0.1 c 0,0 0.91444,0 0.91444,0 m 13.756063,0 c 0,0 1.01824,0 1.01824,0 m 0.786514,0 c 0,0 0.993488,0 0.993488,0 m 1.638386,0 c 0,0 2.532362,0 2.532362,0 m 0.04541,-0.1 c 0,0 -2.656709,0 -2.656709,0 m -1.559451,0 c 0,0 -0.993488,0 -0.993488,0 m -0.786514,0 c 0,0 -1.01824,0 -1.01824,0 m -13.755941,0 c 0,0 -0.914562,0 -0.914562,0 m 0,-0.1 c 0,0 0.914684,0 0.914684,0 m 13.755819,0 c 0,0 1.01824,0 1.01824,0 m 0.786514,0 c 0,0 0.993488,0 0.993488,0 m 1.512,0 c 0,0 2.749571,0 2.749571,0 m 0.04541,-0.1 c 0,0 -2.842435,0 -2.842435,0 m -1.464548,0 c 0,0 -0.993488,0 -0.993488,0 m -0.786514,0 c 0,0 -1.01824,0 -1.01824,0 m -13.755697,0 c 0,0 -0.914806,0 -0.914806,0 m 0,-0.1 c 0,0 0.914928,0 0.914928,0 m 13.755575,0 c 0,0 1.01824,0 1.01824,0 m 0.786514,0 c 0,0 0.993488,0 0.993488,0 m 1.417096,0 c 0,0 2.9353,0 2.9353,0 m 0.04541,-0.1 c 0,0 -1.280153,0 -1.280153,0 m -0.522755,0 c 0,0 -1.225259,0 -1.225259,0 m -1.369642,0 c 0,0 -0.993488,0 -0.993488,0 m -15.560207,0 c 0,0 -0.91505,0 -0.91505,0 m 0,-0.1 c 0,0 0.915172,0 0.915172,0 m 15.560085,0 c 0,0 0.993488,0 0.993488,0 m 1.324652,0 c 0,0 1.170246,0 1.170246,0 m 0.722757,0 c 0,0 1.225567,0 1.225567,0 m 0.02384,-0.1 c 0,0 -1.149402,0 -1.149402,0 m -0.922759,0 c 0,0 -1.070246,0 -1.070246,0 m -1.324652,0 c 0,0 -0.993488,0 -0.993488,0 m -15.559963,0 c 0,0 -0.915294,0 -0.915294,0 m 0,-0.1 c 0,0 0.915416,0 0.915416,0 m 15.559841,0 c 0,0 0.993488,0 0.993488,0 m 1.324652,0 c 0,0 0.993486,0 0.993486,0 m 1.076281,0 c 0,0 1.07264,0 1.07264,0 m 0,-0.1 c 0,0 -1.07264,0 -1.07264,0 m -1.076281,0 c 0,0 -0.993486,0 -0.993486,0 m -1.324652,0 c 0,0 -0.993488,0 -0.993488,0 m -15.559719,0 c 0,0 -0.915538,0 -0.915538,0 m 0,-0.1 c 0,0 0.91566,0 0.91566,0 m 15.559597,0 c 0,0 0.993488,0 0.993488,0 m 1.324652,0 c 0,0 0.993486,0 0.993486,0 m 1.076281,0 c 0,0 1.07264,0 1.07264,0 m 0,-0.1 c 0,0 -1.07264,0 -1.07264,0 m -1.076281,0 c 0,0 -0.993486,0 -0.993486,0 m -1.324652,0 c 0,0 -0.993488,0 -0.993488,0 m -15.559475,0 c 0,0 -0.915782,0 -0.915782,0 m 0,-0.1 c 0,0 0.915904,0 0.915904,0 m 15.559353,0 c 0,0 0.993488,0 0.993488,0 m 1.324652,0 c 0,0 0.993486,0 0.993486,0 m 1.076281,0 c 0,0 1.07264,0 1.07264,0 m 0,-0.1 c 0,0 -1.07264,0 -1.07264,0 m -1.076281,0 c 0,0 -0.993486,0 -0.993486,0 m -1.324652,0 c 0,0 -0.993488,0 -0.993488,0 m -15.559231,0 c 0,0 -0.916026,0 -0.916026,0 m 0,-0.1 c 0,0 0.916148,0 0.916148,0 m 15.559109,0 c 0,0 0.993488,0 0.993488,0 m 1.324652,0 c 0,0 0.993486,0 0.993486,0 m 1.076281,0 c 0,0 1.07264,0 1.07264,0 m 0,-0.1 c 0,0 -1.07264,0 -1.07264,0 m -1.076281,0 c 0,0 -0.993486,0 -0.993486,0 m -1.324652,0 c 0,0 -0.993488,0 -0.993488,0 m -15.558987,0 c 0,0 -0.91627,0 -0.91627,0 m 0,-0.1 c 0,0 0.916392,0 0.916392,0 m 15.558865,0 c 0,0 0.993488,0 0.993488,0 m 1.324652,0 c 0,0 0.993486,0 0.993486,0 m 1.076281,0 c 0,0 1.07264,0 1.07264,0 m 0,-0.1 c 0,0 -1.07264,0 -1.07264,0 m -1.076281,0 c 0,0 -0.993486,0 -0.993486,0 m -1.324652,0 c 0,0 -0.993488,0 -0.993488,0 m -15.558743,0 c 0,0 -0.916514,0 -0.916514,0 m 0,-0.1 c 0,0 0.916636,0 0.916636,0 m 15.558621,0 c 0,0 0.993488,0 0.993488,0 m 1.324652,0 c 0,0 0.993486,0 0.993486,0 m 1.076281,0 c 0,0 1.07264,0 1.07264,0 m 0,-0.1 c 0,0 -1.07264,0 -1.07264,0 m -1.076281,0 c 0,0 -0.993486,0 -0.993486,0 m -1.324652,0 c 0,0 -0.993488,0 -0.993488,0 m -15.428304,0 c 0,0 -1.046953,0 -1.046953,0 m 0,-0.1 c 0,0 1.197295,0 1.197295,0 m 15.277962,0 c 0,0 0.993488,0 0.993488,0 m 1.324652,0 c 0,0 0.993486,0 0.993486,0 m 1.076281,0 c 0,0 1.07264,0 1.07264,0 m 0,-0.1 c 0,0 -1.07264,0 -1.07264,0 m -1.076281,0 c 0,0 -0.993486,0 -0.993486,0 m -1.324652,0 c 0,0 -0.993488,0 -0.993488,0 m -15.12762,0 c 0,0 -1.347637,0 -1.347637,0 m 0.02717,-0.1 c 0,0 1.470808,0 1.470808,0 m 14.977278,0 c 0,0 0.993488,0 0.993488,0 m 1.324652,0 c 0,0 0.993486,0 0.993486,0 m 1.076281,0 c 0,0 1.07264,0 1.07264,0 m 0,-0.1 c 0,0 -1.07264,0 -1.07264,0 m -1.076281,0 c 0,0 -0.993486,0 -0.993486,0 m -1.324652,0 c 0,0 -0.993488,0 -0.993488,0 m -14.826937,0 c 0,0 -1.471609,0 -1.471609,0 m 0.149539,-0.1 c 0,0 1.472412,0 1.472412,0 m 14.676595,0 c 0,0 0.993488,0 0.993488,0 m 1.324652,0 c 0,0 0.993486,0 0.993486,0 m 1.076281,0 c 0,0 1.07264,0 1.07264,0 m 0,-0.1 c 0,0 -1.07264,0 -1.07264,0 m -1.076281,0 c 0,0 -0.993486,0 -0.993486,0 m -1.324652,0 c 0,0 -0.993488,0 -0.993488,0 m -14.526253,0 c 0,0 -1.473214,0 -1.473214,0 m 0.14954,-0.1 c 0,0 1.474017,0 1.474017,0 m 14.37591,0 c 0,0 0.993488,0 0.993488,0 m 1.324652,0 c 0,0 0.993486,0 0.993486,0 m 1.076281,0 c 0,0 1.07264,0 1.07264,0 m 0,-0.1 c 0,0 -1.07264,0 -1.07264,0 m -1.076281,0 c 0,0 -0.993486,0 -0.993486,0 m -1.324652,0 c 0,0 -0.993488,0 -0.993488,0 m -14.225566,0 c 0,0 -1.474822,0 -1.474822,0 m 0.14954,-0.1 c 0,0 1.475626,0 1.475626,0 m 14.075222,0 c 0,0 0.993488,0 0.993488,0 m 1.324652,0 c 0,0 0.993486,0 0.993486,0 m 1.076281,0 c 0,0 1.07264,0 1.07264,0 m 0,-0.1 c 0,0 -1.07264,0 -1.07264,0 m -1.076281,0 c 0,0 -0.993486,0 -0.993486,0 m -1.324652,0 c 0,0 -0.993488,0 -0.993488,0 m -13.924878,0 c 0,0 -1.47643,0 -1.47643,0 m 0.14954,-0.1 c 0,0 1.477233,0 1.477233,0 m 13.774535,0 c 0,0 0.993488,0 0.993488,0 m 1.324652,0 c 0,0 0.993486,0 0.993486,0 m 1.076281,0 c 0,0 1.07264,0 1.07264,0 m 0,-0.1 c 0,0 -1.07264,0 -1.07264,0 m -1.076281,0 c 0,0 -0.993486,0 -0.993486,0 m -1.324652,0 c 0,0 -0.993488,0 -0.993488,0 m -13.624191,0 c 0,0 -1.478037,0 -1.478037,0 m 0.14954,-0.1 c 0,0 1.478841,0 1.478841,0 m 13.473847,0 c 0,0 0.993488,0 0.993488,0 m 1.324652,0 c 0,0 0.993486,0 0.993486,0 m 1.076281,0 c 0,0 1.07264,0 1.07264,0 m 0,-0.1 c 0,0 -1.07264,0 -1.07264,0 m -1.076281,0 c 0,0 -0.993486,0 -0.993486,0 m -1.324652,0 c 0,0 -0.993488,0 -0.993488,0 m -13.333228,0 c 0,0 -1.695433,0 -1.695433,0 m -0.193864,-0.1 c 0,0 1.787706,0 1.787706,0 m 13.434819,0 c 0,0 0.993488,0 0.993488,0 m 1.324652,0 c 0,0 0.993486,0 0.993486,0 m 1.076281,0 c 0,0 1.07264,0 1.07264,0 m 0,-0.1 c 0,0 -1.07264,0 -1.07264,0 m -1.076281,0 c 0,0 -0.993486,0 -0.993486,0 m -1.324652,0 c 0,0 -0.993488,0 -0.993488,0 m -13.613646,0 c 0,0 -1.802742,0 -1.802742,0 m -0.193864,-0.1 c 0,0 1.801347,0 1.801347,0 m 13.808905,0 c 0,0 0.993488,0 0.993488,0 m 1.324652,0 c 0,0 0.993486,0 0.993486,0 m 1.076281,0 c 0,0 1.07264,0 1.07264,0 m 0,-0.1 c 0,0 -1.07264,0 -1.07264,0 m -1.076281,0 c 0,0 -0.993486,0 -0.993486,0 m -1.324652,0 c 0,0 -0.993488,0 -0.993488,0 m -14.004164,0 c 0,0 -1.799951,0 -1.799951,0 m -0.193864,-0.1 c 0,0 1.798556,0 1.798556,0 m 14.199423,0 c 0,0 0.993488,0 0.993488,0 m 1.324652,0 c 0,0 0.993486,0 0.993486,0 m 1.076281,0 c 0,0 1.07264,0 1.07264,0 m 0,-0.1 c 0,0 -1.07264,0 -1.07264,0 m -1.076281,0 c 0,0 -0.993486,0 -0.993486,0 m -1.324652,0 c 0,0 -0.993488,0 -0.993488,0 m -14.394682,0 c 0,0 -1.79716,0 -1.79716,0 m -0.193864,-0.1 c 0,0 1.795765,0 1.795765,0 m 14.589941,0 c 0,0 0.993488,0 0.993488,0 m 1.324652,0 c 0,0 0.993486,0 0.993486,0 m 1.076281,0 c 0,0 1.07264,0 1.07264,0 m 0,-0.1 c 0,0 -1.07264,0 -1.07264,0 m -1.076281,0 c 0,0 -0.993486,0 -0.993486,0 m -1.324652,0 c 0,0 -0.993488,0 -0.993488,0 m -14.7852,0 c 0,0 -1.794369,0 -1.794369,0 m -0.193864,-0.1 c 0,0 1.792974,0 1.792974,0 m 14.980459,0 c 0,0 0.993488,0 0.993488,0 m 1.324652,0 c 0,0 0.993486,0 0.993486,0 m 1.076281,0 c 0,0 1.07264,0 1.07264,0 m 0,-0.1 c 0,0 -1.07264,0 -1.07264,0 m -1.076281,0 c 0,0 -0.993486,0 -0.993486,0 m -1.324652,0 c 0,0 -0.993488,0 -0.993488,0 m -15.175718,0 c 0,0 -1.791575,0 -1.791575,0 m -0.19386,-0.1 c 0,0 1.790178,0 1.790178,0 m 15.370975,0 c 0,0 0.993488,0 0.993488,0 m 1.324652,0 c 0,0 0.993486,0 0.993486,0 m 1.076281,0 c 0,0 1.07264,0 1.07264,0 m 0,-0.1 c 0,0 -1.07264,0 -1.07264,0 m -1.076281,0 c 0,0 -0.993486,0 -0.993486,0 m -1.324652,0 c 0,0 -0.993488,0 -0.993488,0 m -15.566231,0 c 0,0 -1.788782,0 -1.788782,0 m -0.19386,-0.1 c 0,0 1.787386,0 1.787386,0 m 15.761487,0 c 0,0 0.993488,0 0.993488,0 m 1.324652,0 c 0,0 0.993486,0 0.993486,0 m 1.076281,0 c 0,0 1.07264,0 1.07264,0 m 0,-0.1 c 0,0 -1.07264,0 -1.07264,0 m -1.076281,0 c 0,0 -0.993486,0 -0.993486,0 m -1.324652,0 c 0,0 -0.993488,0 -0.993488,0 m -15.956743,0 c 0,0 -1.78599,0 -1.78599,0 m -0.19386,-0.1 c 0,0 1.784594,0 1.784594,0 m 16.151999,0 c 0,0 0.993488,0 0.993488,0 m 1.324652,0 c 0,0 0.993486,0 0.993486,0 m 1.076281,0 c 0,0 1.07264,0 1.07264,0 m -0.01144,-0.1 c 0,0 -1.161015,0 -1.161015,0 m -0.876647,0 c 0,0 -1.093303,0 -1.093303,0 m -1.324652,0 c 0,0 -0.993488,0 -0.993488,0 m -16.347255,0 c 0,0 -1.783199,0 -1.783199,0 m -0.19386,-0.1 c 0,0 1.781802,0 1.781802,0 m 16.542512,0 c 0,0 0.993488,0 0.993488,0 m 1.357469,0 c 0,0 1.18761,0 1.18761,0 m 0.622399,0 c 0,0 1.242717,0 1.242717,0 m -0.04542,-0.1 c 0,0 -1.324424,0 -1.324424,0 m -0.368139,0 c 0,0 -1.272876,0 -1.272876,0 m -0.323053,0 c 0,0 -3.146045,0 -3.146045,0 m -15.661491,0 c 0,0 -1.780406,0 -1.780406,0 m -0.173936,-0.1 c 0,0 1.759086,0 1.759086,0 m 15.856747,0 c 0,0 3.146045,0 3.146045,0 m 0.364916,0 c 0,0 2.878154,0 2.878154,0 m -0.04542,-0.1 c 0,0 -2.790866,0 -2.790866,0 m -0.40678,0 c 0,0 -3.146045,0 -3.146045,0 m -15.976245,0 c 0,0 -1.743255,0 -1.743255,0 m 0.148706,-0.1 c 0,0 1.644523,0 1.644523,0 m 15.926271,0 c 0,0 3.146045,0 3.146045,0 m 0.448643,0 c 0,0 2.70358,0 2.70358,0 m -0.04542,-0.1 c 0,0 -2.584869,0 -2.584869,0 m -0.52193,0 c 0,0 -3.146045,0 -3.146045,0 m -15.749495,0 c 0,0 -1.644833,0 -1.644833,0 m 0.176467,-0.1 c 0,0 1.645142,0 1.645142,0 m 15.572719,0 c 0,0 3.146045,0 3.146045,0 m 0.632752,0 c 0,0 2.3875,0 2.3875,0 m -0.118846,-0.1 c 0,0 -2.157833,0 -2.157833,0 m -0.743573,0 c 0,0 -3.146045,0 -3.146045,0 m -15.395942,0 c 0,0 -1.645452,0 -1.645452,0 m 0.176466,-0.1 c 0,0 1.645762,0 1.645762,0 m 15.219166,0 c 0,0 3.146045,0 3.146045,0 m 0.854396,0 c 0,0 1.928166,0 1.928166,0 m -0.118842,-0.1 c 0,0 -1.698499,0 -1.698499,0 m -0.965221,0 c 0,0 -3.146045,0 -3.146045,0 m -15.04239,0 c 0,0 -1.646071,0 -1.646071,0 m 0.176466,-0.1 c 0,0 1.646382,0 1.646382,0 m 14.865613,0 c 0,0 3.146045,0 3.146045,0 m 1.076046,0 c 0,0 1.443201,0 1.443201,0 m -0.33388,-0.1 c 0,0 -0.794025,0 -0.794025,0 m -19.226224,0 c 0,0 -1.646691,0 -1.646691,0 m 0.176467,-0.1 c 0,0 1.647,0 1.647,0 m 0.176777,-0.1 c 0,0 -1.647311,0 -1.647311,0 m 0.176466,-0.1 c 0,0 1.647621,0 1.647621,0 m 0.176778,-0.1 c 0,0 -1.647932,0 -1.647932,0 m 0.176466,-0.1 c 0,0 1.648243,0 1.648243,0 m 18.563046,-0.1 c 0,0 -2.688328,0 -2.688328,0 m -0.401888,0 c 0,0 -1.414937,0 -1.414937,0 m -1.985227,0 c 0,0 -1.346407,0 -1.346407,0 m -0.439907,0 c 0,0 -3.601394,0 -3.601394,0 m -6.508181,0 c 0,0 -1.648554,0 -1.648554,0 m 0.176466,-0.1 c 0,0 1.648865,0 1.648865,0 m 6.331404,0 c 0,0 3.601394,0 3.601394,0 m 0.39928,0 c 0,0 1.407929,0 1.407929,0 m 1.945251,0 c 0,0 1.414832,0 1.414832,0 m 0.421074,0 c 0,0 3.025073,0 3.025073,0 m 0.336745,-0.1 c 0,0 -3.361818,0 -3.361818,0 m -0.440258,0 c 0,0 -1.414728,0 -1.414728,0 m -1.905278,0 c 0,0 -1.41171,0 -1.41171,0 m -0.416392,0 c 0,0 -3.601394,0 -3.601394,0 m -6.154626,0 c 0,0 -1.649177,0 -1.649177,0 m 0.176466,-0.1 c 0,0 1.649488,0 1.649488,0 m 5.977849,0 c 0,0 3.601394,0 3.601394,0 m 0.433505,0 c 0,0 1.415489,0 1.415489,0 m 1.865307,0 c 0,0 1.414626,0 1.414626,0 m 0.459439,0 c 0,0 3.499033,0 3.499033,0 m 0.1,-0.1 c 0,0 -3.599031,0 -3.599031,0 m -0.478619,0 c 0,0 -1.414526,0 -1.414526,0 m -1.82882,0 c 0,0 -1.415783,0 -1.415783,0 m -0.450618,0 c 0,0 -3.601394,0 -3.601394,0 m -5.801072,0 c 0,0 -1.649799,0 -1.649799,0 m 0.176466,-0.1 c 0,0 1.650111,0 1.650111,0 m 5.624294,0 c 0,0 3.601394,0 3.601394,0 m 0.467731,0 c 0,0 1.414765,0 1.414765,0 m 1.797609,0 c 0,0 1.412788,0 1.412788,0 m 0.495473,0 c 0,0 3.69903,0 3.69903,0 m 0.1,-0.1 c 0,0 -3.799028,0 -3.799028,0 m -0.512061,0 c 0,0 -1.410862,0 -1.410862,0 m -1.766852,0 c 0,0 -1.413747,0 -1.413747,0 m -0.484844,0 c 0,0 -3.601394,0 -3.601394,0 m -5.447517,0 c 0,0 -1.650422,0 -1.650422,0 m 0.0074,-0.1 c 0,0 1.706957,0 1.706957,0 m 5.383555,0 c 0,0 3.601394,0 3.601394,0 m 0.501957,0 c 0,0 1.412728,0 1.412728,0 m 1.736097,0 c 0,0 1.408936,0 1.408936,0 m 0.528648,0 c 0,0 3.899028,0 3.899028,0 m 0.100001,-0.1 c 0,0 -3.999029,0 -3.999029,0 m -0.545236,0 c 0,0 -1.40701,0 -1.40701,0 m -1.70534,0 c 0,0 -1.41171,0 -1.41171,0 m -0.51907,0 c 0,0 -3.601394,0 -3.601394,0 m -5.488788,0 c 0,0 -1.738477,0 -1.738477,0 m -0.15035,-0.1 c 0,0 1.707011,0 1.707011,0 m 5.670604,0 c 0,0 3.601394,0 3.601394,0 m 0.536183,0 c 0,0 1.410691,0 1.410691,0 m 1.674584,0 c 0,0 1.405085,0 1.405085,0 m 0.561823,0 c 0,0 4.099029,0 4.099029,0 m 0.09273,-0.1 c 0,0 -4.191756,0 -4.191756,0 m -0.57841,0 c 0,0 -1.40316,0 -1.40316,0 m -1.643827,0 c 0,0 -1.409674,0 -1.409674,0 m -0.553295,0 c 0,0 -3.601394,0 -3.601394,0 m -5.85242,0 c 0,0 -1.707735,0 -1.707735,0 m -0.18254,-0.1 c 0,0 1.708459,0 1.708459,0 m 6.034236,0 c 0,0 3.601394,0 3.601394,0 m 0.570408,0 c 0,0 1.408655,0 1.408655,0 m 1.613071,0 c 0,0 1.401234,0 1.401234,0 m 0.594998,0 c 0,0 4.219814,0 4.219814,0 m 0.02806,-0.1 c 0,0 -4.247873,0 -4.247873,0 m -0.611585,0 c 0,0 -1.399309,0 -1.399309,0 m -1.582314,0 c 0,0 -1.407637,0 -1.407637,0 m -0.587521,0 c 0,0 -3.601394,0 -3.601394,0 m -6.216052,0 c 0,0 -1.709183,0 -1.709183,0 m -0.18254,-0.1 c 0,0 1.709907,0 1.709907,0 m 6.397868,0 c 0,0 3.601394,0 3.601394,0 m 0.604634,0 c 0,0 1.406618,0 1.406618,0 m 1.551558,0 c 0,0 1.397383,0 1.397383,0 m 0.628173,0 c 0,0 4.275932,0 4.275932,0 m 0.02806,-0.1 c 0,0 -1.886185,0 -1.886185,0 m -0.927574,0 c 0,0 -1.490231,0 -1.490231,0 m -0.64476,0 c 0,0 -1.395458,0 -1.395458,0 m -1.520802,0 c 0,0 -1.405599,0 -1.405599,0 m -2.898493,0 c 0,0 -1.324648,0 -1.324648,0 m -6.579685,0 c 0,0 -1.710631,0 -1.710631,0 m -0.18254,-0.1 c 0,0 1.711355,0 1.711355,0 m 6.761501,0 c 0,0 1.324648,0 1.324648,0 m 2.915606,0 c 0,0 1.40458,0 1.40458,0 m 1.490047,0 c 0,0 1.393532,0 1.393532,0 m 0.661347,0 c 0,0 1.490231,0 1.490231,0 m 1.070393,0 c 0,0 1.771425,0 1.771425,0 m 0.02806,-0.1 c 0,0 -1.656712,0 -1.656712,0 m -1.213164,0 c 0,0 -1.490231,0 -1.490231,0 m -0.677935,0 c 0,0 -1.391606,0 -1.391606,0 m -1.459291,0 c 0,0 -1.403561,0 -1.403561,0 m -2.932719,0 c 0,0 -1.324648,0 -1.324648,0 m -6.943317,0 c 0,0 -1.712079,0 -1.712079,0 m -0.18254,-0.1 c 0,0 1.712803,0 1.712803,0 m 7.125133,0 c 0,0 1.324648,0 1.324648,0 m 2.949832,0 c 0,0 1.402542,0 1.402542,0 m 1.425468,0 c 0,0 1.392748,0 1.392748,0 m 0.694522,0 c 0,0 1.490231,0 1.490231,0 m 1.265364,0 c 0,0 1.63257,0 1.63257,0 m 0.02806,-0.1 c 0,0 -1.613174,0 -1.613174,0 m -1.312818,0 c 0,0 -1.490231,0 -1.490231,0 m -0.71111,0 c 0,0 -1.397231,0 -1.397231,0 m -1.388303,0 c 0,0 -1.401524,0 -1.401524,0 m -2.966944,0 c 0,0 -1.324648,0 -1.324648,0 m -7.306949,0 c 0,0 -1.713525,0 -1.713525,0 m -0.182538,-0.1 c 0,0 1.714248,0 1.714248,0 m 7.488764,0 c 0,0 1.324648,0 1.324648,0 m 2.984057,0 c 0,0 1.400505,0 1.400505,0 m 1.351139,0 c 0,0 1.401714,0 1.401714,0 m 0.727697,0 c 0,0 1.490231,0 1.490231,0 m 1.360272,0 c 0,0 1.593778,0 1.593778,0 m 0.02641,-0.1 c 0,0 -1.572739,0 -1.572739,0 m -1.407725,0 c 0,0 -1.490231,0 -1.490231,0 m -0.744285,0 c 0,0 -1.406197,0 -1.406197,0 m -1.326704,0 c 0,0 -1.386756,0 -1.386756,0 m -3.00117,0 c 0,0 -1.324648,0 -1.324648,0 m -7.67058,0 c 0,0 -1.71497,0 -1.71497,0 m -0.182538,-0.1 c 0,0 1.715692,0 1.715692,0 m 7.852396,0 c 0,0 1.324648,0 1.324648,0 m 3.018283,0 c 0,0 4.085957,0 4.085957,0 m 0.760872,0 c 0,0 1.490231,0 1.490231,0 m 1.455178,0 c 0,0 1.525286,0 1.525286,0 m 0,-0.1 c 0,0 -1.490232,0 -1.490232,0 m -1.490232,0 c 0,0 -1.490231,0 -1.490231,0 m -0.777459,0 c 0,0 -4.052257,0 -4.052257,0 m -3.035396,0 c 0,0 -1.324648,0 -1.324648,0 m -8.034212,0 c 0,0 -1.716414,0 -1.716414,0 m -0.182538,-0.1 c 0,0 1.717137,0 1.717137,0 m 8.216027,0 c 0,0 1.324648,0 1.324648,0 m 3.052509,0 c 0,0 4.018556,0 4.018556,0 m 0.794047,0 c 0,0 1.490231,0 1.490231,0 m 1.490232,0 c 0,0 1.490232,0 1.490232,0 m 0,-0.1 c 0,0 -1.490232,0 -1.490232,0 m -1.490232,0 c 0,0 -1.490231,0 -1.490231,0 m -0.810634,0 c 0,0 -3.984856,0 -3.984856,0 m -3.069622,0 c 0,0 -1.324648,0 -1.324648,0 m -8.397843,0 c 0,0 -1.717859,0 -1.717859,0 m -0.14699,-0.1 c 0,0 1.683033,0 1.683033,0 m 8.579659,0 c 0,0 1.324648,0 1.324648,0 m 3.086735,0 c 0,0 3.951155,0 3.951155,0 m 0.827222,0 c 0,0 1.490231,0 1.490231,0 m 1.490232,0 c 0,0 1.490232,0 1.490232,0 m 0,-0.1 c 0,0 -1.490232,0 -1.490232,0 m -1.490232,0 c 0,0 -1.490231,0 -1.490231,0 m -0.843809,0 c 0,0 -3.917456,0 -3.917456,0 m -3.103847,0 c 0,0 -1.324648,0 -1.324648,0 m -8.689949,0 c 0,0 -1.556193,0 -1.556193,0 m 0.15518,-0.1 c 0,0 1.485878,0 1.485878,0 m 8.605084,0 c 0,0 1.324648,0 1.324648,0 m 3.12096,0 c 0,0 3.883755,0 3.883755,0 m 0.860397,0 c 0,0 1.490231,0 1.490231,0 m 1.490232,0 c 0,0 1.490232,0 1.490232,0 m 0,-0.1 c 0,0 -1.490232,0 -1.490232,0 m -1.490232,0 c 0,0 -1.490231,0 -1.490231,0 m -0.876984,0 c 0,0 -3.850055,0 -3.850055,0 m -3.138073,0 c 0,0 -1.324648,0 -1.324648,0 m -8.449567,0 c 0,0 -1.486215,0 -1.486215,0 m 0.155181,-0.1 c 0,0 1.486551,0 1.486551,0 m 8.29405,0 c 0,0 1.324648,0 1.324648,0 m 3.155186,0 c 0,0 3.816355,0 3.816355,0 m 0.893571,0 c 0,0 1.490231,0 1.490231,0 m 1.490232,0 c 0,0 1.485493,0 1.485493,0 m -0.02806,-0.1 c 0,0 -1.457434,0 -1.457434,0 m -1.490232,0 c 0,0 -1.490231,0 -1.490231,0 m -0.910159,0 c 0,0 -3.782654,0 -3.782654,0 m -3.172299,0 c 0,0 -1.324648,0 -1.324648,0 m -8.138534,0 c 0,0 -1.486887,0 -1.486887,0 m 0.15518,-0.1 c 0,0 1.487224,0 1.487224,0 m 7.983017,0 c 0,0 1.324648,0 1.324648,0 m 3.189412,0 c 0,0 3.748954,0 3.748954,0 m 0.926746,0 c 0,0 1.490231,0 1.490231,0 m 1.45784,0 c 0,0 1.461767,0 1.461767,0 m -0.02806,-0.1 c 0,0 -1.476033,0 -1.476033,0 m -1.415515,0 c 0,0 -1.490231,0 -1.490231,0 m -0.943334,0 c 0,0 -3.715253,0 -3.715253,0 m -3.206525,0 c 0,0 -1.324648,0 -1.324648,0 m -7.8275,0 c 0,0 -1.487561,0 -1.487561,0 m 0.155181,-0.1 c 0,0 1.487897,0 1.487897,0 m 7.671983,0 c 0,0 1.324648,0 1.324648,0 m 3.223638,0 c 0,0 3.681553,0 3.681553,0 m 0.959921,0 c 0,0 1.490231,0 1.490231,0 m 1.37319,0 c 0,0 1.4903,0 1.4903,0 m -0.02806,-0.1 c 0,0 -1.504567,0 -1.504567,0 m -1.330864,0 c 0,0 -1.490231,0 -1.490231,0 m -0.976509,0 c 0,0 -1.338135,0 -1.338135,0 m -0.91419,0 c 0,0 -1.395528,0 -1.395528,0 m -3.24075,0 c 0,0 -1.324648,0 -1.324648,0 m -7.516467,0 c 0,0 -1.488233,0 -1.488233,0 m 0.15518,-0.1 c 0,0 1.48857,0 1.48857,0 m 7.36095,0 c 0,0 1.324648,0 1.324648,0 m 3.257863,0 c 0,0 1.378415,0 1.378415,0 m 0.898565,0 c 0,0 1.337173,0 1.337173,0 m 0.993096,0 c 0,0 1.490231,0 1.490231,0 m 1.288539,0 c 0,0 1.518833,0 1.518833,0 m -0.02806,-0.1 c 0,0 -1.563692,0 -1.563692,0 m -1.215621,0 c 0,0 -1.490231,0 -1.490231,0 m -1.009683,0 c 0,0 -1.336732,0 -1.336732,0 m -0.876075,0 c 0,0 -1.367646,0 -1.367646,0 m -3.274976,0 c 0,0 -1.324648,0 -1.324648,0 m -7.205433,0 c 0,0 -1.488907,0 -1.488907,0 m 0.15518,-0.1 c 0,0 1.489244,0 1.489244,0 m 7.049916,0 c 0,0 1.324648,0 1.324648,0 m 3.292089,0 c 0,0 1.363739,0 1.363739,0 m 0.846337,0 c 0,0 1.336676,0 1.336676,0 m 1.026271,0 c 0,0 1.490231,0 1.490231,0 m 1.103304,0 c 0,0 1.64795,0 1.64795,0 m -0.02806,-0.1 c 0,0 -1.732215,0 -1.732215,0 m -0.990981,0 c 0,0 -1.490231,0 -1.490231,0 m -1.042858,0 c 0,0 -1.336894,0 -1.336894,0 m -0.816327,0 c 0,0 -1.359831,0 -1.359831,0 m -3.309202,0 c 0,0 -1.324648,0 -1.324648,0 m -6.8944,0 c 0,0 -1.489579,0 -1.489579,0 m 0.15518,-0.1 c 0,0 1.489916,0 1.489916,0 m 6.738883,0 c 0,0 1.324648,0 1.324648,0 m 3.326315,0 c 0,0 1.355924,0 1.355924,0 m 0.786139,0 c 0,0 1.337288,0 1.337288,0 m 1.059446,0 c 0,0 1.490231,0 1.490231,0 m 0.504181,0 c 0,0 2.17344,0 2.17344,0 m -0.09582,-0.1 c 0,0 -4.072034,0 -4.072034,0 m -1.076033,0 c 0,0 -1.337777,0 -1.337777,0 m -0.755858,0 c 0,0 -1.352016,0 -1.352016,0 m -3.343428,0 c 0,0 -1.324648,0 -1.324648,0 m -6.583366,0 c 0,0 -1.490253,0 -1.490253,0 m 0.15518,-0.1 c 0,0 1.49059,0 1.49059,0 m 6.427849,0 c 0,0 1.324648,0 1.324648,0 m 3.360541,0 c 0,0 1.348109,0 1.348109,0 m 0.725559,0 c 0,0 1.338282,0 1.338282,0 m 1.092621,0 c 0,0 3.976216,0 3.976216,0 m -0.09582,-0.1 c 0,0 -3.880398,0 -3.880398,0 m -1.109208,0 c 0,0 -1.338736,0 -1.338736,0 m -0.695313,0 c 0,0 -1.344202,0 -1.344202,0 m -3.377653,0 c 0,0 -1.324648,0 -1.324648,0 m -6.272333,0 c 0,0 -1.490926,0 -1.490926,0 m 0.15518,-0.1 c 0,0 1.491263,0 1.491263,0 m 6.116816,0 c 0,0 1.324648,0 1.324648,0 m 3.394766,0 c 0,0 1.340295,0 1.340295,0 m 0.665185,0 c 0,0 1.339071,0 1.339071,0 m 1.125795,0 c 0,0 3.784581,0 3.784581,0 m -0.09582,-0.1 c 0,0 -3.688765,0 -3.688765,0 m -1.142383,0 c 0,0 -1.339221,0 -1.339221,0 m -0.635242,0 c 0,0 -1.336387,0 -1.336387,0 m -3.411879,0 c 0,0 -1.324648,0 -1.324648,0 m -5.961299,0 c 0,0 -1.4916,0 -1.4916,0 m 0.155181,-0.1 c 0,0 1.445042,0 1.445042,0 m 5.852676,0 c 0,0 1.324648,0 1.324648,0 m 3.428992,0 c 0,0 1.33248,0 1.33248,0 m 0.605548,0 c 0,0 1.339122,0 1.339122,0 m 1.15897,0 c 0,0 3.592949,0 3.592949,0 m -0.09581,-0.1 c 0,0 -3.497134,0 -3.497134,0 m -1.175558,0 c 0,0 -1.338707,0 -1.338707,0 m -0.576169,0 c 0,0 -1.328573,0 -1.328573,0 m -3.446105,0 c 0,0 -1.324648,0 -1.324648,0 m -5.847603,0 c 0,0 -1.384595,0 -1.384595,0 m -0.147167,-0.1 c 0,0 1.438144,0 1.438144,0 m 5.941221,0 c 0,0 1.324648,0 1.324648,0 m 3.463218,0 c 0,0 1.324665,0 1.324665,0 m 0.547174,0 c 0,0 1.33791,0 1.33791,0 m 1.192145,0 c 0,0 3.593224,0 3.593224,0 m 0.127126,-0.1 c 0,0 -3.72035,0 -3.72035,0 m -1.208732,0 c 0,0 -1.336654,0 -1.336654,0 m -0.518637,0 c 0,0 -1.320758,0 -1.320758,0 m -3.480331,0 c 0,0 -1.324648,0 -1.324648,0 m -6.08666,0 c 0,0 -1.439871,0 -1.439871,0 m -0.147167,-0.1 c 0,0 1.4416,0 1.4416,0 m 6.232098,0 c 0,0 1.324648,0 1.324648,0 m 3.497444,0 c 0,0 1.31685,0 1.31685,0 m 0.490637,0 c 0,0 1.334861,0 1.334861,0 m 1.22532,0 c 0,0 3.847482,0 3.847482,0 m 0.07993,-0.1 c 0,0 -3.927414,0 -3.927414,0 m -1.241907,0 c 0,0 -1.332444,0 -1.332444,0 m -0.463261,0 c 0,0 -1.312943,0 -1.312943,0 m -3.514557,0 c 0,0 -1.324648,0 -1.324648,0 m -6.377537,0 c 0,0 -1.443327,0 -1.443327,0 m -0.147167,-0.1 c 0,0 1.445055,0 1.445055,0 m 6.522976,0 c 0,0 1.324648,0 1.324648,0 m 3.531669,0 c 0,0 1.309036,0 1.309036,0 m 0.436438,0 c 0,0 1.329475,0 1.329475,0 m 1.258494,0 c 0,0 3.97843,0 3.97843,0 m 0.05102,-0.1 c 0,0 -1.811554,0 -1.811554,0 m -0.727445,0 c 0,0 -1.490447,0 -1.490447,0 m -1.275082,0 c 0,0 -1.326464,0 -1.326464,0 m -0.409655,0 c 0,0 -1.305129,0 -1.305129,0 m -3.548782,0 c 0,0 -1.324648,0 -1.324648,0 m -6.668415,0 c 0,0 -1.446782,0 -1.446782,0 m -0.147166,-0.1 c 0,0 1.44851,0 1.44851,0 m 6.813853,0 c 0,0 1.324648,0 1.324648,0 m 3.565895,0 c 0,0 1.301221,0 1.301221,0 m 0.382873,0 c 0,0 1.323454,0 1.323454,0 m 1.291669,0 c 0,0 1.490447,0 1.490447,0 m 0.920356,0 c 0,0 1.669659,0 1.669659,0 m 0.05102,-0.1 c 0,0 -1.527294,0 -1.527294,0 m -1.113737,0 c 0,0 -1.490447,0 -1.490447,0 m -1.308256,0 c 0,0 -1.320444,0 -1.320444,0 m -0.35609,0 c 0,0 -1.297314,0 -1.297314,0 m -3.583008,0 c 0,0 -1.324648,0 -1.324648,0 m -6.959292,0 c 0,0 -1.450238,0 -1.450238,0 m -0.147166,-0.1 c 0,0 1.451965,0 1.451965,0 m 7.104731,0 c 0,0 1.324648,0 1.324648,0 m 3.600121,0 c 0,0 1.293406,0 1.293406,0 m 0.329309,0 c 0,0 1.317432,0 1.317432,0 m 1.324844,0 c 0,0 1.490447,0 1.490447,0 m 1.172649,0 c 0,0 1.519399,0 1.519399,0 m 0.05102,-0.1 c 0,0 -1.528583,0 -1.528583,0 m -1.214481,0 c 0,0 -1.490447,0 -1.490447,0 m -1.341431,0 c 0,0 -1.314422,0 -1.314422,0 m -0.302526,0 c 0,0 -1.289499,0 -1.289499,0 m -3.617234,0 c 0,0 -1.324648,0 -1.324648,0 m -7.250169,0 c 0,0 -1.453692,0 -1.453692,0 m -0.147165,-0.1 c 0,0 1.455419,0 1.455419,0 m 7.395607,0 c 0,0 1.324648,0 1.324648,0 m 3.634347,0 c 0,0 1.285591,0 1.285591,0 m 0.275744,0 c 0,0 1.311412,0 1.311412,0 m 1.358018,0 c 0,0 1.490447,0 1.490447,0 m 1.256313,0 c 0,0 1.503887,0 1.503887,0 m 0.008,-0.1 c 0,0 -1.470082,0 -1.470082,0 m -1.298146,0 c 0,0 -1.490447,0 -1.490447,0 m -1.374606,0 c 0,0 -1.308401,0 -1.308401,0 m -0.248961,0 c 0,0 -1.281684,0 -1.281684,0 m -3.65146,0 c 0,0 -1.324648,0 -1.324648,0 m -7.541046,0 c 0,0 -1.457145,0 -1.457145,0 m -0.147166,-0.1 c 0,0 1.458873,0 1.458873,0 m 7.686484,0 c 0,0 1.324648,0 1.324648,0 m 3.668573,0 c 0,0 1.277776,0 1.277776,0 m 0.22218,0 c 0,0 1.30539,0 1.30539,0 m 1.391193,0 c 0,0 1.490447,0 1.490447,0 m 1.339979,0 c 0,0 1.436276,0 1.436276,0 m 0.008,-0.1 c 0,0 -1.420637,0 -1.420637,0 m -1.363645,0 c 0,0 -1.490447,0 -1.490447,0 m -1.40778,0 c 0,0 -1.30238,0 -1.30238,0 m -0.195397,0 c 0,0 -1.273869,0 -1.273869,0 m -3.685686,0 c 0,0 -1.324648,0 -1.324648,0 m -7.831923,0 c 0,0 -1.460599,0 -1.460599,0 m -0.147165,-0.1 c 0,0 1.462326,0 1.462326,0 m 7.977361,0 c 0,0 1.324648,0 1.324648,0 m 3.702798,0 c 0,0 1.269962,0 1.269962,0 m 0.168615,0 c 0,0 1.299369,0 1.299369,0 m 1.424368,0 c 0,0 1.490447,0 1.490447,0 m 1.363011,0 c 0,0 1.429298,0 1.429298,0 m 0.008,-0.1 c 0,0 -1.437961,0 -1.437961,0 m -1.362376,0 c 0,0 -1.490447,0 -1.490447,0 m -1.440955,0 c 0,0 -1.296359,0 -1.296359,0 m -0.121415,0 c 0,0 -1.286472,0 -1.286472,0 m -3.719911,0 c 0,0 -1.324648,0 -1.324648,0 m -8.122799,0 c 0,0 -1.464053,0 -1.464053,0 m -0.147165,-0.1 c 0,0 1.465779,0 1.465779,0 m 8.268238,0 c 0,0 1.324648,0 1.324648,0 m 3.737024,0 c 0,0 1.309012,0 1.309012,0 m 0.06818,0 c 0,0 1.293349,0 1.293349,0 m 1.457542,0 c 0,0 1.490447,0 1.490447,0 m 1.361742,0 c 0,0 1.446622,0 1.446622,0 m 0.008,-0.1 c 0,0 -1.455283,0 -1.455283,0 m -1.361108,0 c 0,0 -1.490447,0 -1.490447,0 m -1.47413,0 c 0,0 -1.290337,0 -1.290337,0 m -0.01495,0 c 0,0 -1.331555,0 -1.331555,0 m -3.754137,0 c 0,0 -1.324648,0 -1.324648,0 m -8.413676,0 c 0,0 -1.451052,0 -1.451052,0 m -0.0086,-0.1 c 0,0 1.352887,0 1.352887,0 m 8.520408,0 c 0,0 1.324648,0 1.324648,0 m 3.77125,0 c 0,0 2.603145,0 2.603145,0 m 1.490717,0 c 0,0 1.490447,0 1.490447,0 m 1.360474,0 c 0,0 1.463944,0 1.463944,0 m 0.008,-0.1 c 0,0 -1.472605,0 -1.472605,0 m -1.35984,0 c 0,0 -1.490447,0 -1.490447,0 m -1.507304,0 c 0,0 -2.569445,0 -2.569445,0 m -3.788363,0 c 0,0 -1.324648,0 -1.324648,0 m -8.386783,0 c 0,0 -1.3537,0 -1.3537,0 m 0.132813,-0.1 c 0,0 1.354513,0 1.354513,0 m 8.253157,0 c 0,0 1.324648,0 1.324648,0 m 3.805476,0 c 0,0 2.535745,0 2.535745,0 m 1.523891,0 c 0,0 1.490447,0 1.490447,0 m 1.338347,0 c 0,0 1.483465,0 1.483465,0 m -0.02399,-0.1 c 0,0 -1.486033,0 -1.486033,0 m -1.311789,0 c 0,0 -1.490447,0 -1.490447,0 m -1.540479,0 c 0,0 -2.502044,0 -2.502044,0 m -3.822589,0 c 0,0 -1.324648,0 -1.324648,0 m -8.119532,0 c 0,0 -1.355326,0 -1.355326,0 m 0.132812,-0.1 c 0,0 1.35614,0 1.35614,0 m 7.985906,0 c 0,0 1.324648,0 1.324648,0 m 3.839702,0 c 0,0 2.468344,0 2.468344,0 m 1.557066,0 c 0,0 1.490447,0 1.490447,0 m 1.285231,0 c 0,0 1.4886,0 1.4886,0 m -0.02399,-0.1 c 0,0 -1.491169,0 -1.491169,0 m -1.258671,0 c 0,0 -1.490447,0 -1.490447,0 m -1.573653,0 c 0,0 -2.434645,0 -2.434645,0 m -3.856814,0 c 0,0 -1.324648,0 -1.324648,0 m -7.852277,0 c 0,0 -1.356957,0 -1.356957,0 m 0.132811,-0.1 c 0,0 1.357776,0 1.357776,0 m 7.718647,0 c 0,0 1.324648,0 1.324648,0 m 3.873927,0 c 0,0 2.400944,0 2.400944,0 m 1.590241,0 c 0,0 1.490447,0 1.490447,0 m 1.204663,0 c 0,0 1.521187,0 1.521187,0 m -0.02399,-0.1 c 0,0 -1.661208,0 -1.661208,0 m -1.040653,0 c 0,0 -1.490447,0 -1.490447,0 m -1.606828,0 c 0,0 -2.367244,0 -2.367244,0 m -3.89104,0 c 0,0 -1.324648,0 -1.324648,0 m -7.585016,0 c 0,0 -1.358597,0 -1.358597,0 m 0.13281,-0.1 c 0,0 1.359417,0 1.359417,0 m 7.451386,0 c 0,0 1.324648,0 1.324648,0 m 3.908153,0 c 0,0 2.333544,0 2.333544,0 m 1.623415,0 c 0,0 1.490447,0 1.490447,0 m 0.876647,0 c 0,0 1.801225,0 1.801225,0 m -0.02399,-0.1 c 0,0 -1.941239,0 -1.941239,0 m -0.712644,0 c 0,0 -1.490447,0 -1.490447,0 m -1.640003,0 c 0,0 -2.299843,0 -2.299843,0 m -3.925266,0 c 0,0 -1.324648,0 -1.324648,0 m -7.368228,0 c 0,0 -1.309765,0 -1.309765,0 m 0.13281,-0.1 c 0,0 1.176955,0 1.176955,0 m 7.368228,0 c 0,0 1.324648,0 1.324648,0 m 3.942379,0 c 0,0 2.266143,0 2.266143,0 m 1.65659,0 c 0,0 4.111899,0 4.111899,0 m -0.06342,-0.1 c 0,0 -4.048481,0 -4.048481,0 m -1.673177,0 c 0,0 -2.232443,0 -2.232443,0 m -3.959492,0 c 0,0 -1.324648,0 -1.324648,0 m -7.368228,0 c 0,0 -1.044146,0 -1.044146,0 m 0.127553,-0.1 c 0,0 0.916593,0 0.916593,0 m 7.368228,0 c 0,0 1.324648,0 1.324648,0 m 3.976605,0 c 0,0 2.198742,0 2.198742,0 m 1.689765,0 c 0,0 3.985062,0 3.985062,0 m -0.06342,-0.1 c 0,0 -3.921644,0 -3.921644,0 m -1.706352,0 c 0,0 -2.165042,0 -2.165042,0 m -3.993718,0 c 0,0 -1.324648,0 -1.324648,0 m -7.368228,0 c 0,0 -0.916537,0 -0.916537,0 m 5.6e-5,-0.1 c 0,0 0.916481,0 0.916481,0 m 7.368228,0 c 0,0 1.324648,0 1.324648,0 m 4.010831,0 c 0,0 2.131342,0 2.131342,0 m 1.722939,0 c 0,0 3.858226,0 3.858226,0 m -0.06342,-0.1 c 0,0 -3.794809,0 -3.794809,0 m -1.739527,0 c 0,0 -2.097642,0 -2.097642,0 m -4.027943,0 c 0,0 -1.324648,0 -1.324648,0 m -7.368228,0 c 0,0 -0.916426,0 -0.916426,0 m 5.6e-5,-0.1 c 0,0 0.91637,0 0.91637,0 m 7.368228,0 c 0,0 1.324648,0 1.324648,0 m 4.045056,0 c 0,0 2.063942,0 2.063942,0 m 1.756114,0 c 0,0 3.731392,0 3.731392,0 m -0.06342,-0.1 c 0,0 -3.667975,0 -3.667975,0 m -1.772701,0 c 0,0 -2.030242,0 -2.030242,0 m -4.062169,0 c 0,0 -1.324648,0 -1.324648,0 m -7.368228,0 c 0,0 -0.916314,0 -0.916314,0 m 5.5e-5,-0.1 c 0,0 0.916259,0 0.916259,0 m 7.368228,0 c 0,0 1.324648,0 1.324648,0 m 4.079282,0 c 0,0 1.996541,0 1.996541,0 m 1.789289,0 c 0,0 3.484778,0 3.484778,0 m -0.200121,-0.1 c 0,0 -3.284657,0 -3.284657,0 m -1.805876,0 c 0,0 -1.962841,0 -1.962841,0 m -4.096395,0 c 0,0 -1.324648,0 -1.324648,0 m -7.368228,0 c 0,0 -0.916203,0 -0.916203,0 m 5.6e-5,-0.1 c 0,0 0.916147,0 0.916147,0 m 7.368228,0 c 0,0 1.324648,0 1.324648,0 m 4.113508,0 c 0,0 1.929141,0 1.929141,0 m 1.822463,0 c 0,0 3.084535,0 3.084535,0 m -0.200122,-0.1 c 0,0 -2.884413,0 -2.884413,0 m -1.839051,0 c 0,0 -1.89544,0 -1.89544,0 m -4.130621,0 c 0,0 -1.324648,0 -1.324648,0 m -7.368228,0 c 0,0 -0.916092,0 -0.916092,0 m 5.6e-5,-0.1 c 0,0 0.916036,0 0.916036,0 m 7.368228,0 c 0,0 1.324648,0 1.324648,0 m 4.137609,0 c 0,0 1.871865,0 1.871865,0 m 1.855638,0 c 0,0 2.684291,0 2.684291,0 m -19.242279,-0.1 c 0,0 -0.91598,0 -0.91598,0 m 5.5e-5,-0.1 c 0,0 0.915925,0 0.915925,0 m 0,-0.1 c 0,0 -0.915869,0 -0.915869,0 m 5.6e-5,-0.1 c 0,0 0.915813,0 0.915813,0 m 0,-0.1 c 0,0 -0.915758,0 -0.915758,0 m 5.6e-5,-0.1 c 0,0 0.915702,0 0.915702,0 m 21.1887,-0.1 c 0,0 -0.434445,0 -0.434445,0 m -2.87192,0 c 0,0 -1.407443,0 -1.407443,0 m -1.99231,0 c 0,0 -1.383667,0 -1.383667,0 m -1.582064,0 c 0,0 -1.40266,0 -1.40266,0 m -3.000361,0 c 0,0 -0.38394,0 -0.38394,0 m -0.603523,0 c 0,0 -1.324649,0 -1.324649,0 m -1.573024,0 c 0,0 -1.32465,0 -1.32465,0 m -1.904044,0 c 0,0 -0.915646,0 -0.915646,0 m 5.5e-5,-0.1 c 0,0 0.915591,0 0.915591,0 m 1.904044,0 c 0,0 1.32465,0 1.32465,0 m 1.573024,0 c 0,0 1.324649,0 1.324649,0 m 0.620468,0 c 0,0 1.415583,0 1.415583,0 m 1.935745,0 c 0,0 1.403173,0 1.403173,0 m 1.396779,0 c 0,0 1.922903,0 1.922903,0 m 1.653874,0 c 0,0 1.407443,0 1.407443,0 m 1.696419,0 c 0,0 1.570195,0 1.570195,0 m -0.03975,-0.1 c 0,0 -1.569336,0 -1.569336,0 m -1.657527,0 c 0,0 -1.407443,0 -1.407443,0 m -1.525855,0 c 0,0 -2.251632,0 -2.251632,0 m -1.211583,0 c 0,0 -1.403687,0 -1.403687,0 m -1.905472,0 c 0,0 -1.412882,0 -1.412882,0 m -0.637414,0 c 0,0 -1.324649,0 -1.324649,0 m -1.573024,0 c 0,0 -1.32465,0 -1.32465,0 m -1.904044,0 c 0,0 -0.915535,0 -0.915535,0 m 5.6e-5,-0.1 c 0,0 0.915479,0 0.915479,0 m 1.904044,0 c 0,0 1.32465,0 1.32465,0 m 1.573024,0 c 0,0 1.324649,0 1.324649,0 m 0.654359,0 c 0,0 1.410183,0 1.410183,0 m 1.875198,0 c 0,0 1.404201,0 1.404201,0 m 1.026418,0 c 0,0 2.552314,0 2.552314,0 m 1.425852,0 c 0,0 1.407443,0 1.407443,0 m 1.618635,0 c 0,0 1.568478,0 1.568478,0 m -0.03975,-0.1 c 0,0 -1.567619,0 -1.567619,0 m -1.579743,0 c 0,0 -1.407443,0 -1.407443,0 m -1.325849,0 c 0,0 -2.779122,0 -2.779122,0 m -0.915126,0 c 0,0 -1.404716,0 -1.404716,0 m -1.844925,0 c 0,0 -1.407483,0 -1.407483,0 m -0.671304,0 c 0,0 -1.324649,0 -1.324649,0 m -1.573024,0 c 0,0 -1.32465,0 -1.32465,0 m -1.904044,0 c 0,0 -0.915424,0 -0.915424,0 m 5.6e-5,-0.1 c 0,0 0.915368,0 0.915368,0 m 1.904044,0 c 0,0 1.32465,0 1.32465,0 m 1.573024,0 c 0,0 1.324649,0 1.324649,0 m 0.68825,0 c 0,0 1.404783,0 1.404783,0 m 1.814651,0 c 0,0 1.405231,0 1.405231,0 m 0.855832,0 c 0,0 2.953932,0 2.953932,0 m 1.225846,0 c 0,0 1.407443,0 1.407443,0 m 1.54085,0 c 0,0 1.566763,0 1.566763,0 m -0.03975,-0.1 c 0,0 -1.565905,0 -1.565905,0 m -1.501958,0 c 0,0 -1.407443,0 -1.407443,0 m -1.125847,0 c 0,0 -3.128739,0 -3.128739,0 m -0.796536,0 c 0,0 -1.405746,0 -1.405746,0 m -1.784379,0 c 0,0 -1.402083,0 -1.402083,0 m -0.705195,0 c 0,0 -1.324649,0 -1.324649,0 m -1.573024,0 c 0,0 -1.32465,0 -1.32465,0 m -1.904044,0 c 0,0 -0.915312,0 -0.915312,0 m 5.5e-5,-0.1 c 0,0 0.915257,0 0.915257,0 m 1.904044,0 c 0,0 1.32465,0 1.32465,0 m 1.573024,0 c 0,0 1.324649,0 1.324649,0 m 0.72214,0 c 0,0 1.399384,0 1.399384,0 m 1.754105,0 c 0,0 1.406222,0 1.406222,0 m 0.737275,0 c 0,0 3.303549,0 3.303549,0 m 1.02585,0 c 0,0 1.407443,0 1.407443,0 m 1.463066,0 c 0,0 1.565048,0 1.565048,0 m -0.03998,-0.1 c 0,0 -1.563957,0 -1.563957,0 m -1.424174,0 c 0,0 -1.407443,0 -1.407443,0 m -0.925853,0 c 0,0 -3.478358,0 -3.478358,0 m -0.679271,0 c 0,0 -1.405442,0 -1.405442,0 m -1.723831,0 c 0,0 -1.396684,0 -1.396684,0 m -0.739086,0 c 0,0 -1.324649,0 -1.324649,0 m -1.573024,0 c 0,0 -1.32465,0 -1.32465,0 m -1.904044,0 c 0,0 -0.915201,0 -0.915201,0 m 5.6e-5,-0.1 c 0,0 0.915145,0 0.915145,0 m 1.904044,0 c 0,0 1.32465,0 1.32465,0 m 1.573024,0 c 0,0 1.324649,0 1.324649,0 m 0.756031,0 c 0,0 1.394965,0 1.394965,0 m 1.692577,0 c 0,0 1.404662,0 1.404662,0 m 0.629343,0 c 0,0 3.64509,0 3.64509,0 m 0.825857,0 c 0,0 1.407443,0 1.407443,0 m 1.385282,0 c 0,0 1.561964,0 1.561964,0 m -0.04088,-0.1 c 0,0 -1.559972,0 -1.559972,0 m -1.34639,0 c 0,0 -1.407443,0 -1.407443,0 m -0.764418,0 c 0,0 -3.759899,0 -3.759899,0 m -0.592782,0 c 0,0 -1.403881,0 -1.403881,0 m -1.659689,0 c 0,0 -1.39488,0 -1.39488,0 m -0.772976,0 c 0,0 -1.324649,0 -1.324649,0 m -1.573024,0 c 0,0 -1.32465,0 -1.32465,0 m -1.904044,0 c 0,0 -0.915089,0 -0.915089,0 m 5.5e-5,-0.1 c 0,0 0.915034,0 0.915034,0 m 1.904044,0 c 0,0 1.32465,0 1.32465,0 m 1.573024,0 c 0,0 1.324649,0 1.324649,0 m 0.789922,0 c 0,0 1.394793,0 1.394793,0 m 1.626802,0 c 0,0 1.403101,0 1.403101,0 m 0.55622,0 c 0,0 3.842814,0 3.842814,0 m 0.734873,0 c 0,0 1.407443,0 1.407443,0 m 1.307498,0 c 0,0 1.557979,0 1.557979,0 m -0.04088,-0.1 c 0,0 -1.555988,0 -1.555988,0 m -1.268605,0 c 0,0 -1.407443,0 -1.407443,0 m -0.705328,0 c 0,0 -3.925731,0 -3.925731,0 m -0.519656,0 c 0,0 -1.401921,0 -1.401921,0 m -1.594314,0 c 0,0 -1.394708,0 -1.394708,0 m -0.806867,0 c 0,0 -1.324649,0 -1.324649,0 m -1.573024,0 c 0,0 -1.32465,0 -1.32465,0 m -1.904044,0 c 0,0 -0.914978,0 -0.914978,0 m 5.6e-5,-0.1 c 0,0 0.914922,0 0.914922,0 m 1.904044,0 c 0,0 1.32465,0 1.32465,0 m 1.573024,0 c 0,0 1.324649,0 1.324649,0 m 0.823813,0 c 0,0 1.394621,0 1.394621,0 m 1.561876,0 c 0,0 1.400692,0 1.400692,0 m 0.48309,0 c 0,0 1.736003,0 1.736003,0 m 0.489575,0 c 0,0 1.783072,0 1.783072,0 m 0.675783,0 c 0,0 1.407443,0 1.407443,0 m 1.229713,0 c 0,0 1.553995,0 1.553995,0 m -0.04088,-0.1 c 0,0 -1.552003,0 -1.552003,0 m -1.190821,0 c 0,0 -1.407443,0 -1.407443,0 m -0.646236,0 c 0,0 -1.618965,0 -1.618965,0 m -0.87661,0 c 0,0 -1.595996,0 -1.595996,0 m -0.446524,0 c 0,0 -1.399463,0 -1.399463,0 m -1.529438,0 c 0,0 -1.394535,0 -1.394535,0 m -0.840758,0 c 0,0 -1.324649,0 -1.324649,0 m -1.573024,0 c 0,0 -1.32465,0 -1.32465,0 m -1.904044,0 c 0,0 -0.914867,0 -0.914867,0 m 5.6e-5,-0.1 c 0,0 0.914811,0 0.914811,0 m 1.904044,0 c 0,0 1.32465,0 1.32465,0 m 1.573024,0 c 0,0 1.324649,0 1.324649,0 m 0.857703,0 c 0,0 1.39445,0 1.39445,0 m 1.496999,0 c 0,0 1.398233,0 1.398233,0 m 0.440431,0 c 0,0 1.459806,0 1.459806,0 m 1.11436,0 c 0,0 1.569854,0 1.569854,0 m 0.616689,0 c 0,0 1.407443,0 1.407443,0 m 1.151929,0 c 0,0 1.55001,0 1.55001,0 m -0.04088,-0.1 c 0,0 -1.548018,0 -1.548018,0 m -1.113037,0 c 0,0 -1.407443,0 -1.407443,0 m -0.587143,0 c 0,0 -1.52074,0 -1.52074,0 m -1.227881,0 c 0,0 -1.425897,0 -1.425897,0 m -0.456287,0 c 0,0 -1.397006,0 -1.397006,0 m -1.464559,0 c 0,0 -1.394363,0 -1.394363,0 m -0.874649,0 c 0,0 -1.324649,0 -1.324649,0 m -1.573024,0 c 0,0 -1.32465,0 -1.32465,0 m -1.904044,0 c 0,0 -0.914755,0 -0.914755,0 m 5.5e-5,-0.1 c 0,0 0.9147,0 0.9147,0 m 1.904044,0 c 0,0 1.32465,0 1.32465,0 m 1.573024,0 c 0,0 1.324649,0 1.324649,0 m 0.891594,0 c 0,0 1.394278,0 1.394278,0 m 1.432117,0 c 0,0 1.39578,0 1.39578,0 m 0.472142,0 c 0,0 1.39199,0 1.39199,0 m 1.341404,0 c 0,0 1.449999,0 1.449999,0 m 0.579221,0 c 0,0 1.407443,0 1.407443,0 m 1.074145,0 c 0,0 1.546025,0 1.546025,0 m -0.04088,-0.1 c 0,0 -1.544034,0 -1.544034,0 m -1.035252,0 c 0,0 -1.407443,0 -1.407443,0 m -0.579221,0 c 0,0 -1.407443,0 -1.407443,0 m -1.418822,0 c 0,0 -1.35808,0 -1.35808,0 m -0.487998,0 c 0,0 -1.394553,0 -1.394553,0 m -1.399677,0 c 0,0 -1.394192,0 -1.394192,0 m -0.908539,0 c 0,0 -1.324649,0 -1.324649,0 m -1.573024,0 c 0,0 -1.32465,0 -1.32465,0 m -1.904044,0 c 0,0 -0.914644,0 -0.914644,0 m 5.6e-5,-0.1 c 0,0 0.914588,0 0.914588,0 m 1.904044,0 c 0,0 1.32465,0 1.32465,0 m 1.573024,0 c 0,0 1.324649,0 1.324649,0 m 0.925485,0 c 0,0 1.394105,0 1.394105,0 m 1.367236,0 c 0,0 1.393327,0 1.393327,0 m 0.503853,0 c 0,0 1.32417,0 1.32417,0 m 1.453685,0 c 0,0 1.407443,0 1.407443,0 m 0.579221,0 c 0,0 1.407443,0 1.407443,0 m 0.99636,0 c 0,0 1.542041,0 1.542041,0 m -0.04088,-0.1 c 0,0 -1.54005,0 -1.54005,0 m -0.957467,0 c 0,0 -1.407443,0 -1.407443,0 m -0.579221,0 c 0,0 -1.407443,0 -1.407443,0 m -1.488548,0 c 0,0 -1.290259,0 -1.290259,0 m -0.51971,0 c 0,0 -4.120914,0 -4.120914,0 m -0.94243,0 c 0,0 -1.324649,0 -1.324649,0 m -1.573024,0 c 0,0 -1.32465,0 -1.32465,0 m -1.904044,0 c 0,0 -0.914533,0 -0.914533,0 m 5.6e-5,-0.1 c 0,0 0.914477,0 0.914477,0 m 1.904044,0 c 0,0 1.32465,0 1.32465,0 m 1.573024,0 c 0,0 1.324649,0 1.324649,0 m 0.959375,0 c 0,0 4.087161,0 4.087161,0 m 0.535565,0 c 0,0 1.289521,0 1.289521,0 m 1.490239,0 c 0,0 1.407443,0 1.407443,0 m 0.579221,0 c 0,0 1.407443,0 1.407443,0 m 0.918575,0 c 0,0 1.538057,0 1.538057,0 m -0.04088,-0.1 c 0,0 -1.536065,0 -1.536065,0 m -0.879683,0 c 0,0 -1.407443,0 -1.407443,0 m -0.579221,0 c 0,0 -1.407443,0 -1.407443,0 m -1.490239,0 c 0,0 -1.290473,0 -1.290473,0 m -0.551421,0 c 0,0 -4.053407,0 -4.053407,0 m -0.976321,0 c 0,0 -1.324649,0 -1.324649,0 m -1.573024,0 c 0,0 -1.32465,0 -1.32465,0 m -1.904044,0 c 0,0 -0.914421,0 -0.914421,0 m 5.5e-5,-0.1 c 0,0 0.914366,0 0.914366,0 m 1.904044,0 c 0,0 1.32465,0 1.32465,0 m 1.573024,0 c 0,0 1.324649,0 1.324649,0 m 0.993266,0 c 0,0 4.019654,0 4.019654,0 m 0.567276,0 c 0,0 1.291426,0 1.291426,0 m 1.490239,0 c 0,0 1.407443,0 1.407443,0 m 0.579221,0 c 0,0 1.407443,0 1.407443,0 m 0.84079,0 c 0,0 1.534073,0 1.534073,0 m -0.04088,-0.1 c 0,0 -1.532081,0 -1.532081,0 m -0.801898,0 c 0,0 -1.407443,0 -1.407443,0 m -0.579221,0 c 0,0 -1.407443,0 -1.407443,0 m -1.490239,0 c 0,0 -1.292378,0 -1.292378,0 m -0.583132,0 c 0,0 -3.9859,0 -3.9859,0 m -1.010212,0 c 0,0 -1.324649,0 -1.324649,0 m -1.573024,0 c 0,0 -1.32465,0 -1.32465,0 m -1.904044,0 c 0,0 -0.91431,0 -0.91431,0 m 5.6e-5,-0.1 c 0,0 0.914254,0 0.914254,0 m 1.904044,0 c 0,0 1.32465,0 1.32465,0 m 1.573024,0 c 0,0 1.324649,0 1.324649,0 m 1.027157,0 c 0,0 3.952146,0 3.952146,0 m 0.598988,0 c 0,0 1.293331,0 1.293331,0 m 1.490239,0 c 0,0 1.407443,0 1.407443,0 m 0.579221,0 c 0,0 1.407443,0 1.407443,0 m 0.763005,0 c 0,0 1.530089,0 1.530089,0 m -0.04088,-0.1 c 0,0 -1.528097,0 -1.528097,0 m -0.724113,0 c 0,0 -1.407443,0 -1.407443,0 m -0.579221,0 c 0,0 -1.407443,0 -1.407443,0 m -1.490239,0 c 0,0 -1.294283,0 -1.294283,0 m -0.614844,0 c 0,0 -3.918393,0 -3.918393,0 m -1.044102,0 c 0,0 -1.324649,0 -1.324649,0 m -1.573024,0 c 0,0 -1.32465,0 -1.32465,0 m -1.904044,0 c 0,0 -0.914199,0 -0.914199,0 m 5.6e-5,-0.1 c 0,0 0.914143,0 0.914143,0 m 1.904044,0 c 0,0 1.32465,0 1.32465,0 m 1.573024,0 c 0,0 1.324649,0 1.324649,0 m 1.061048,0 c 0,0 3.884639,0 3.884639,0 m 0.630699,0 c 0,0 1.295236,0 1.295236,0 m 1.490239,0 c 0,0 1.407443,0 1.407443,0 m 0.579221,0 c 0,0 1.407443,0 1.407443,0 m 0.685221,0 c 0,0 1.526104,0 1.526104,0 m -0.04088,-0.1 c 0,0 -1.524112,0 -1.524112,0 m -0.646328,0 c 0,0 -1.407443,0 -1.407443,0 m -0.579221,0 c 0,0 -1.407443,0 -1.407443,0 m -1.490239,0 c 0,0 -1.296188,0 -1.296188,0 m -0.646555,0 c 0,0 -3.850886,0 -3.850886,0 m -1.077993,0 c 0,0 -1.324649,0 -1.324649,0 m -1.573024,0 c 0,0 -1.32465,0 -1.32465,0 m -1.904044,0 c 0,0 -0.914087,0 -0.914087,0 m 5.5e-5,-0.1 c 0,0 0.914032,0 0.914032,0 m 1.904044,0 c 0,0 1.32465,0 1.32465,0 m 1.573024,0 c 0,0 1.324649,0 1.324649,0 m 1.094938,0 c 0,0 3.817133,0 3.817133,0 m 0.66241,0 c 0,0 1.297141,0 1.297141,0 m 1.490239,0 c 0,0 1.407443,0 1.407443,0 m 0.579221,0 c 0,0 1.451133,0 1.451133,0 m 0.563746,0 c 0,0 1.52212,0 1.52212,0 m -0.04088,-0.1 c 0,0 -1.520128,0 -1.520128,0 m -0.473826,0 c 0,0 -1.502161,0 -1.502161,0 m -0.579221,0 c 0,0 -1.407443,0 -1.407443,0 m -1.490239,0 c 0,0 -1.298093,0 -1.298093,0 m -0.678267,0 c 0,0 -3.783378,0 -3.783378,0 m -1.111884,0 c 0,0 -1.324649,0 -1.324649,0 m -1.573024,0 c 0,0 -1.32465,0 -1.32465,0 m -1.904044,0 c 0,0 -0.913976,0 -0.913976,0 m 5.6e-5,-0.1 c 0,0 0.91392,0 0.91392,0 m 1.904044,0 c 0,0 1.32465,0 1.32465,0 m 1.573024,0 c 0,0 1.324649,0 1.324649,0 m 1.128829,0 c 0,0 3.749625,0 3.749625,0 m 0.694122,0 c 0,0 1.299046,0 1.299046,0 m 1.490239,0 c 0,0 1.407443,0 1.407443,0 m 0.579221,0 c 0,0 1.553188,0 1.553188,0 m 0.383906,0 c 0,0 1.518137,0 1.518137,0 m -0.04089,-0.1 c 0,0 -1.516968,0 -1.516968,0 m -0.293162,0 c 0,0 -1.604216,0 -1.604216,0 m -0.579221,0 c 0,0 -1.407443,0 -1.407443,0 m -1.490239,0 c 0,0 -1.299998,0 -1.299998,0 m -0.709978,0 c 0,0 -3.715871,0 -3.715871,0 m -1.145775,0 c 0,0 -1.324649,0 -1.324649,0 m -1.573024,0 c 0,0 -1.32465,0 -1.32465,0 m -1.904044,0 c 0,0 -0.913865,0 -0.913865,0 m 5.6e-5,-0.1 c 0,0 0.913809,0 0.913809,0 m 1.904044,0 c 0,0 1.32465,0 1.32465,0 m 1.573024,0 c 0,0 1.324649,0 1.324649,0 m 1.16272,0 c 0,0 3.682118,0 3.682118,0 m 0.725833,0 c 0,0 1.300951,0 1.300951,0 m 3.476903,0 c 0,0 1.655244,0 1.655244,0 m 0.199049,0 c 0,0 1.519169,0 1.519169,0 m -0.04088,-0.1 c 0,0 -1.52137,0 -1.52137,0 m -0.104936,0 c 0,0 -1.706272,0 -1.706272,0 m -3.476903,0 c 0,0 -1.301903,0 -1.301903,0 m -0.741689,0 c 0,0 -1.364116,0 -1.364116,0 m -0.897481,0 c 0,0 -1.386769,0 -1.386769,0 m -1.179664,0 c 0,0 -1.324649,0 -1.324649,0 m -1.573024,0 c 0,0 -1.32465,0 -1.32465,0 m -1.904044,0 c 0,0 -0.913753,0 -0.913753,0 m 5.5e-5,-0.1 c 0,0 0.913698,0 0.913698,0 m 1.904044,0 c 0,0 1.32465,0 1.32465,0 m 1.573024,0 c 0,0 1.324649,0 1.324649,0 m 1.196609,0 c 0,0 1.369824,0 1.369824,0 m 0.881567,0 c 0,0 1.363221,0 1.363221,0 m 0.757545,0 c 0,0 1.302856,0 1.302856,0 m 3.476903,0 c 0,0 1.7573,0 1.7573,0 m 0.01082,0 c 0,0 1.523571,0 1.523571,0 m -0.04088,-0.1 c 0,0 -3.25081,0 -3.25081,0 m -3.476903,0 c 0,0 -1.303808,0 -1.303808,0 m -0.773401,0 c 0,0 -1.362327,0 -1.362327,0 m -0.856583,0 c 0,0 -1.36195,0 -1.36195,0 m -1.213553,0 c 0,0 -1.324649,0 -1.324649,0 m -1.573024,0 c 0,0 -1.32465,0 -1.32465,0 m -1.904044,0 c 0,0 -0.913642,0 -0.913642,0 m 5.6e-5,-0.1 c 0,0 0.913586,0 0.913586,0 m 1.904044,0 c 0,0 1.32465,0 1.32465,0 m 1.573024,0 c 0,0 1.324649,0 1.324649,0 m 1.230497,0 c 0,0 1.359553,0 1.359553,0 m 0.826103,0 c 0,0 1.361452,0 1.361452,0 m 0.789256,0 c 0,0 1.304761,0 1.304761,0 m 3.476903,0 c 0,0 3.209926,0 3.209926,0 m -0.04088,-0.1 c 0,0 -3.169042,0 -3.169042,0 m -3.476903,0 c 0,0 -1.305713,0 -1.305713,0 m -0.805112,0 c 0,0 -1.360582,0 -1.360582,0 m -0.795618,0 c 0,0 -1.357156,0 -1.357156,0 m -1.247441,0 c 0,0 -4.222323,0 -4.222323,0 m -1.904044,0 c 0,0 -0.91353,0 -0.91353,0 m 5.3e-5,-0.1 c 0,0 0.913477,0 0.913477,0 m 1.904044,0 c 0,0 4.222323,0 4.222323,0 m 1.264386,0 c 0,0 1.354759,0 1.354759,0 m 0.765133,0 c 0,0 1.359711,0 1.359711,0 m 0.820967,0 c 0,0 1.306666,0 1.306666,0 m 3.476903,0 c 0,0 3.128157,0 3.128157,0 m -0.04088,-0.1 c 0,0 -3.087273,0 -3.087273,0 m -3.476903,0 c 0,0 -1.307618,0 -1.307618,0 m -0.836824,0 c 0,0 -1.357766,0 -1.357766,0 m -0.735722,0 c 0,0 -1.352362,0 -1.352362,0 m -1.28133,0 c 0,0 -4.222323,0 -4.222323,0 m -1.904044,0 c 0,0 -0.913426,0 -0.913426,0 m 5e-5,-0.1 c 0,0 0.913376,0 0.913376,0 m 1.904044,0 c 0,0 4.222323,0 4.222323,0 m 1.298274,0 c 0,0 1.349965,0 1.349965,0 m 0.70668,0 c 0,0 1.355453,0 1.355453,0 m 0.852679,0 c 0,0 1.308571,0 1.308571,0 m 3.476903,0 c 0,0 3.046389,0 3.046389,0 m -0.04088,-0.1 c 0,0 -3.005505,0 -3.005505,0 m -3.476903,0 c 0,0 -1.309523,0 -1.309523,0 m -0.868535,0 c 0,0 -1.35314,0 -1.35314,0 m -0.677638,0 c 0,0 -1.347568,0 -1.347568,0 m -1.315218,0 c 0,0 -4.222323,0 -4.222323,0 m -1.904044,0 c 0,0 -0.913326,0 -0.913326,0 m 5e-5,-0.1 c 0,0 0.913276,0 0.913276,0 m 1.904044,0 c 0,0 4.222323,0 4.222323,0 m 1.332163,0 c 0,0 1.34517,0 1.34517,0 m 0.648596,0 c 0,0 1.350827,0 1.350827,0 m 0.884391,0 c 0,0 1.310475,0 1.310475,0 m 3.476903,0 c 0,0 2.964621,0 2.964621,0 m -0.04088,-0.1 c 0,0 -2.923429,0 -2.923429,0 m -3.477211,0 c 0,0 -1.311427,0 -1.311427,0 m -0.900247,0 c 0,0 -1.348514,0 -1.348514,0 m -0.619554,0 c 0,0 -1.342773,0 -1.342773,0 m -1.349107,0 c 0,0 -4.222323,0 -4.222323,0 m -1.904044,0 c 0,0 -0.913225,0 -0.913225,0 m 5e-5,-0.1 c 0,0 0.913175,0 0.913175,0 m 1.904044,0 c 0,0 4.222323,0 4.222323,0 m 1.366051,0 c 0,0 1.340376,0 1.340376,0 m 0.590511,0 c 0,0 1.346201,0 1.346201,0 m 0.916104,0 c 0,0 1.312379,0 1.312379,0 m 3.477211,0 c 0,0 2.882545,0 2.882545,0 m -0.04089,-0.1 c 0,0 -2.84166,0 -2.84166,0 m -3.477211,0 c 0,0 -1.313332,0 -1.313332,0 m -0.931959,0 c 0,0 -1.343888,0 -1.343888,0 m -0.561469,0 c 0,0 -1.337979,0 -1.337979,0 m -1.382995,0 c 0,0 -4.222323,0 -4.222323,0 m -1.904044,0 c 0,0 -0.913125,0 -0.913125,0 m 5.1e-5,-0.1 c 0,0 0.913074,0 0.913074,0 m 1.904044,0 c 0,0 4.222323,0 4.222323,0 m 1.39994,0 c 0,0 1.335582,0 1.335582,0 m 0.532426,0 c 0,0 1.341575,0 1.341575,0 m 0.947815,0 c 0,0 1.314284,0 1.314284,0 m 3.477211,0 c 0,0 2.800776,0 2.800776,0 m -0.04088,-0.1 c 0,0 -2.759892,0 -2.759892,0 m -3.477211,0 c 0,0 -1.315236,0 -1.315236,0 m -0.963671,0 c 0,0 -1.339262,0 -1.339262,0 m -0.503384,0 c 0,0 -1.333185,0 -1.333185,0 m -1.416884,0 c 0,0 -4.222323,0 -4.222323,0 m -1.904044,0 c 0,0 -0.913024,0 -0.913024,0 m 5e-5,-0.1 c 0,0 0.912974,0 0.912974,0 m 1.904044,0 c 0,0 4.222323,0 4.222323,0 m 1.433828,0 c 0,0 1.330788,0 1.330788,0 m 0.474342,0 c 0,0 1.336949,0 1.336949,0 m 0.979527,0 c 0,0 1.316188,0 1.316188,0 m 3.477211,0 c 0,0 2.719008,0 2.719008,0 m -0.04088,-0.1 c 0,0 -2.678124,0 -2.678124,0 m -3.477211,0 c 0,0 -1.31714,0 -1.31714,0 m -0.995383,0 c 0,0 -1.334636,0 -1.334636,0 m -0.4453,0 c 0,0 -1.328391,0 -1.328391,0 m -1.450772,0 c 0,0 -4.222323,0 -4.222323,0 m -1.904044,0 c 0,0 -0.912924,0 -0.912924,0 m 5.1e-5,-0.1 c 0,0 0.912873,0 0.912873,0 m 1.904044,0 c 0,0 1.32465,0 1.32465,0 m 1.573024,0 c 0,0 1.324649,0 1.324649,0 m 1.467717,0 c 0,0 1.325993,0 1.325993,0 m 0.416258,0 c 0,0 1.332323,0 1.332323,0 m 1.011239,0 c 0,0 1.318092,0 1.318092,0 m 3.477211,0 c 0,0 2.648998,0 2.648998,0 m 0,-0.1 c 0,0 -2.648998,0 -2.648998,0 m -3.477211,0 c 0,0 -1.319044,0 -1.319044,0 m -1.027095,0 c 0,0 -1.330011,0 -1.330011,0 m -0.387215,0 c 0,0 -1.323596,0 -1.323596,0 m -1.484661,0 c 0,0 -1.324649,0 -1.324649,0 m -1.573024,0 c 0,0 -1.32465,0 -1.32465,0 m -1.904044,0 c 0,0 -0.912823,0 -0.912823,0 m 5e-5,-0.1 c 0,0 0.912773,0 0.912773,0 m 1.904044,0 c 0,0 1.32465,0 1.32465,0 m 1.573024,0 c 0,0 1.324649,0 1.324649,0 m 1.501605,0 c 0,0 1.321198,0 1.321198,0 m 0.358174,0 c 0,0 1.327698,0 1.327698,0 m 1.04295,0 c 0,0 1.319997,0 1.319997,0 m 3.477211,0 c 0,0 2.662067,0 2.662067,0 m 0.05135,-0.1 c 0,0 -2.713418,0 -2.713418,0 m -3.477211,0 c 0,0 -1.320949,0 -1.320949,0 m -1.058806,0 c 0,0 -1.325384,0 -1.325384,0 m -0.329133,0 c 0,0 -1.318801,0 -1.318801,0 m -1.518549,0 c 0,0 -1.324649,0 -1.324649,0 m -1.573024,0 c 0,0 -1.32465,0 -1.32465,0 m -1.904044,0 c 0,0 -0.912722,0 -0.912722,0 m 5e-5,-0.1 c 0,0 0.912672,0 0.912672,0 m 1.904044,0 c 0,0 1.32465,0 1.32465,0 m 1.573024,0 c 0,0 1.324649,0 1.324649,0 m 1.535494,0 c 0,0 1.316403,0 1.316403,0 m 0.300091,0 c 0,0 1.323071,0 1.323071,0 m 1.074662,0 c 0,0 1.321901,0 1.321901,0 m 3.477211,0 c 0,0 2.764769,0 2.764769,0 m 0.05135,-0.1 c 0,0 -2.816121,0 -2.816121,0 m -3.477211,0 c 0,0 -1.322853,0 -1.322853,0 m -1.090518,0 c 0,0 -1.320758,0 -1.320758,0 m -0.271049,0 c 0,0 -1.314006,0 -1.314006,0 m -1.552438,0 c 0,0 -1.324649,0 -1.324649,0 m -1.573024,0 c 0,0 -1.32465,0 -1.32465,0 m -1.904044,0 c 0,0 -0.912622,0 -0.912622,0 m 5e-5,-0.1 c 0,0 0.912572,0 0.912572,0 m 1.904044,0 c 0,0 1.32465,0 1.32465,0 m 1.573024,0 c 0,0 1.324649,0 1.324649,0 m 1.569382,0 c 0,0 1.311609,0 1.311609,0 m 0.242007,0 c 0,0 1.318445,0 1.318445,0 m 1.106374,0 c 0,0 1.323805,0 1.323805,0 m 2.867627,0 c 0,0 0.03004,0 0.03004,0 m 0.579542,0 c 0,0 2.867472,0 2.867472,0 m 0.05135,-0.1 c 0,0 -1.481451,0 -1.481451,0 m -0.02757,0 c 0,0 -1.409798,0 -1.409798,0 m -0.579542,0 c 0,0 -1.367916,0 -1.367916,0 m -1.529753,0 c 0,0 -1.324757,0 -1.324757,0 m -1.122231,0 c 0,0 -1.31613,0 -1.31613,0 m -0.212966,0 c 0,0 -1.309211,0 -1.309211,0 m -1.586327,0 c 0,0 -1.324649,0 -1.324649,0 m -1.573024,0 c 0,0 -1.32465,0 -1.32465,0 m -1.904044,0 c 0,0 -0.912521,0 -0.912521,0 m 5e-5,-0.1 c 0,0 0.912471,0 0.912471,0 m 1.904044,0 c 0,0 1.32465,0 1.32465,0 m 1.573024,0 c 0,0 1.324649,0 1.324649,0 m 1.603271,0 c 0,0 1.306814,0 1.306814,0 m 0.183924,0 c 0,0 1.313817,0 1.313817,0 m 1.138087,0 c 0,0 1.325709,0 1.325709,0 m 1.52622,0 c 0,0 1.371449,0 1.371449,0 m 0.579542,0 c 0,0 1.409718,0 1.409718,0 m 0.07958,0 c 0,0 1.480875,0 1.480875,0 m 0.05135,-0.1 c 0,0 -1.480298,0 -1.480298,0 m -0.131589,0 c 0,0 -1.409639,0 -1.409639,0 m -0.579542,0 c 0,0 -1.374982,0 -1.374982,0 m -1.522687,0 c 0,0 -1.326661,0 -1.326661,0 m -1.153943,0 c 0,0 -1.311504,0 -1.311504,0 m -0.154882,0 c 0,0 -1.304417,0 -1.304417,0 m -1.620215,0 c 0,0 -1.324649,0 -1.324649,0 m -1.573024,0 c 0,0 -1.32465,0 -1.32465,0 m -1.904044,0 c 0,0 -0.912421,0 -0.912421,0 m 5.1e-5,-0.1 c 0,0 0.91237,0 0.91237,0 m 1.904044,0 c 0,0 1.32465,0 1.32465,0 m 1.573024,0 c 0,0 1.324649,0 1.324649,0 m 1.637159,0 c 0,0 1.30202,0 1.30202,0 m 0.125841,0 c 0,0 1.30919,0 1.30919,0 m 1.169798,0 c 0,0 1.327614,0 1.327614,0 m 1.519154,0 c 0,0 1.378515,0 1.378515,0 m 0.579542,0 c 0,0 1.40956,0 1.40956,0 m 0.183596,0 c 0,0 1.479721,0 1.479721,0 m 0.05135,-0.1 c 0,0 -1.479144,0 -1.479144,0 m -0.235604,0 c 0,0 -1.40948,0 -1.40948,0 m -0.579542,0 c 0,0 -1.382048,0 -1.382048,0 m -1.515621,0 c 0,0 -1.328566,0 -1.328566,0 m -1.185654,0 c 0,0 -1.306877,0 -1.306877,0 m -0.0968,0 c 0,0 -1.299621,0 -1.299621,0 m -1.654104,0 c 0,0 -1.324649,0 -1.324649,0 m -1.573024,0 c 0,0 -1.32465,0 -1.32465,0 m -1.904044,0 c 0,0 -0.91232,0 -0.91232,0 m 5e-5,-0.1 c 0,0 0.91227,0 0.91227,0 m 1.904044,0 c 0,0 1.32465,0 1.32465,0 m 1.573024,0 c 0,0 1.324649,0 1.324649,0 m 1.671048,0 c 0,0 1.297224,0 1.297224,0 m 0.06776,0 c 0,0 1.304564,0 1.304564,0 m 1.20151,0 c 0,0 1.329518,0 1.329518,0 m 1.512087,0 c 0,0 1.385582,0 1.385582,0 m 0.579542,0 c 0,0 1.409401,0 1.409401,0 m 0.287611,0 c 0,0 1.478568,0 1.478568,0 m 0.05135,-0.1 c 0,0 -1.477991,0 -1.477991,0 m -0.339619,0 c 0,0 -1.409321,0 -1.409321,0 m -0.579542,0 c 0,0 -1.389115,0 -1.389115,0 m -1.508554,0 c 0,0 -1.33047,0 -1.33047,0 m -1.217366,0 c 0,0 -1.302251,0 -1.302251,0 m -0.03977,0 c 0,0 -1.293774,0 -1.293774,0 m -1.687992,0 c 0,0 -1.324649,0 -1.324649,0 m -1.573024,0 c 0,0 -1.32465,0 -1.32465,0 m -1.904044,0 c 0,0 -0.912219,0 -0.912219,0 m 5e-5,-0.1 c 0,0 0.912169,0 0.912169,0 m 1.904044,0 c 0,0 1.32465,0 1.32465,0 m 1.573024,0 c 0,0 1.324649,0 1.324649,0 m 1.704936,0 c 0,0 1.285076,0 1.285076,0 m 0.01703,0 c 0,0 1.299937,0 1.299937,0 m 1.233222,0 c 0,0 1.331422,0 1.331422,0 m 1.505022,0 c 0,0 1.392647,0 1.392647,0 m 0.579542,0 c 0,0 1.409242,0 1.409242,0 m 0.391626,0 c 0,0 1.477414,0 1.477414,0 m 0.05135,-0.1 c 0,0 -1.476837,0 -1.476837,0 m -0.443633,0 c 0,0 -1.409163,0 -1.409163,0 m -0.579542,0 c 0,0 -1.396179,0 -1.396179,0 m -1.50149,0 c 0,0 -1.332374,0 -1.332374,0 m -1.249078,0 c 0,0 -2.568289,0 -2.568289,0 m -1.721881,0 c 0,0 -1.324649,0 -1.324649,0 m -1.573024,0 c 0,0 -1.32465,0 -1.32465,0 m -1.904044,0 c 0,0 -0.912119,0 -0.912119,0 m 5e-5,-0.1 c 0,0 0.912069,0 0.912069,0 m 1.904044,0 c 0,0 1.32465,0 1.32465,0 m 1.573024,0 c 0,0 1.324649,0 1.324649,0 m 1.738908,0 c 0,0 2.534454,0 2.534454,0 m 1.264934,0 c 0,0 1.333326,0 1.333326,0 m 1.497959,0 c 0,0 1.39971,0 1.39971,0 m 0.579542,0 c 0,0 1.409083,0 1.409083,0 m 0.495641,0 c 0,0 1.476261,0 1.476261,0 m 0.05135,-0.1 c 0,0 -1.475684,0 -1.475684,0 m -0.547648,0 c 0,0 -1.409004,0 -1.409004,0 m -0.579542,0 c 0,0 -1.403242,0 -1.403242,0 m -1.494427,0 c 0,0 -1.334279,0 -1.334279,0 m -1.280789,0 c 0,0 -2.500505,0 -2.500505,0 m -1.756049,0 c 0,0 -1.324649,0 -1.324649,0 m -1.573024,0 c 0,0 -1.32465,0 -1.32465,0 m -1.904044,0 c 0,0 -0.912018,0 -0.912018,0 m 5e-5,-0.1 c 0,0 0.911968,0 0.911968,0 m 1.904044,0 c 0,0 1.32465,0 1.32465,0 m 1.573024,0 c 0,0 1.324649,0 1.324649,0 m 1.77319,0 c 0,0 2.466556,0 2.466556,0 m 1.305671,0 c 0,0 1.340156,0 1.340156,0 m 1.476944,0 c 0,0 1.406774,0 1.406774,0 m 0.579542,0 c 0,0 1.408924,0 1.408924,0 m 0.599656,0 c 0,0 1.475107,0 1.475107,0 m 0.05135,-0.1 c 0,0 -1.474531,0 -1.474531,0 m -0.651663,0 c 0,0 -1.408845,0 -1.408845,0 m -0.579542,0 c 0,0 -1.410306,0 -1.410306,0 m -1.421701,0 c 0,0 -1.363051,0 -1.363051,0 m -1.351295,0 c 0,0 -2.432607,0 -2.432607,0 m -1.790331,0 c 0,0 -1.324649,0 -1.324649,0 m -1.573024,0 c 0,0 -1.32465,0 -1.32465,0 m -1.904044,0 c 0,0 -0.911918,0 -0.911918,0 m 5.1e-5,-0.1 c 0,0 0.911867,0 0.911867,0 m 1.904044,0 c 0,0 1.32465,0 1.32465,0 m 1.573024,0 c 0,0 1.324649,0 1.324649,0 m 1.807472,0 c 0,0 2.398658,0 2.398658,0 m 1.39692,0 c 0,0 1.385944,0 1.385944,0 m 1.36646,0 c 0,0 1.413837,0 1.413837,0 m 0.579542,0 c 0,0 1.408765,0 1.408765,0 m 0.703671,0 c 0,0 1.473954,0 1.473954,0 m 0.05135,-0.1 c 0,0 -1.473377,0 -1.473377,0 m -0.755678,0 c 0,0 -1.408686,0 -1.408686,0 m -0.579542,0 c 0,0 -1.528092,0 -1.528092,0 m -1.200493,0 c 0,0 -1.40884,0 -1.40884,0 m -1.442544,0 c 0,0 -2.364709,0 -2.364709,0 m -1.824613,0 c 0,0 -1.324649,0 -1.324649,0 m -1.573024,0 c 0,0 -1.32465,0 -1.32465,0 m -1.904044,0 c 0,0 -0.911817,0 -0.911817,0 m 5e-5,-0.1 c 0,0 0.911767,0 0.911767,0 m 1.904044,0 c 0,0 1.32465,0 1.32465,0 m 1.573024,0 c 0,0 1.324649,0 1.324649,0 m 1.841754,0 c 0,0 2.33076,0 2.33076,0 m 1.488168,0 c 0,0 1.431736,0 1.431736,0 m 1.029936,0 c 0,0 1.605647,0 1.605647,0 m 0.620832,0 c 0,0 1.408607,0 1.408607,0 m 0.807684,0 c 0,0 1.472802,0 1.472802,0 m 0.05135,-0.1 c 0,0 -1.472225,0 -1.472225,0 m -0.859692,0 c 0,0 -1.408527,0 -1.408527,0 m -0.662614,0 c 0,0 -1.682709,0 -1.682709,0 m -0.800741,0 c 0,0 -1.51327,0 -1.51327,0 m -1.533793,0 c 0,0 -2.296811,0 -2.296811,0 m -1.858895,0 c 0,0 -1.324649,0 -1.324649,0 m -1.573024,0 c 0,0 -1.32465,0 -1.32465,0 m -1.904044,0 c 0,0 -0.911717,0 -0.911717,0 m 5.1e-5,-0.1 c 0,0 0.911666,0 0.911666,0 m 1.904044,0 c 0,0 1.32465,0 1.32465,0 m 1.573024,0 c 0,0 1.324649,0 1.324649,0 m 1.876036,0 c 0,0 2.262862,0 2.262862,0 m 1.579418,0 c 0,0 1.671277,0 1.671277,0 m 0.495073,0 c 0,0 1.75977,0 1.75977,0 m 0.704397,0 c 0,0 1.408448,0 1.408448,0 m 0.911699,0 c 0,0 1.471649,0 1.471649,0 m 0.05135,-0.1 c 0,0 -1.471072,0 -1.471072,0 m -0.963707,0 c 0,0 -1.408368,0 -1.408368,0 m -0.746181,0 c 0,0 -3.85552,0 -3.85552,0 m -1.625042,0 c 0,0 -2.228913,0 -2.228913,0 m -1.893177,0 c 0,0 -1.324649,0 -1.324649,0 m -1.573024,0 c 0,0 -1.32465,0 -1.32465,0 m -1.904044,0 c 0,0 -0.911616,0 -0.911616,0 m 5e-5,-0.1 c 0,0 0.911566,0 0.911566,0 m 1.904044,0 c 0,0 1.32465,0 1.32465,0 m 1.573024,0 c 0,0 1.324649,0 1.324649,0 m 1.910318,0 c 0,0 2.194964,0 2.194964,0 m 1.670667,0 c 0,0 3.784919,0 3.784919,0 m 0.787965,0 c 0,0 1.408289,0 1.408289,0 m 1.015713,0 c 0,0 1.470497,0 1.470497,0 m 0.05135,-0.1 c 0,0 -1.46992,0 -1.46992,0 m -1.067721,0 c 0,0 -1.408209,0 -1.408209,0 m -0.829748,0 c 0,0 -3.71432,0 -3.71432,0 m -1.716291,0 c 0,0 -2.161015,0 -2.161015,0 m -1.927459,0 c 0,0 -1.324649,0 -1.324649,0 m -1.573024,0 c 0,0 -1.32465,0 -1.32465,0 m -1.904044,0 c 0,0 -0.911515,0 -0.911515,0 m 5e-5,-0.1 c 0,0 0.911465,0 0.911465,0 m 1.904044,0 c 0,0 1.32465,0 1.32465,0 m 1.573024,0 c 0,0 1.324649,0 1.324649,0 m 1.944601,0 c 0,0 2.127064,0 2.127064,0 m 1.823424,0 c 0,0 3.550441,0 3.550441,0 m 0.903303,0 c 0,0 1.40813,0 1.40813,0 m 1.119728,0 c 0,0 1.469344,0 1.469344,0 m 0.05135,-0.1 c 0,0 -1.468767,0 -1.468767,0 m -1.171735,0 c 0,0 -1.408051,0 -1.408051,0 m -0.979574,0 c 0,0 -3.371471,0 -3.371471,0 m -1.942931,0 c 0,0 -2.093115,0 -2.093115,0 m -1.961742,0 c 0,0 -1.324649,0 -1.324649,0 m -1.573024,0 c 0,0 -1.32465,0 -1.32465,0 m -1.904044,0 c 0,0 -0.911415,0 -0.911415,0 m 5e-5,-0.1 c 0,0 0.911365,0 0.911365,0 m 1.904044,0 c 0,0 1.32465,0 1.32465,0 m 1.573024,0 c 0,0 1.324649,0 1.324649,0 m 1.978883,0 c 0,0 2.059166,0 2.059166,0 m 2.062437,0 c 0,0 3.1925,0 3.1925,0 m 1.055847,0 c 0,0 1.407971,0 1.407971,0 m 1.223742,0 c 0,0 1.468192,0 1.468192,0 m 0.05135,-0.1 c 0,0 -1.467615,0 -1.467615,0 m -1.275749,0 c 0,0 -1.407892,0 -1.407892,0 m -1.132121,0 c 0,0 -3.013527,0 -3.013527,0 m -2.181944,0 c 0,0 -2.025217,0 -2.025217,0 m -1.996024,0 c 0,0 -1.324649,0 -1.324649,0 m -1.573024,0 c 0,0 -1.32465,0 -1.32465,0 m -1.904044,0 c 0,0 -0.911314,0 -0.911314,0 m 5e-5,-0.1 c 0,0 0.911264,0 0.911264,0 m 1.904044,0 c 0,0 1.32465,0 1.32465,0 m 1.573024,0 c 0,0 1.324649,0 1.324649,0 m 2.013165,0 c 0,0 1.991268,0 1.991268,0 m 2.301451,0 c 0,0 2.834553,0 2.834553,0 m 1.208396,0 c 0,0 1.407812,0 1.407812,0 m 1.327757,0 c 0,0 1.467038,0 1.467038,0 m 0.05135,-0.1 c 0,0 -1.466462,0 -1.466462,0 m -1.379764,0 c 0,0 -1.407733,0 -1.407733,0 m -1.330678,0 c 0,0 -2.609573,0 -2.609573,0 m -2.420957,0 c 0,0 -1.957318,0 -1.957318,0 m -2.030307,0 c 0,0 -1.324649,0 -1.324649,0 m -1.573024,0 c 0,0 -1.32465,0 -1.32465,0 m -1.904044,0 c 0,0 -0.911214,0 -0.911214,0 m 5.1e-5,-0.1 c 0,0 0.911163,0 0.911163,0 m 1.904044,0 c 0,0 1.32465,0 1.32465,0 m 1.573024,0 c 0,0 1.324649,0 1.324649,0 m 2.047448,0 c 0,0 1.923369,0 1.923369,0 m 2.540464,0 c 0,0 2.336243,0 2.336243,0 m 1.501309,0 c 0,0 1.407654,0 1.407654,0 m 1.43177,0 c 0,0 1.465886,0 1.465886,0 m 0.05135,-0.1 c 0,0 -1.46531,0 -1.46531,0 m -1.483778,0 c 0,0 -1.407574,0 -1.407574,0 m -1.671943,0 c 0,0 -2.062911,0 -2.062911,0 m -2.65997,0 c 0,0 -1.88942,0 -1.88942,0 m -2.064589,0 c 0,0 -1.324649,0 -1.324649,0 m -1.573024,0 c 0,0 -1.32465,0 -1.32465,0 m -1.904044,0 c 0,0 -0.911113,0 -0.911113,0 m 5e-5,-0.1 c 0,0 0.911063,0 0.911063,0 m 1.904044,0 c 0,0 1.32465,0 1.32465,0 m 1.573024,0 c 0,0 1.324649,0 1.324649,0 m 2.08173,0 c 0,0 1.855471,0 1.855471,0 m 2.895522,0 c 0,0 1.673528,0 1.673528,0 m 1.842582,0 c 0,0 1.407495,0 1.407495,0 m 1.535785,0 c 0,0 1.444321,0 1.444321,0 m -6.560394,-0.1 c 0,0 -0.986166,0 -0.986166,0 m -13.316241,0 c 0,0 -0.911013,0 -0.911013,0 m 5.1e-5,-0.1 c 0,0 0.910962,0 0.910962,0 m 0,-0.1 c 0,0 -0.910912,0 -0.910912,0 m 5e-5,-0.1 c 0,0 0.910862,0 0.910862,0 m 0,-0.1 c 0,0 -0.910811,0 -0.910811,0 m 5e-5,-0.1 c 0,0 0.910761,0 0.910761,0 m 0,-0.1 c 0,0 -0.910711,0 -0.910711,0 m -1.21539,-0.1 c 0,0 3.338406,0 3.338406,0 m 0.186859,-0.1 c 0,0 -3.712124,0 -3.712124,0 m -0.0052,-0.1 c 0,0 3.725597,0 3.725597,0 m 0,-0.1 c 0,0 -3.725597,0 -3.725597,0 m 0,-0.1 c 0,0 3.725597,0 3.725597,0 m 0,-0.1 c 0,0 -3.725597,0 -3.725597,0 m 0.05496,-0.1 c 0,0 3.617171,0 3.617171,0 m -0.0905,-0.1 c 0,0 -3.436171,0 -3.436171,0 m 0.0905,-0.1 c 0,0 3.255166,0 3.255166,0 m 0.01137,-0.1 c 0,0 -3.299983,0 -3.299983,0 m -0.142764,-0.1 c 0,0 3.533245,0 3.533245,0 m 0.0905,-0.1 c 0,0 -3.746144,0 -3.746144,0 m -0.0097,-0.1 c 0,0 3.799302,0 3.799302,0 m 0.0115,-0.1 c 0,0 -3.820497,0 -3.820497,0 m -0.0097,-0.1 c 0,0 3.841692,0 3.841692,0 m 0.0115,-0.1 c 0,0 -3.862886,0 -3.862886,0 m -0.0097,-0.1 c 0,0 3.884081,0 3.884081,0 m 0.0115,-0.1 c 0,0 -3.905277,0 -3.905277,0 m -0.0097,-0.1 c 0,0 3.926474,0 3.926474,0 m 0.0115,-0.1 c 0,0 -3.947671,0 -3.947671,0 m 0.03048,-0.1 c 0,0 3.928692,0 3.928692,0 m -0.05372,-0.1 c 0,0 -3.784856,0 -3.784856,0 m 0.09012,-0.1 c 0,0 3.589382,0 3.589382,0 m -0.105357,-0.1 c 0,0 -3.393908,0 -3.393908,0 m 0.09012,-0.1 c 0,0 3.198436,0 3.198436,0 m -0.105357,-0.1 c 0,0 -3.002964,0 -3.002964,0 m 0.07314,-0.1 c 0,0 2.897682,0 2.897682,0 m 0,-0.1 c 0,0 -2.897682,0 -2.897682,0 m 0,-0.1 c 0,0 2.897682,0 2.897682,0 m 0,-0.1 c 0,0 -2.897682,0 -2.897682,0 m 0,-0.1 c 0,0 2.897682,0 2.897682,0 m 0,-0.1 c 0,0 -2.897682,0 -2.897682,0 m 0,-0.1 c 0,0 2.808104,0 2.808104,0 m -0.263154,-0.1 c 0,0 -2.260083,0 -2.260083,0 m 0.554561,-0.1 c 0,0 1.224784,0 1.224784,0 m -0.0077,-0.1 c 0,0 -1.22783,0 -1.22783,0 m -0.01071,-0.1 c 0,0 1.230877,0 1.230877,0 m 0.0031,-0.1 c 0,0 -1.244665,0 -1.244665,0 m -0.01071,-0.1 c 0,0 1.260673,0 1.260673,0 m 0.0053,-0.1 c 0,0 -1.276681,0 -1.276681,0 m -0.01071,-0.1 c 0,0 1.292692,0 1.292692,0 m 0.0053,-0.1 c 0,0 -1.308709,0 -1.308709,0 m -0.01071,-0.1 c 0,0 1.324726,0 1.324726,0 m 0.0053,-0.1 c 0,0 -1.340743,0 -1.340743,0 m 0.02196,-0.1 c 0,0 1.259374,0 1.259374,0 m -0.08299,-0.1 c 0,0 -1.055887,0 -1.055887,0 m 0.107986,-0.1 c 0,0 0.902302,0 0.902302,0 m -0.0065,-0.1 c 0,0 -0.895798,0 -0.895798,0 m 0,-0.1 c 0,0 0.889293,0 0.889293,0 m -0.0065,-0.1 c 0,0 -0.882789,0 -0.882789,0 m 0,-0.1 c 0,0 0.876285,0 0.876285,0 m -0.0065,-0.1 c 0,0 -0.869781,0 -0.869781,0 m 0.154046,-0.1 c 0,0 0.613291,0 0.613291,0 m -0.0019,-0.1 c 0,0 -0.608672,0 -0.608672,0 m 0.0027,-0.1 c 0,0 0.604052,0 0.604052,0 m -0.0019,-0.1 c 0,0 -0.599433,0 -0.599433,0 m 0.0027,-0.1 c 0,0 0.594814,0 0.594814,0 m -0.0019,-0.1 c 0,0 -0.590195,0 -0.590195,0 m 0.0027,-0.1 c 0,0 0.585576,0 0.585576,0 m -0.0019,-0.1 c 0,0 -0.580957,0 -0.580957,0 m 0.0027,-0.1 c 0,0 0.576338,0 0.576338,0 m -0.0019,-0.1 c 0,0 -0.571719,0 -0.571719,0 m 0.0027,-0.1 c 0,0 0.567099,0 0.567099,0 m -0.0019,-0.1 c 0,0 -0.56248,0 -0.56248,0 m 0.0027,-0.1 c 0,0 0.557861,0 0.557861,0 m -0.0019,-0.1 c 0,0 -0.553242,0 -0.553242,0 m 0.0027,-0.1 c 0,0 0.548622,0 0.548622,0 m -0.0019,-0.1 c 0,0 -0.544004,0 -0.544004,0 m 0.0027,-0.1 c 0,0 0.539385,0 0.539385,0 m -0.0019,-0.1 c 0,0 -0.534766,0 -0.534766,0 m 0.0027,-0.1 c 0,0 0.530146,0 0.530146,0 m -0.0019,-0.1 c 0,0 -0.525527,0 -0.525527,0 m 0.0027,-0.1 c 0,0 0.520908,0 0.520908,0 m -0.0019,-0.1 c 0,0 -0.516289,0 -0.516289,0 m 0.0027,-0.1 c 0,0 0.511669,0 0.511669,0 m -0.0019,-0.1 c 0,0 -0.50705,0 -0.50705,0 m 0.0027,-0.1 c 0,0 0.502432,0 0.502432,0 m -0.0019,-0.1 c 0,0 -0.497813,0 -0.497813,0 m 0.0027,-0.1 c 0,0 0.493193,0 0.493193,0 m -0.0019,-0.1 c 0,0 -0.488574,0 -0.488574,0 m 0.0027,-0.1 c 0,0 0.483955,0 0.483955,0 m -0.0019,-0.1 c 0,0 -0.479336,0 -0.479336,0 m 0.0027,-0.1 c 0,0 0.474716,0 0.474716,0 m -0.0019,-0.1 c 0,0 -0.470097,0 -0.470097,0 m 0.0027,-0.1 c 0,0 0.465478,0 0.465478,0 m -0.0019,-0.1 c 0,0 -0.46086,0 -0.46086,0 m 0.0027,-0.1 c 0,0 0.45624,0 0.45624,0 m -0.0019,-0.1 c 0,0 -0.451621,0 -0.451621,0 m 0.0027,-0.1 c 0,0 0.447002,0 0.447002,0 m -0.0019,-0.1 c 0,0 -0.442383,0 -0.442383,0 m 0.0027,-0.1 c 0,0 0.437763,0 0.437763,0 m -0.0019,-0.1 c 0,0 -0.433144,0 -0.433144,0 m 0.0027,-0.1 c 0,0 0.428525,0 0.428525,0 m -0.0019,-0.1 c 0,0 -0.423906,0 -0.423906,0 m 0.0027,-0.1 c 0,0 0.419287,0 0.419287,0 m -0.0019,-0.1 c 0,0 -0.414668,0 -0.414668,0 m -0.148952,-0.1 c 0,0 0.665218,0 0.665218,0 m 0.152618,-0.1 c 0,0 -0.970454,0 -0.970454,0 m -0.1358,-0.1 c 0,0 1.241862,0 1.241862,0 m 0,-0.1 c 0,0 -1.241862,0 -1.241862,0 m 0,-0.1 c 0,0 1.241862,0 1.241862,0 m -0.04213,-0.1 c 0,0 -1.194813,0 -1.194813,0 m 0.120485,-0.1 c 0,0 0.998467,0 0.998467,0 m -0.07586,-0.1 c 0,0 -0.802106,0 -0.802106,0 m 0.0025,-0.1 c 0,0 0.723779,0 0.723779,0 m -0.07586,-0.1 c 0,0 -0.647922,0 -0.647922,0 m 0.151909,-0.1 c 0,0 0.441328,0 0.441328,0 m -0.0014,-0.1 c 0,0 -0.438454,0 -0.438454,0 m 0.0014,-0.1 c 0,0 0.435581,0 0.435581,0 m -0.0014,-0.1 c 0,0 -0.432707,0 -0.432707,0 m 0.0014,-0.1 c 0,0 0.429833,0 0.429833,0 m -0.0014,-0.1 c 0,0 -0.426959,0 -0.426959,0 m 0.0014,-0.1 c 0,0 0.424085,0 0.424085,0 m -0.0014,-0.1 c 0,0 -0.421211,0 -0.421211,0 m 0.0014,-0.1 c 0,0 0.418338,0 0.418338,0 m -0.0014,-0.1 c 0,0 -0.415464,0 -0.415464,0 m 0.0014,-0.1 c 0,0 0.41259,0 0.41259,0 m -0.0014,-0.1 c 0,0 -0.409715,0 -0.409715,0 m 0.0014,-0.1 c 0,0 0.406841,0 0.406841,0 m -0.0014,-0.1 c 0,0 -0.403967,0 -0.403967,0 m 0.0014,-0.1 c 0,0 0.401094,0 0.401094,0 m -0.0014,-0.1 c 0,0 -0.39822,0 -0.39822,0 m 0.0014,-0.1 c 0,0 0.395346,0 0.395346,0 m -0.0014,-0.1 c 0,0 -0.392472,0 -0.392472,0 m 0.0014,-0.1 c 0,0 0.389598,0 0.389598,0 m -0.0014,-0.1 c 0,0 -0.386725,0 -0.386725,0 m 0.0014,-0.1 c 0,0 0.383851,0 0.383851,0 m -0.0014,-0.1 c 0,0 -0.380977,0 -0.380977,0 m 0.0014,-0.1 c 0,0 0.378103,0 0.378103,0 m -0.0014,-0.1 c 0,0 -0.375229,0 -0.375229,0 m 0.0014,-0.1 c 0,0 0.372355,0 0.372355,0 m -0.0014,-0.1 c 0,0 -0.369482,0 -0.369482,0 m 0.0014,-0.1 c 0,0 0.366607,0 0.366607,0 m -0.0014,-0.1 c 0,0 -0.363733,0 -0.363733,0 m 0.0014,-0.1 c 0,0 0.360859,0 0.360859,0 m -0.0014,-0.1 c 0,0 -0.357985,0 -0.357985,0 m 0.0014,-0.1 c 0,0 0.355111,0 0.355111,0 m -0.0014,-0.1 c 0,0 -0.352238,0 -0.352238,0 m 0.0014,-0.1 c 0,0 0.349364,0 0.349364,0 m -0.0014,-0.1 c 0,0 -0.34649,0 -0.34649,0 m 0.0014,-0.1 c 0,0 0.343616,0 0.343616,0 m -0.0014,-0.1 c 0,0 -0.340742,0 -0.340742,0 m 0.0014,-0.1 c 0,0 0.337868,0 0.337868,0 m -0.0014,-0.1 c 0,0 -0.334995,0 -0.334995,0 m 0.0014,-0.1 c 0,0 0.332121,0 0.332121,0 m -0.0014,-0.1 c 0,0 -0.329247,0 -0.329247,0 m 0.0014,-0.1 c 0,0 0.326373,0 0.326373,0 m -0.0014,-0.1 c 0,0 -0.323499,0 -0.323499,0 m 0.0014,-0.1 c 0,0 0.320626,0 0.320626,0 m -0.0014,-0.1 c 0,0 -0.317752,0 -0.317752,0 m 0.0014,-0.1 c 0,0 0.314878,0 0.314878,0 m -0.0014,-0.1 c 0,0 -0.312004,0 -0.312004,0 m 0.0014,-0.1 c 0,0 0.30913,0 0.30913,0 m -0.0014,-0.1 c 0,0 -0.306256,0 -0.306256,0 m 0.0014,-0.1 c 0,0 0.303384,0 0.303384,0 m -0.0014,-0.1 c 0,0 -0.30051,0 -0.30051,0 m 0.0014,-0.1 c 0,0 0.297636,0 0.297636,0 m -0.0014,-0.1 c 0,0 -0.294762,0 -0.294762,0 m 0.0014,-0.1 c 0,0 0.291888,0 0.291888,0 m -0.0014,-0.1 c 0,0 -0.289014,0 -0.289014,0 m 0.0014,-0.1 c 0,0 0.286142,0 0.286142,0 m -0.0014,-0.1 c 0,0 -0.283268,0 -0.283268,0 m 0.0014,-0.1 c 0,0 0.280394,0 0.280394,0 m -0.0014,-0.1 c 0,0 -0.27752,0 -0.27752,0 m 0.0014,-0.1 c 0,0 0.274646,0 0.274646,0 m -0.0014,-0.1 c 0,0 -0.271774,0 -0.271774,0 m 0.0014,-0.1 c 0,0 0.2689,0 0.2689,0 m -0.0014,-0.1 c 0,0 -0.266026,0 -0.266026,0 m 0.0014,-0.1 c 0,0 0.263152,0 0.263152,0 m -0.0014,-0.1 c 0,0 -0.260278,0 -0.260278,0 m 0.0014,-0.1 c 0,0 0.257404,0 0.257404,0 m -0.0014,-0.1 c 0,0 -0.254532,0 -0.254532,0 m 0.0014,-0.1 c 0,0 0.251658,0 0.251658,0 m -0.0014,-0.1 c 0,0 -0.248784,0 -0.248784,0 m 0.0014,-0.1 c 0,0 0.24591,0 0.24591,0 m -0.0014,-0.1 c 0,0 -0.243036,0 -0.243036,0 m 0.0014,-0.1 c 0,0 0.240162,0 0.240162,0 m -0.0014,-0.1 c 0,0 -0.23729,0 -0.23729,0 m 0.0014,-0.1 c 0,0 0.234416,0 0.234416,0 m -0.0014,-0.1 c 0,0 -0.231542,0 -0.231542,0 m 0.0014,-0.1 c 0,0 0.228668,0 0.228668,0 m -0.0014,-0.1 c 0,0 -0.225794,0 -0.225794,0 m 0.0014,-0.1 c 0,0 0.222922,0 0.222922,0 m -0.0014,-0.1 c 0,0 -0.220048,0 -0.220048,0 m 0.0014,-0.1 c 0,0 0.217174,0 0.217174,0 m -0.0014,-0.1 c 0,0 -0.2143,0 -0.2143,0 m 0.0014,-0.1 c 0,0 0.211426,0 0.211426,0 m -0.0014,-0.1 c 0,0 -0.208552,0 -0.208552,0 m 0.0014,-0.1 c 0,0 0.20568,0 0.20568,0 m -0.0014,-0.1 c 0,0 -0.202806,0 -0.202806,0"
         inkscape:connector-curvature="0" />
    </g>
    <circle
       style="fill:none;stroke:#000000;stroke-width:0.04615599;stroke-miterlimit:4;stroke-dasharray:none;stroke-opacity:1"
       id="path1616"
       cx="27.206072"
       cy="230.8479"
       r="6.0878596" />
    <rect
       style="opacity:1;fill:none;fill-opacity:1;stroke:#ffffff;stroke-width:0.1;stroke-miterlimit:4;stroke-dasharray:none;stroke-opacity:1"
       id="rect938"
       width="39.172882"
       height="59.172878"
       x="0.41356042"
       y="219.81355"
       rx="10.186459"
       ry="10.186459" />
    <circle
       style="opacity:1;fill:none;fill-opacity:1;stroke:#ffffff;stroke-width:0.00477754;stroke-miterlimit:4;stroke-dasharray:none;stroke-opacity:1"
       id="path1512"
       cx="0.04999999"
       cy="-279.35001"
       transform="scale(1,-1)"
       r="0.047611229" />
    <circle
       r="0.047611229"
       transform="scale(1,-1)"
       cy="-219.45"
       cx="39.950001"
       id="circle1514"
       style="opacity:1;fill:none;fill-opacity:1;stroke:#ffffff;stroke-width:0.00477754;stroke-miterlimit:4;stroke-dasharray:none;stroke-opacity:1" />
  </g>
</svg>
