<?xml version="1.0" encoding="UTF-8" standalone="no"?>
<svg
   xmlns:dc="http://purl.org/dc/elements/1.1/"
   xmlns:cc="http://creativecommons.org/ns#"
   xmlns:rdf="http://www.w3.org/1999/02/22-rdf-syntax-ns#"
   xmlns:svg="http://www.w3.org/2000/svg"
   xmlns="http://www.w3.org/2000/svg"
   id="svg8"
   version="1.1"
   viewBox="0 0 40.000002 60.000003"
   height="60mm"
   width="40mm">
  <defs
     id="defs2" />
  <metadata
     id="metadata5">
    <rdf:RDF>
      <cc:Work
         rdf:about="">
        <dc:format>image/svg+xml</dc:format>
        <dc:type
           rdf:resource="http://purl.org/dc/dcmitype/StillImage" />
        <dc:title></dc:title>
      </cc:Work>
    </rdf:RDF>
  </metadata>
  <g
     transform="translate(0,-219.39999)"
     id="layer2">
    <path
       id="path1616"
       d="m 33.293931,230.8479 a 6.0878596,6.0878596 0 0 1 -6.087859,6.08786 6.0878596,6.0878596 0 0 1 -6.08786,-6.08786 6.0878596,6.0878596 0 0 1 6.08786,-6.08786 6.0878596,6.0878596 0 0 1 6.087859,6.08786 z"
       style="fill:none;stroke:#000000;stroke-width:0.04615599;stroke-miterlimit:4;stroke-dasharray:none;stroke-opacity:1" />
    <path
       id="rect938"
       d="m 10.600019,219.81355 h 18.799965 c 5.643298,0 10.186459,4.54316 10.186459,10.18646 v 38.79996 c 0,5.6433 -4.543161,10.18646 -10.186459,10.18646 H 10.600019 c -5.643298,0 -10.18645858,-4.54316 -10.18645858,-10.18646 v -38.79996 c 0,-5.6433 4.54316058,-10.18646 10.18645858,-10.18646 z"
       style="opacity:1;fill:none;fill-opacity:1;stroke:#ffffff;stroke-width:0.1;stroke-miterlimit:4;stroke-dasharray:none;stroke-opacity:1" />
    <path
       id="path1512"
       d="m 0.09761122,-279.35001 a 0.04761123,0.04761123 0 0 1 -0.04761123,0.0476 0.04761123,0.04761123 0 0 1 -0.04761123,-0.0476 0.04761123,0.04761123 0 0 1 0.04761123,-0.0476 0.04761123,0.04761123 0 0 1 0.04761123,0.0476 z"
       style="opacity:1;fill:none;fill-opacity:1;stroke:#ffffff;stroke-width:0.00477754;stroke-miterlimit:4;stroke-dasharray:none;stroke-opacity:1"
       transform="scale(1,-1)" />
    <path
       id="circle1514"
       d="m 39.997612,-219.45 a 0.04761123,0.04761123 0 0 1 -0.04761,0.0476 0.04761123,0.04761123 0 0 1 -0.04761,-0.0476 0.04761123,0.04761123 0 0 1 0.04761,-0.0476 0.04761123,0.04761123 0 0 1 0.04761,0.0476 z"
       style="opacity:1;fill:none;fill-opacity:1;stroke:#ffffff;stroke-width:0.00477754;stroke-miterlimit:4;stroke-dasharray:none;stroke-opacity:1"
       transform="scale(1,-1)" />
  </g>
</svg>
