<?xml version="1.0" encoding="UTF-8" standalone="no"?>
<svg
   xmlns:dc="http://purl.org/dc/elements/1.1/"
   xmlns:cc="http://creativecommons.org/ns#"
   xmlns:rdf="http://www.w3.org/1999/02/22-rdf-syntax-ns#"
   xmlns:svg="http://www.w3.org/2000/svg"
   xmlns="http://www.w3.org/2000/svg"
   xmlns:sodipodi="http://sodipodi.sourceforge.net/DTD/sodipodi-0.dtd"
   xmlns:inkscape="http://www.inkscape.org/namespaces/inkscape"
   inkscape:version="0.92.3 (2405546, 2018-03-11)"
   sodipodi:docname="buttonMount.plain.svg"
   id="svg8"
   version="1.1"
   viewBox="0 0 60.000001 30.000003"
   height="30mm"
   width="60mm">
  <sodipodi:namedview
     inkscape:current-layer="svg8"
     inkscape:window-maximized="1"
     inkscape:window-y="1"
     inkscape:window-x="0"
     units="mm"
     showgrid="false"
     id="namedview10"
     inkscape:window-height="739"
     inkscape:window-width="1366"
     inkscape:pageshadow="2"
     inkscape:pageopacity="0"
     guidetolerance="10"
     gridtolerance="10"
     objecttolerance="10"
     borderopacity="1"
     bordercolor="#666666"
     pagecolor="#ffffff" />
  <defs
     id="defs2" />
  <metadata
     id="metadata5">
    <rdf:RDF>
      <cc:Work
         rdf:about="">
        <dc:format>image/svg+xml</dc:format>
        <dc:type
           rdf:resource="http://purl.org/dc/dcmitype/StillImage" />
        <dc:title></dc:title>
      </cc:Work>
    </rdf:RDF>
  </metadata>
  <path
     id="rect854"
     d="M 35.56619,8.8333372 H 1.5486466 V 26.728807 h 6.49377 l 0.0062,2.9 14.4471984,0.0051 0.0062,-14.227241 13.003551,0.0041 c 0.02831,-2.189689 0.04772,-4.383538 0.06062,-6.5774638 z"
     style="opacity:0.98000004;fill:none;fill-opacity:1;stroke:#000000;stroke-width:0.1;stroke-miterlimit:3.98765421;stroke-dasharray:none;stroke-opacity:1"
     inkscape:connector-curvature="0"
     sodipodi:nodetypes="ccccccccc" />
  <path
     style="opacity:0.98000004;fill:none;fill-opacity:1;stroke:#000000;stroke-width:0.1;stroke-miterlimit:3.98765421;stroke-dasharray:none;stroke-opacity:1"
     d="M 51.624299,29.533697 H 36.670449 V 9.7798572 h 14.95385 l 0.0115,8.3595298 -6.48846,-0.008 v 3.05 l 6.48846,0.007 z"
     id="rect812"
     inkscape:connector-curvature="0" />
  <g
     id="g1091"
     transform="matrix(1.1332196,0,0,1.1329878,51.351299,-288.6074)">
    <path
       inkscape:connector-curvature="0"
       style="opacity:0.98000004;fill:none;fill-opacity:1;stroke:#000000;stroke-width:0.05882356;stroke-miterlimit:3.98765421;stroke-dasharray:none;stroke-opacity:1"
       d="m -30.099847,279.3706 a 1.4705887,1.4705887 0 0 1 -1.470588,-1.47059 1.4705887,1.4705887 0 0 1 1.470588,-1.47058 1.4705887,1.4705887 0 0 1 1.470588,1.47058 1.4705887,1.4705887 0 0 1 -1.470588,1.47059 z"
       id="path1087" />
  </g>
  <path
     inkscape:connector-curvature="0"
     style="opacity:0.98000004;fill:none;fill-opacity:1;stroke:#000000;stroke-width:0.06666671;stroke-miterlimit:3.98765421;stroke-dasharray:none;stroke-opacity:1"
     d="m 17.241566,17.915898 a 1.6666675,1.6666675 0 0 1 -1.666666,-1.666669 1.6666675,1.6666675 0 0 1 1.666666,-1.666657 1.6666675,1.6666675 0 0 1 1.666667,1.666657 1.6666675,1.6666675 0 0 1 -1.666667,1.666669 z"
     id="path1103" />
  <path
     id="path1113"
     d="M 28.68309,13.183328 A 1.6666675,1.6666675 0 0 1 27.016424,11.516659 1.6666675,1.6666675 0 0 1 28.68309,9.8500017 1.6666675,1.6666675 0 0 1 30.349757,11.516659 1.6666675,1.6666675 0 0 1 28.68309,13.183328 Z"
     style="opacity:0.98000004;fill:none;fill-opacity:1;stroke:#000000;stroke-width:0.06666671;stroke-miterlimit:3.98765421;stroke-dasharray:none;stroke-opacity:1"
     inkscape:connector-curvature="0" />
  <g
     id="g834"
     transform="translate(46.538309,-2.6682244)">
    <path
       id="path828"
       d="M 1.4249996,29.97206 A 1.3970591,1.3970591 0 0 1 0.02794118,28.575002 1.3970591,1.3970591 0 0 1 1.4249996,27.177943 1.3970591,1.3970591 0 0 1 2.822059,28.575002 1.3970591,1.3970591 0 0 1 1.4249996,29.97206 Z"
       style="opacity:0.98000004;fill:none;fill-opacity:1;stroke:#000000;stroke-width:0.05588236;stroke-miterlimit:3.98765421;stroke-dasharray:none;stroke-opacity:1"
       inkscape:connector-curvature="0" />
    <path
       inkscape:connector-curvature="0"
       style="opacity:0.98000004;fill:none;fill-opacity:1;stroke:#000000;stroke-width:0.05588236;stroke-miterlimit:3.98765421;stroke-dasharray:none;stroke-opacity:1"
       d="M 1.4249996,17.47206 A 1.3970591,1.3970591 0 0 1 0.02794118,16.075002 1.3970591,1.3970591 0 0 1 1.4249996,14.677943 1.3970591,1.3970591 0 0 1 2.822059,16.075002 1.3970591,1.3970591 0 0 1 1.4249996,17.47206 Z"
       id="path830" />
  </g>
</svg>
