<?xml version="1.0" encoding="UTF-8" standalone="no"?>
<svg
   xmlns:dc="http://purl.org/dc/elements/1.1/"
   xmlns:cc="http://creativecommons.org/ns#"
   xmlns:rdf="http://www.w3.org/1999/02/22-rdf-syntax-ns#"
   xmlns:svg="http://www.w3.org/2000/svg"
   xmlns="http://www.w3.org/2000/svg"
   xmlns:sodipodi="http://sodipodi.sourceforge.net/DTD/sodipodi-0.dtd"
   xmlns:inkscape="http://www.inkscape.org/namespaces/inkscape"
   id="svg8"
   version="1.1"
   viewBox="0 0 21 32.000002"
   height="32mm"
   width="21mm"
   sodipodi:docname="buttonMount.plain.svg"
   inkscape:version="0.92.3 (2405546, 2018-03-11)">
  <sodipodi:namedview
     pagecolor="#ffffff"
     bordercolor="#666666"
     borderopacity="1"
     objecttolerance="10"
     gridtolerance="10"
     guidetolerance="10"
     inkscape:pageopacity="0"
     inkscape:pageshadow="2"
     inkscape:window-width="1015"
     inkscape:window-height="480"
     id="namedview11"
     showgrid="false"
     inkscape:window-x="0"
     inkscape:window-y="1"
     inkscape:window-maximized="0"
     inkscape:current-layer="svg8" />
  <defs
     id="defs2" />
  <metadata
     id="metadata5">
    <rdf:RDF>
      <cc:Work
         rdf:about="">
        <dc:format>image/svg+xml</dc:format>
        <dc:type
           rdf:resource="http://purl.org/dc/dcmitype/StillImage" />
        <dc:title></dc:title>
      </cc:Work>
    </rdf:RDF>
  </metadata>
  <path
     id="rect812"
     d="M 0.65435,15.26085 V 0.307 l 19.75384,0 v 14.95385 l -8.35953,0.0115 0.008,-6.48846 h -3.05 l -0.007,6.48846 z"
     style="opacity:0.98000004;fill:none;fill-opacity:1;stroke:#000000;stroke-width:0.24615853;stroke-miterlimit:3.98765421;stroke-dasharray:none;stroke-opacity:1"
     inkscape:connector-curvature="0" />
  <path
     style="opacity:0.98000004;fill:none;fill-opacity:1;stroke:#000000;stroke-width:0.2;stroke-miterlimit:3.98765421;stroke-dasharray:none;stroke-opacity:1"
     d="m 4.28128,6.47369 a 2.5,2.5 0 0 1 -2.5,-2.5 2.5,2.5 0 0 1 2.5,-2.5 2.5,2.5 0 0 1 2.5,2.5 2.5,2.5 0 0 1 -2.5,2.5 z"
     id="circle824"
     inkscape:connector-curvature="0" />
  <path
     style="opacity:0.98000004;fill:none;fill-opacity:1;stroke:#000000;stroke-width:0.2;stroke-miterlimit:3.98765421;stroke-dasharray:none;stroke-opacity:1"
     d="m 16.78128,6.47369 a 2.5,2.5 0 0 1 -2.5,-2.5 2.5,2.5 0 0 1 2.5,-2.5 2.5,2.5 0 0 1 2.5,2.5 2.5,2.5 0 0 1 -2.5,2.5 z"
     id="circle826"
     inkscape:connector-curvature="0" />
  <path
     inkscape:connector-curvature="0"
     style="opacity:0.98000004;fill:none;fill-opacity:1;stroke:#000000;stroke-width:0.2;stroke-miterlimit:3.98765421;stroke-dasharray:none;stroke-opacity:1"
     d="M 13.1,31.89999 H 6.5999999 l -0.00623,-2.9 H 0.1 v -13 h 21 v 13 h -7.995122 z"
     id="rect854" />
</svg>
