<?xml version="1.0" encoding="UTF-8" standalone="no"?>
<svg
   xmlns:dc="http://purl.org/dc/elements/1.1/"
   xmlns:cc="http://creativecommons.org/ns#"
   xmlns:rdf="http://www.w3.org/1999/02/22-rdf-syntax-ns#"
   xmlns:svg="http://www.w3.org/2000/svg"
   xmlns="http://www.w3.org/2000/svg"
   width="22mm"
   height="33mm"
   viewBox="0 0 22 33.000002"
   version="1.1"
   id="svg8">
  <defs
     id="defs2" />
  <metadata
     id="metadata5">
    <rdf:RDF>
      <cc:Work
         rdf:about="">
        <dc:format>image/svg+xml</dc:format>
        <dc:type
           rdf:resource="http://purl.org/dc/dcmitype/StillImage" />
        <dc:title></dc:title>
      </cc:Work>
    </rdf:RDF>
  </metadata>
  <path
     style="opacity:0.98000004;fill:none;fill-opacity:1;stroke:#000000;stroke-width:0.1;stroke-miterlimit:3.98765421;stroke-dasharray:none;stroke-opacity:1"
     d="M 1.0234884,15.989664 V 1.0358136 H 20.777328 V 15.989664 l -8.35953,0.0115 0.008,-6.4884604 H 9.3757984 l -0.007,6.4884604 z"
     id="rect812" />
  <path
     id="circle824"
     d="m 4.6504184,7.2025036 a 2.5,2.5 0 0 1 -2.5,-2.5 2.5,2.5 0 0 1 2.5,-2.5 2.5,2.5 0 0 1 2.5,2.5 2.5,2.5 0 0 1 -2.5,2.5 z"
     style="opacity:0.98000004;fill:none;fill-opacity:1;stroke:#000000;stroke-width:0.1;stroke-miterlimit:3.98765421;stroke-dasharray:none;stroke-opacity:1" />
  <path
     id="circle826"
     d="m 17.150418,7.2025036 a 2.5,2.5 0 0 1 -2.5,-2.5 2.5,2.5 0 0 1 2.5,-2.5 2.5,2.5 0 0 1 2.5,2.5 2.5,2.5 0 0 1 -2.5,2.5 z"
     style="opacity:0.98000004;fill:none;fill-opacity:1;stroke:#000000;stroke-width:0.1;stroke-miterlimit:3.98765421;stroke-dasharray:none;stroke-opacity:1" />
  <path
     id="rect854"
     d="M 13.469138,32.628804 H 6.9691383 l -0.00623,-2.9 H 0.46913843 v -13 H 21.469138 v 13 h -7.995122 z"
     style="opacity:0.98000004;fill:none;fill-opacity:1;stroke:#000000;stroke-width:0.1;stroke-miterlimit:3.98765421;stroke-dasharray:none;stroke-opacity:1" />
  <path
     id="path834"
     d="M 0.57916671,32.685417 A 0.26458335,0.26458335 0 0 1 0.31458336,32.950001 0.26458335,0.26458335 0 0 1 0.05000001,32.685417 0.26458335,0.26458335 0 0 1 0.31458336,32.420834 0.26458335,0.26458335 0 0 1 0.57916671,32.685417 Z"
     style="opacity:0.98000004;fill:none;fill-opacity:1;stroke:#000000;stroke-width:0.1;stroke-miterlimit:3.98765421;stroke-dasharray:none;stroke-opacity:1" />
</svg>
