<?xml version="1.0" encoding="UTF-8" standalone="no"?>
<svg
   xmlns:dc="http://purl.org/dc/elements/1.1/"
   xmlns:cc="http://creativecommons.org/ns#"
   xmlns:rdf="http://www.w3.org/1999/02/22-rdf-syntax-ns#"
   xmlns:svg="http://www.w3.org/2000/svg"
   xmlns="http://www.w3.org/2000/svg"
   xmlns:sodipodi="http://sodipodi.sourceforge.net/DTD/sodipodi-0.dtd"
   xmlns:inkscape="http://www.inkscape.org/namespaces/inkscape"
   id="svg8"
   version="1.1"
   viewBox="0 0 22 33.000002"
   height="33mm"
   width="22mm"
   sodipodi:docname="buttonMount.plain.svg"
   inkscape:version="0.92.3 (2405546, 2018-03-11)">
  <sodipodi:namedview
     pagecolor="#ffffff"
     bordercolor="#666666"
     borderopacity="1"
     objecttolerance="10"
     gridtolerance="10"
     guidetolerance="10"
     inkscape:pageopacity="0"
     inkscape:pageshadow="2"
     inkscape:window-width="1366"
     inkscape:window-height="739"
     id="namedview11"
     showgrid="false"
     inkscape:window-x="0"
     inkscape:window-y="1"
     inkscape:window-maximized="1"
     inkscape:current-layer="svg8" />
  <defs
     id="defs2" />
  <metadata
     id="metadata5">
    <rdf:RDF>
      <cc:Work
         rdf:about="">
        <dc:format>image/svg+xml</dc:format>
        <dc:type
           rdf:resource="http://purl.org/dc/dcmitype/StillImage" />
        <dc:title></dc:title>
      </cc:Work>
    </rdf:RDF>
  </metadata>
  <path
     id="rect812"
     d="M 1.0234884,15.989664 V 1.0358136 H 20.777328 V 15.989664 l -8.35953,0.0115 0.008,-6.4884604 H 9.3757984 l -0.007,6.4884604 z"
     style="opacity:0.98000004;fill:none;fill-opacity:1;stroke:#000000;stroke-width:0.24615853;stroke-miterlimit:3.98765421;stroke-dasharray:none;stroke-opacity:1"
     inkscape:connector-curvature="0" />
  <path
     style="opacity:0.98000004;fill:none;fill-opacity:1;stroke:#000000;stroke-width:0.2;stroke-miterlimit:3.98765421;stroke-dasharray:none;stroke-opacity:1"
     d="m 4.6504184,7.2025036 a 2.5,2.5 0 0 1 -2.5,-2.5 2.5,2.5 0 0 1 2.5,-2.5 2.5,2.5 0 0 1 2.5,2.5 2.5,2.5 0 0 1 -2.5,2.5 z"
     id="circle824"
     inkscape:connector-curvature="0" />
  <path
     style="opacity:0.98000004;fill:none;fill-opacity:1;stroke:#000000;stroke-width:0.2;stroke-miterlimit:3.98765421;stroke-dasharray:none;stroke-opacity:1"
     d="m 17.150418,7.2025036 a 2.5,2.5 0 0 1 -2.5,-2.5 2.5,2.5 0 0 1 2.5,-2.5 2.5,2.5 0 0 1 2.5,2.5 2.5,2.5 0 0 1 -2.5,2.5 z"
     id="circle826"
     inkscape:connector-curvature="0" />
  <path
     inkscape:connector-curvature="0"
     style="opacity:0.98000004;fill:none;fill-opacity:1;stroke:#000000;stroke-width:0.2;stroke-miterlimit:3.98765421;stroke-dasharray:none;stroke-opacity:1"
     d="M 13.469138,32.628804 H 6.9691383 l -0.00623,-2.9 H 0.46913843 v -13 H 21.469138 v 13 h -7.995122 z"
     id="rect854" />
</svg>
