<?xml version="1.0" encoding="UTF-8" standalone="no"?>
<!-- Created with Inkscape (http://www.inkscape.org/) -->

<svg
   xmlns:dc="http://purl.org/dc/elements/1.1/"
   xmlns:cc="http://creativecommons.org/ns#"
   xmlns:rdf="http://www.w3.org/1999/02/22-rdf-syntax-ns#"
   xmlns:svg="http://www.w3.org/2000/svg"
   xmlns="http://www.w3.org/2000/svg"
   xmlns:sodipodi="http://sodipodi.sourceforge.net/DTD/sodipodi-0.dtd"
   xmlns:inkscape="http://www.inkscape.org/namespaces/inkscape"
   width="21mm"
   height="32mm"
   viewBox="0 0 21 32.000002"
   version="1.1"
   id="svg8"
   sodipodi:docname="buttonMount.svg"
   inkscape:version="0.92.3 (2405546, 2018-03-11)">
  <defs
     id="defs2" />
  <sodipodi:namedview
     id="base"
     pagecolor="#737373"
     bordercolor="#666666"
     borderopacity="1.0"
     inkscape:pageopacity="0"
     inkscape:pageshadow="2"
     inkscape:zoom="0.50434028"
     inkscape:cx="864"
     inkscape:cy="576"
     inkscape:document-units="mm"
     inkscape:current-layer="g882"
     showgrid="false"
     units="mm"
     inkscape:pagecheckerboard="false"
     inkscape:window-width="1366"
     inkscape:window-height="739"
     inkscape:window-x="0"
     inkscape:window-y="1"
     inkscape:window-maximized="1"
     inkscape:snap-global="false" />
  <metadata
     id="metadata5">
    <rdf:RDF>
      <cc:Work
         rdf:about="">
        <dc:format>image/svg+xml</dc:format>
        <dc:type
           rdf:resource="http://purl.org/dc/dcmitype/StillImage" />
        <dc:title></dc:title>
      </cc:Work>
    </rdf:RDF>
  </metadata>
  <g
     inkscape:label="Layer 1"
     inkscape:groupmode="layer"
     id="layer1"
     transform="translate(0,-264.99998)">
    <g
       id="g882"
       transform="rotate(90,8.257778,272.82522)">
      <g
         transform="translate(-131.48595,198.13368)"
         id="g848">
        <path
           sodipodi:nodetypes="ccccccccc"
           inkscape:connector-curvature="0"
           id="rect812"
           d="M 147.17934,82.294968 H 132.22549 V 62.541126 h 14.95385 l 0.0115,8.359536 -6.48846,-0.0076 v 3.049999 l 6.48846,0.0073 z"
           style="opacity:0.98000004;fill:none;fill-opacity:1;stroke:#000000;stroke-width:0.24615853;stroke-miterlimit:3.98765421;stroke-dasharray:none;stroke-opacity:1" />
        <g
           id="g830"
           transform="translate(9.9621772,-215.73192)">
          <path
             inkscape:connector-curvature="0"
             id="circle824"
             d="m 128.43,294.39996 a 2.5,2.5 0 0 1 -2.5,2.5 2.5,2.5 0 0 1 -2.5,-2.5 2.5,2.5 0 0 1 2.5,-2.5 2.5,2.5 0 0 1 2.5,2.5 z"
             style="opacity:0.98000004;fill:none;fill-opacity:1;stroke:#000000;stroke-width:0.2;stroke-miterlimit:3.98765421;stroke-dasharray:none;stroke-opacity:1" />
          <path
             inkscape:connector-curvature="0"
             id="circle826"
             d="m 128.43,281.89996 a 2.5,2.5 0 0 1 -2.5,2.5 2.5,2.5 0 0 1 -2.5,-2.5 2.5,2.5 0 0 1 2.5,-2.5 2.5,2.5 0 0 1 2.5,2.5 z"
             style="opacity:0.98000004;fill:none;fill-opacity:1;stroke:#000000;stroke-width:0.2;stroke-miterlimit:3.98765421;stroke-dasharray:none;stroke-opacity:1" />
        </g>
      </g>
    </g>
    <path
       style="opacity:0.98000004;fill:none;fill-opacity:1;stroke:#000000;stroke-width:0.2;stroke-miterlimit:3.98765421;stroke-dasharray:none;stroke-opacity:1"
       d="M 13.1,296.89997 H 6.5999999 l -0.00623,-2.9 H 0.1 v -13 h 21 v 13 h -7.995122 z"
       id="rect854"
       inkscape:connector-curvature="0"
       sodipodi:nodetypes="ccccccccc" />
  </g>
</svg>
