<?xml version="1.0" encoding="UTF-8" standalone="no"?>
<svg
   xmlns:dc="http://purl.org/dc/elements/1.1/"
   xmlns:cc="http://creativecommons.org/ns#"
   xmlns:rdf="http://www.w3.org/1999/02/22-rdf-syntax-ns#"
   xmlns:svg="http://www.w3.org/2000/svg"
   xmlns="http://www.w3.org/2000/svg"
   id="svg8"
   version="1.1"
   viewBox="0 0 21 32.000002"
   height="32mm"
   width="21mm">
  <defs
     id="defs2" />
  <metadata
     id="metadata5">
    <rdf:RDF>
      <cc:Work
         rdf:about="">
        <dc:format>image/svg+xml</dc:format>
        <dc:type
           rdf:resource="http://purl.org/dc/dcmitype/StillImage" />
        <dc:title></dc:title>
      </cc:Work>
    </rdf:RDF>
  </metadata>
  <g
     transform="translate(0,-264.99998)"
     id="layer1">
    <g
       transform="rotate(90,8.257778,272.82522)"
       id="g882">
      <path
         id="rect812"
         d="M 15.69339,280.42865 H 0.73954 v -19.75384 h 14.95385 l 0.0115,8.35953 -6.48846,-0.008 v 3.05 l 6.48846,0.007 z"
         style="opacity:0.98000004;fill:none;fill-opacity:1;stroke:#000000;stroke-width:0.24615853;stroke-miterlimit:3.98765421;stroke-dasharray:none;stroke-opacity:1" />
      <path
         style="opacity:0.98000004;fill:none;fill-opacity:1;stroke:#000000;stroke-width:0.2;stroke-miterlimit:3.98765421;stroke-dasharray:none;stroke-opacity:1"
         d="m 6.90623,276.80172 a 2.5,2.5 0 0 1 -2.5,2.5 2.5,2.5 0 0 1 -2.5,-2.5 2.5,2.5 0 0 1 2.5,-2.5 2.5,2.5 0 0 1 2.5,2.5 z"
         id="circle824" />
      <path
         style="opacity:0.98000004;fill:none;fill-opacity:1;stroke:#000000;stroke-width:0.2;stroke-miterlimit:3.98765421;stroke-dasharray:none;stroke-opacity:1"
         d="m 6.90623,264.30172 a 2.5,2.5 0 0 1 -2.5,2.5 2.5,2.5 0 0 1 -2.5,-2.5 2.5,2.5 0 0 1 2.5,-2.5 2.5,2.5 0 0 1 2.5,2.5 z"
         id="circle826" />
    </g>
    <path
       id="rect854"
       d="M 13.1,296.89997 H 6.5999999 l -0.00623,-2.9 H 0.1 v -13 h 21 v 13 h -7.995122 z"
       style="opacity:0.98000004;fill:none;fill-opacity:1;stroke:#000000;stroke-width:0.2;stroke-miterlimit:3.98765421;stroke-dasharray:none;stroke-opacity:1" />
  </g>
</svg>
