<?xml version="1.0" encoding="UTF-8" standalone="no"?>
<svg
   xmlns:dc="http://purl.org/dc/elements/1.1/"
   xmlns:cc="http://creativecommons.org/ns#"
   xmlns:rdf="http://www.w3.org/1999/02/22-rdf-syntax-ns#"
   xmlns:svg="http://www.w3.org/2000/svg"
   xmlns="http://www.w3.org/2000/svg"
   xmlns:sodipodi="http://sodipodi.sourceforge.net/DTD/sodipodi-0.dtd"
   xmlns:inkscape="http://www.inkscape.org/namespaces/inkscape"
   width="578mm"
   height="74mm"
   viewBox="0 0 2048.0315 262.20472"
   id="svg2"
   version="1.1"
   inkscape:version="0.91 r13725"
   sodipodi:docname="CutTwo.svg">
  <sodipodi:namedview
     pagecolor="#ffffff"
     bordercolor="#666666"
     borderopacity="1"
     objecttolerance="10"
     gridtolerance="10"
     guidetolerance="10"
     inkscape:pageopacity="0"
     inkscape:pageshadow="2"
     inkscape:window-width="1366"
     inkscape:window-height="744"
     id="namedview21"
     showgrid="false"
     inkscape:zoom="2.3183237"
     inkscape:cx="2142.6163"
     inkscape:cy="92.998233"
     inkscape:window-x="0"
     inkscape:window-y="1"
     inkscape:window-maximized="1"
     inkscape:current-layer="svg2" />
  <defs
     id="defs4" />
  <metadata
     id="metadata7">
    <rdf:RDF>
      <cc:Work
         rdf:about="">
        <dc:format>image/svg+xml</dc:format>
        <dc:type
           rdf:resource="http://purl.org/dc/dcmitype/StillImage" />
        <dc:title></dc:title>
      </cc:Work>
    </rdf:RDF>
  </metadata>
  <path
     id="path4210"
     d="m 293.54013,17.427978 -7.62754,-0.0146 c 0,0 -12.84332,1.4076 -12.84332,17.93 l 0,3.34904 c 0,2.1889 2.27334,1.89301 2.27334,1.89301 l 17.47037,-0.22287 c 1.55955,0 3.58995,-1.52844 3.58995,-3.50897 l -0.11856,-17.074 c 0,0 -0.26158,-2.34681 -2.74424,-2.35157 z"
     style="opacity:1;fill:none;fill-rule:evenodd;stroke:#000000;stroke-width:0.17863974;stroke-linecap:butt;stroke-linejoin:miter;stroke-miterlimit:4;stroke-dasharray:none;stroke-opacity:1"
     inkscape:connector-curvature="0" />
  <path
     id="rect4181-3"
     d="m 487.85016,7.1748275 -203.2827,0 c -12.33947,0 -22.27342,9.9349305 -22.27342,22.2755705 l 0,203.302592 c 0,12.3406 7.65235,22.2756 19.99182,22.2756 l 184.75559,0 c 2.93175,-3.0774 -0.0232,-18.2649 9.03757,-19.4008 8.84254,-0.8361 6.512,19.4008 13.74298,19.4008 16.79999,-0.2536 20.30156,-5.2479 20.30156,-19.7658 0,-7.4427 -16.65204,-7.0886 -16.65204,-15.1806 0,-7.1321 16.65204,-6.1006 16.65204,-10.4832 l 0,-58.96339 c 0,0 0.48634,-3.88591 -2.99778,-4.08794 l -26.21474,-1.52001 c 0,0 -4.53951,-0.65929 -4.53951,-5.76068 l 0,-19.0547 c 0,-4.3443 4.81567,-4.65698 4.81567,-4.65698 l 25.04923,-1.36511 c 3.90908,-0.10764 3.88713,-3.58528 3.88713,-3.58528 l 0,-81.154502 c 0,-12.34064 -9.93393,-22.2755705 -22.2734,-22.2755705 z"
     style="opacity:1;fill:none;stroke:#000000;stroke-width:0.17863974;stroke-linejoin:round;stroke-miterlimit:4;stroke-dasharray:none;stroke-opacity:1"
     inkscape:connector-curvature="0" />
  <path
     id="path4210-5"
     d="m 38.424324,17.427998 -7.628292,-0.0146 c 0,0 -12.8446,1.4076 -12.8446,17.93007 l 0,3.34906 c 0,2.1889 2.273569,1.89301 2.273569,1.89301 l 17.472109,-0.22287 c 1.559702,0 3.590301,-1.52845 3.590301,-3.50899 L 41.16884,19.779618 c 0,0 -0.26161,-2.34682 -2.744516,-2.35158 z"
     style="opacity:1;fill:none;fill-rule:evenodd;stroke:#000000;stroke-width:0.17704143;stroke-linecap:butt;stroke-linejoin:miter;stroke-miterlimit:4;stroke-dasharray:none;stroke-opacity:1"
     inkscape:connector-curvature="0" />
  <path
     id="rect4181-3-3"
     d="m 232.75365,7.1748075 -203.30288,0 c -12.340697,0 -22.2756351,9.9349605 -22.2756351,22.2756605 l 0,180.720922 c 0,7.9287 8.2930271,6.829 8.2930271,6.829 l 20.273021,-0.115 c 12.38797,-0.07 12.0902,8.1389 12.050798,20.4322 l -0.03263,10.1808 c 0,0 0.928306,7.5312 6.818727,7.5312 l 157.364792,0 c 2.93204,-3.0774 -0.0232,-18.265 9.03847,-19.401 8.84341,-0.836 6.51264,19.401 13.74434,19.401 16.80166,-0.2537 20.30358,-5.2479 20.30358,-19.7659 0,-7.4427 -16.6537,-7.0886 -16.6537,-15.1807 0,-7.1321 16.6537,-6.1006 16.6537,-10.4832 l 0,-180.149322 c 0,-12.3407 -9.93492,-22.2756605 -22.27562,-22.2756605 z"
     style="opacity:1;fill:none;stroke:#000000;stroke-width:0.17704143;stroke-linejoin:round;stroke-miterlimit:4;stroke-dasharray:none;stroke-opacity:1"
     inkscape:connector-curvature="0" />
  <path
     style="opacity:1;fill:none;fill-rule:evenodd;stroke:#000000;stroke-width:0.17863974;stroke-linecap:butt;stroke-linejoin:miter;stroke-miterlimit:4;stroke-dasharray:none;stroke-opacity:1"
     d="m 803.77635,17.427978 -7.62753,-0.0146 c 0,0 -12.84332,1.4076 -12.84332,17.93 l 0,3.34904 c 0,2.1889 2.27334,1.89301 2.27334,1.89301 l 17.47037,-0.22287 c 1.55954,0 3.58995,-1.52844 3.58995,-3.50897 l -0.11856,-17.074 c 0,0 -0.26158,-2.34681 -2.74424,-2.35157 z"
     id="path3340"
     inkscape:connector-curvature="0" />
  <path
     style="opacity:1;fill:none;stroke:#000000;stroke-width:0.17863974;stroke-linejoin:round;stroke-miterlimit:4;stroke-dasharray:none;stroke-opacity:1"
     d="m 998.08639,7.1748275 -203.2827,0 c -12.33947,0 -22.27342,9.9349305 -22.27342,22.2755705 l 0,203.302592 c 0,12.3406 7.65235,22.2756 19.99182,22.2756 l 184.75559,0 c 2.93174,-3.0774 -0.0232,-18.2649 9.03756,-19.4008 8.84254,-0.8361 6.512,19.4008 13.74296,19.4008 16.8,-0.2536 20.3016,-5.2479 20.3016,-19.7658 0,-7.4427 -16.6521,-7.0886 -16.6521,-15.1806 0,-7.1321 16.6521,-6.1006 16.6521,-10.4832 l 0,-58.96339 c 0,0 0.4863,-3.88591 -2.9978,-4.08794 l -26.21474,-1.52001 c 0,0 -4.53951,-0.65929 -4.53951,-5.76068 l 0,-19.0547 c 0,-4.3443 4.81567,-4.65698 4.81567,-4.65698 l 25.04928,-1.36511 c 3.909,-0.10764 3.8871,-3.58528 3.8871,-3.58528 l 0,-81.154502 c 0,-12.34064 -9.9339,-22.2755705 -22.27342,-22.2755705 z"
     id="path3342"
     inkscape:connector-curvature="0" />
  <path
     style="opacity:1;fill:none;fill-rule:evenodd;stroke:#000000;stroke-width:0.17704143;stroke-linecap:butt;stroke-linejoin:miter;stroke-miterlimit:4;stroke-dasharray:none;stroke-opacity:1"
     d="m 548.66054,17.427998 -7.62829,-0.0146 c 0,0 -12.8446,1.4076 -12.8446,17.93007 l 0,3.34906 c 0,2.1889 2.27356,1.89301 2.27356,1.89301 l 17.47211,-0.22287 c 1.55971,0 3.5903,-1.52845 3.5903,-3.50899 l -0.11857,-17.07406 c 0,0 -0.26161,-2.34682 -2.74451,-2.35158 z"
     id="path3344"
     inkscape:connector-curvature="0" />
  <path
     style="opacity:1;fill:none;stroke:#000000;stroke-width:0.17704143;stroke-linejoin:round;stroke-miterlimit:4;stroke-dasharray:none;stroke-opacity:1"
     d="m 742.98986,7.1748075 -203.30287,0 c -12.34069,0 -22.27563,9.9349605 -22.27563,22.2756605 l 0,180.720922 c 0,7.9287 8.29302,6.829 8.29302,6.829 l 20.27303,-0.115 c 12.38797,-0.07 12.0902,8.1389 12.05079,20.4322 l -0.0326,10.1808 c 0,0 0.92831,7.5312 6.81873,7.5312 l 157.36479,0 c 2.93204,-3.0774 -0.0232,-18.265 9.03846,-19.401 8.84341,-0.836 6.51265,19.401 13.74434,19.401 16.80166,-0.2537 20.30358,-5.2479 20.30358,-19.7659 0,-7.4427 -16.6537,-7.0886 -16.6537,-15.1807 0,-7.1321 16.6537,-6.1006 16.6537,-10.4832 l 0,-180.149322 c 0,-12.3407 -9.93492,-22.2756605 -22.27562,-22.2756605 z"
     id="path3346"
     inkscape:connector-curvature="0" />
  <path
     style="opacity:1;fill:none;fill-rule:evenodd;stroke:#000000;stroke-width:0.17863974;stroke-linecap:butt;stroke-linejoin:miter;stroke-miterlimit:4;stroke-dasharray:none;stroke-opacity:1"
     d="m 1314.0126,17.427978 -7.6276,-0.0146 c 0,0 -12.8433,1.4076 -12.8433,17.93 l 0,3.34904 c 0,2.1889 2.2734,1.89301 2.2734,1.89301 l 17.4703,-0.22287 c 1.5596,0 3.59,-1.52844 3.59,-3.50897 l -0.1186,-17.074 c 0,0 -0.2616,-2.34681 -2.7442,-2.35157 z"
     id="path3360"
     inkscape:connector-curvature="0" />
  <path
     style="opacity:1;fill:none;stroke:#000000;stroke-width:0.17863974;stroke-linejoin:round;stroke-miterlimit:4;stroke-dasharray:none;stroke-opacity:1"
     d="m 1508.3226,7.1748275 -203.2827,0 c -12.3395,0 -22.2734,9.9349305 -22.2734,22.2755705 l 0,203.302592 c 0,12.3406 7.6523,22.2756 19.9918,22.2756 l 184.7556,0 c 2.9318,-3.0774 -0.023,-18.2649 9.0376,-19.4008 8.8425,-0.8361 6.512,19.4008 13.743,19.4008 16.7999,-0.2536 20.3015,-5.2479 20.3015,-19.7658 0,-7.4427 -16.652,-7.0886 -16.652,-15.1806 0,-7.1321 16.652,-6.1006 16.652,-10.4832 l 0,-58.96339 c 0,0 0.4864,-3.88591 -2.9978,-4.08794 l -26.2147,-1.52001 c 0,0 -4.5395,-0.65929 -4.5395,-5.76068 l 0,-19.0547 c 0,-4.3443 4.8157,-4.65698 4.8157,-4.65698 l 25.0492,-1.36511 c 3.9091,-0.10764 3.8871,-3.58528 3.8871,-3.58528 l 0,-81.154502 c 0,-12.34064 -9.9339,-22.2755705 -22.2734,-22.2755705 z"
     id="path3362"
     inkscape:connector-curvature="0" />
  <path
     style="opacity:1;fill:none;fill-rule:evenodd;stroke:#000000;stroke-width:0.17704143;stroke-linecap:butt;stroke-linejoin:miter;stroke-miterlimit:4;stroke-dasharray:none;stroke-opacity:1"
     d="m 1058.8967,17.427998 -7.6283,-0.0146 c 0,0 -12.8446,1.4076 -12.8446,17.93007 l 0,3.34906 c 0,2.1889 2.2736,1.89301 2.2736,1.89301 l 17.4721,-0.22287 c 1.5597,0 3.5903,-1.52845 3.5903,-3.50899 l -0.1186,-17.07406 c 0,0 -0.2616,-2.34682 -2.7445,-2.35158 z"
     id="path3364"
     inkscape:connector-curvature="0" />
  <path
     style="opacity:1;fill:none;stroke:#000000;stroke-width:0.17704143;stroke-linejoin:round;stroke-miterlimit:4;stroke-dasharray:none;stroke-opacity:1"
     d="m 1253.226,7.1748075 -203.3029,0 c -12.3407,0 -22.2755,9.9349605 -22.2755,22.2756605 l 0,180.720922 c 0,7.9287 8.2929,6.829 8.2929,6.829 l 20.2731,-0.115 c 12.3879,-0.07 12.0902,8.1389 12.0508,20.4322 l -0.033,10.1808 c 0,0 0.9283,7.5312 6.8188,7.5312 l 157.3647,0 c 2.9321,-3.0774 -0.023,-18.265 9.0385,-19.401 8.8434,-0.836 6.5127,19.401 13.7444,19.401 16.8016,-0.2537 20.3035,-5.2479 20.3035,-19.7659 0,-7.4427 -16.6537,-7.0886 -16.6537,-15.1807 0,-7.1321 16.6537,-6.1006 16.6537,-10.4832 l 0,-180.149322 c 0,-12.3407 -9.9349,-22.2756605 -22.2756,-22.2756605 z"
     id="path3366"
     inkscape:connector-curvature="0" />
  <path
     id="path3370"
     d="m 1824.2488,17.427978 -7.6276,-0.0146 c 0,0 -12.8433,1.4076 -12.8433,17.93 l 0,3.34904 c 0,2.1889 2.2734,1.89301 2.2734,1.89301 l 17.4703,-0.22287 c 1.5596,0 3.59,-1.52844 3.59,-3.50897 l -0.1186,-17.074 c 0,0 -0.2616,-2.34681 -2.7442,-2.35157 z"
     style="opacity:1;fill:none;fill-rule:evenodd;stroke:#000000;stroke-width:0.17863974;stroke-linecap:butt;stroke-linejoin:miter;stroke-miterlimit:4;stroke-dasharray:none;stroke-opacity:1"
     inkscape:connector-curvature="0" />
  <path
     id="path3372"
     d="m 2018.5588,7.1748275 -203.2827,0 c -12.3395,0 -22.2734,9.9349305 -22.2734,22.2755705 l 0,203.302592 c 0,12.3406 7.6523,22.2756 19.9918,22.2756 l 184.7556,0 c 2.9317,-3.0774 -0.023,-18.2649 9.0376,-19.4008 8.8425,-0.8361 6.512,19.4008 13.7429,19.4008 16.8,-0.2536 20.3016,-5.2479 20.3016,-19.7658 0,-7.4427 -16.652,-7.0886 -16.652,-15.1806 0,-7.1321 16.652,-6.1006 16.652,-10.4832 l 0,-58.96339 c 0,0 0.4863,-3.88591 -2.9978,-4.08794 l -26.2147,-1.52001 c 0,0 -4.5395,-0.65929 -4.5395,-5.76068 l 0,-19.0547 c 0,-4.3443 4.8156,-4.65698 4.8156,-4.65698 l 25.0493,-1.36511 c 3.9091,-0.10764 3.8871,-3.58528 3.8871,-3.58528 l 0,-81.154502 c 0,-12.34064 -9.9339,-22.2755705 -22.2734,-22.2755705 z"
     style="opacity:1;fill:none;stroke:#000000;stroke-width:0.17863974;stroke-linejoin:round;stroke-miterlimit:4;stroke-dasharray:none;stroke-opacity:1"
     inkscape:connector-curvature="0" />
  <path
     id="path3374"
     d="m 1569.133,17.427998 -7.6283,-0.0146 c 0,0 -12.8446,1.4076 -12.8446,17.93007 l 0,3.34906 c 0,2.1889 2.2736,1.89301 2.2736,1.89301 l 17.4721,-0.22287 c 1.5597,0 3.5903,-1.52845 3.5903,-3.50899 l -0.1186,-17.07406 c 0,0 -0.2616,-2.34682 -2.7445,-2.35158 z"
     style="opacity:1;fill:none;fill-rule:evenodd;stroke:#000000;stroke-width:0.17704143;stroke-linecap:butt;stroke-linejoin:miter;stroke-miterlimit:4;stroke-dasharray:none;stroke-opacity:1"
     inkscape:connector-curvature="0" />
  <path
     id="path3376"
     d="m 1763.4623,7.1748075 -203.3029,0 c -12.3407,0 -22.2756,9.9349605 -22.2756,22.2756605 l 0,180.720922 c 0,7.9287 8.293,6.829 8.293,6.829 l 20.273,-0.115 c 12.388,-0.07 12.0902,8.1389 12.0508,20.4322 l -0.033,10.1808 c 0,0 0.9283,7.5312 6.8187,7.5312 l 157.3648,0 c 2.9321,-3.0774 -0.023,-18.265 9.0385,-19.401 8.8434,-0.836 6.5126,19.401 13.7443,19.401 16.8017,-0.2537 20.3036,-5.2479 20.3036,-19.7659 0,-7.4427 -16.6537,-7.0886 -16.6537,-15.1807 0,-7.1321 16.6537,-6.1006 16.6537,-10.4832 l 0,-180.149322 c 0,-12.3407 -9.9349,-22.2756605 -22.2756,-22.2756605 z"
     style="opacity:1;fill:none;stroke:#000000;stroke-width:0.17704143;stroke-linejoin:round;stroke-miterlimit:4;stroke-dasharray:none;stroke-opacity:1"
     inkscape:connector-curvature="0" />
  <rect
     style="fill:none;fill-opacity:1;stroke:#000000;stroke-width:0.35433072;stroke-linecap:round;stroke-miterlimit:4;stroke-dasharray:none;stroke-opacity:1"
     id="rect4148"
     width="2048.0315"
     height="262.20471"
     x="0.17716536"
     y="-0.17715286" />
</svg>
