<?xml version="1.0" encoding="UTF-8" standalone="no"?>
<!-- Created with Inkscape (http://www.inkscape.org/) -->

<svg
   xmlns:dc="http://purl.org/dc/elements/1.1/"
   xmlns:cc="http://creativecommons.org/ns#"
   xmlns:rdf="http://www.w3.org/1999/02/22-rdf-syntax-ns#"
   xmlns:svg="http://www.w3.org/2000/svg"
   xmlns="http://www.w3.org/2000/svg"
   xmlns:sodipodi="http://sodipodi.sourceforge.net/DTD/sodipodi-0.dtd"
   xmlns:inkscape="http://www.inkscape.org/namespaces/inkscape"
   width="450mm"
   height="300mm"
   viewBox="0 0 450 300.00001"
   version="1.1"
   id="svg8"
   sodipodi:docname="moms-keychain.svg"
   inkscape:version="0.92.3 (2405546, 2018-03-11)">
  <defs
     id="defs2" />
  <sodipodi:namedview
     id="base"
     pagecolor="#737373"
     bordercolor="#666666"
     borderopacity="1.0"
     inkscape:pageopacity="0"
     inkscape:pageshadow="2"
     inkscape:zoom="0.50434028"
     inkscape:cx="864"
     inkscape:cy="576"
     inkscape:document-units="mm"
     inkscape:current-layer="layer1"
     showgrid="false"
     units="mm"
     inkscape:pagecheckerboard="false"
     inkscape:window-width="1366"
     inkscape:window-height="739"
     inkscape:window-x="0"
     inkscape:window-y="1"
     inkscape:window-maximized="1"
     inkscape:snap-global="false" />
  <metadata
     id="metadata5">
    <rdf:RDF>
      <cc:Work
         rdf:about="">
        <dc:format>image/svg+xml</dc:format>
        <dc:type
           rdf:resource="http://purl.org/dc/dcmitype/StillImage" />
        <dc:title></dc:title>
      </cc:Work>
    </rdf:RDF>
  </metadata>
  <g
     inkscape:label="Layer 1"
     inkscape:groupmode="layer"
     id="layer1"
     transform="translate(0,3.0000244)">
    <g
       id="g821"
       transform="translate(-61.383333,-23.283333)">
      <path
         sodipodi:nodetypes="cccc"
         d="m 134.72302,105.02528 c 0,0 -1.02261,4.16817 -1.90614,7.17516 l -6.34965,1.35623 z"
         style="font-style:normal;font-variant:normal;font-weight:normal;font-stretch:normal;font-size:medium;line-height:1.25;font-family:Vespa;-inkscape-font-specification:Vespa;letter-spacing:0px;word-spacing:0px;fill:none;fill-opacity:1;stroke:#000000;stroke-width:0.2;stroke-miterlimit:4;stroke-dasharray:none;stroke-opacity:1"
         id="path837"
         inkscape:connector-curvature="0" />
      <path
         style="font-style:normal;font-variant:normal;font-weight:normal;font-stretch:normal;font-size:medium;line-height:1.25;font-family:Vespa;-inkscape-font-specification:Vespa;letter-spacing:0px;word-spacing:0px;fill:none;fill-opacity:1;stroke:#000000;stroke-width:0.2;stroke-miterlimit:4;stroke-dasharray:none;stroke-opacity:1"
         d="m 115.04965,105.61973 -5.52986,0.73444 0.54387,-3.75349 6.95469,-1.21335 2.2225,-6.890302 -9.97315,2.035873 1.54722,-5.28884 c 9.73852,-0.991078 14.09017,-1.295358 22.35708,-4.355277 2.18288,-0.973999 3.5436,-1.470914 4.08215,-1.490736 0.28542,0.324319 0.50522,0.689492 0.52376,1.043852 0.0143,0.389038 -1.25323,1.165947 -2.94076,4.164326 0.0102,0.276962 -3.54039,1.139521 -10.65177,2.587677 l -2.29978,7.284507 0.30345,0.0813 8.38533,-1.371771 0.31449,0.381324 c -0.37254,1.193967 -1.11277,2.369717 -1.71149,3.499447 l -8.68492,1.87186 c -1.60219,3.82486 -3.73165,7.42085 -5.69072,11.16572 l 7.87889,-1.77092 c 4.3482,-4.63528 12.58258,-13.45945 12.58258,-13.45945 l 0.98518,-4.098004 3.61371,0.381235 -0.0253,2.239019 c 0,0 6.23825,-3.982271 8.50107,-3.295786 2.26282,0.686485 3.77162,2.207157 2.91231,4.150556 -0.44322,0.90687 -1.21908,1.66175 -2.06102,2.21853 -0.47838,0.31636 -1.05072,0.66584 -1.6184,0.58414 -1.06077,-0.1527 -1.53128,-1.75807 -2.59352,-1.90019 -1.57059,-0.21014 -4.43837,1.70265 -4.43837,1.70265 -1.00907,0.73884 -1.61615,1.97441 -1.61615,1.97441 -0.87,1.75337 -1.6058,4.70096 -1.99331,6.49119 l 2.55962,-0.53277 4.65149,-1.59441 11.56237,-8.65618 c 0.23702,-4.162963 4.51929,-5.845316 4.51929,-5.845316 6.58234,-2.815413 9.60586,3.670203 9.60586,3.670203 l -6.15725,5.622443 c 2.16485,1.16251 4.17191,-0.38502 4.17191,-0.38502 0,0 4.5054,-4.247487 6.61284,-6.678581 0,0 -0.24823,-1.868657 0.012,-2.746347 0.49959,-1.684934 1.10333,-2.656257 2.85451,-4.432728 0.72344,-0.662352 1.82441,-1.218774 3.30292,-1.669269 1.06148,-0.323432 2.34176,-0.382085 3.8408,-0.175959 0.18676,-0.112162 0.23396,-0.319884 0.14156,-0.623159 0.0713,-5.476666 0.14382,-8.343591 0.21732,-8.600771 l 3.47773,-1.639721 c 0.27583,-0.0012 0.45611,0.137225 0.54081,0.415231 0.36467,9.763012 0.62402,14.897252 0.77804,15.402724 l 0.16171,0.53074 c 0.41975,1.377647 1.20439,2.124209 2.24429,2.402702 0.0362,0.0097 0.11552,0.01893 0.23947,0.02463 0.31327,0.01449 0.91146,0.0068 1.81776,-0.07145 l 0.29025,0.408719 c 0.0269,1.856132 -0.0414,2.878186 -0.20507,3.066151 l -0.4836,0.381251 11.12404,-2.124673 0.47809,2.97453 -112.413757,24.20159 c 1.687,-1.59134 2.21064,-4.50057 2.21064,-4.50057 l 13.545057,-2.81041 c 2.33235,-3.51547 6.41954,-11.71752 6.41954,-11.71752 z"
         id="path835"
         inkscape:connector-curvature="0"
         sodipodi:nodetypes="cccccccccccccccccccccccczcaaacsccccccccacscccccscssscccccccccc" />
      <path
         sodipodi:nodetypes="cccccccccccccccccccc"
         style="fill:none;fill-opacity:1;stroke:#000000;stroke-width:0.2;stroke-miterlimit:4;stroke-dasharray:none;stroke-opacity:1"
         inkscape:connector-curvature="0"
         d="m 163.24882,99.021928 c 1.18588,-0.267393 1.75401,0.536642 1.75401,0.536642 l -3.13431,2.83893 c -1.53633,-1.67267 0.37703,-2.93597 0.46375,-2.987277 0.3397,-0.199208 0.64288,-0.32658 0.91655,-0.388291 z m 23.31658,1.914962 c 0.47617,-0.56197 0.92652,-1.098937 1.51326,-1.791909 1.05844,0.333762 1.23274,0.821962 2.32231,1.038369 z m -15.97057,3.25289 4.81923,-3.48869 c 0,0 0.88333,1.23282 1.52526,1.58929 0.28716,0.15946 0.66094,0.29324 1.20471,0.39769 z m -14.49901,-0.97527 c 1.50204,2.79271 5.2107,2.9787 5.2107,2.9787 l -12.76314,2.61357 7.55244,-5.59228 z"
         id="path824" />
      <path
         id="ellipse876"
         d="m -161.04634,109.39438 a 2.3043985,2.0916271 0 0 1 -2.3044,2.09163 2.3043985,2.0916271 0 0 1 -2.3044,-2.09163 2.3043985,2.0916271 0 0 1 2.3044,-2.09163 2.3043985,2.0916271 0 0 1 2.3044,2.09163 z"
         style="opacity:0.98000004;fill:none;fill-opacity:1;stroke:#000000;stroke-width:0.20054124;stroke-miterlimit:4;stroke-dasharray:none;stroke-opacity:1"
         transform="matrix(-0.50701825,-0.86193532,0.90986298,-0.41490886,0,0)"
         inkscape:connector-curvature="0" />
    </g>
    <g
       id="g831"
       transform="translate(184.67067,16.198146)">
      <path
         inkscape:connector-curvature="0"
         id="path823"
         style="font-style:normal;font-variant:normal;font-weight:normal;font-stretch:normal;font-size:medium;line-height:1.25;font-family:Vespa;-inkscape-font-specification:Vespa;letter-spacing:0px;word-spacing:0px;fill:none;fill-opacity:1;stroke:#000000;stroke-width:0.2;stroke-miterlimit:4;stroke-dasharray:none;stroke-opacity:1"
         d="m 134.72302,105.02528 c 0,0 -1.02261,4.16817 -1.90614,7.17516 l -6.34965,1.35623 z"
         sodipodi:nodetypes="cccc" />
      <path
         sodipodi:nodetypes="cccccccccccccccccccccccczcaaacsccccccccacscccccscssscccccccccc"
         inkscape:connector-curvature="0"
         id="path825"
         d="m 115.04965,105.61973 -5.52986,0.73444 0.54387,-3.75349 6.95469,-1.21335 2.2225,-6.890302 -9.97315,2.035873 1.54722,-5.28884 c 9.73852,-0.991078 14.09017,-1.295358 22.35708,-4.355277 2.18288,-0.973999 3.5436,-1.470914 4.08215,-1.490736 0.28542,0.324319 0.50522,0.689492 0.52376,1.043852 0.0143,0.389038 -1.25323,1.165947 -2.94076,4.164326 0.0102,0.276962 -3.54039,1.139521 -10.65177,2.587677 l -2.29978,7.284507 0.30345,0.0813 8.38533,-1.371771 0.31449,0.381324 c -0.37254,1.193967 -1.11277,2.369717 -1.71149,3.499447 l -8.68492,1.87186 c -1.60219,3.82486 -3.73165,7.42085 -5.69072,11.16572 l 7.87889,-1.77092 c 4.3482,-4.63528 12.58258,-13.45945 12.58258,-13.45945 l 0.98518,-4.098004 3.61371,0.381235 -0.0253,2.239019 c 0,0 6.23825,-3.982271 8.50107,-3.295786 2.26282,0.686485 3.77162,2.207157 2.91231,4.150556 -0.44322,0.90687 -1.21908,1.66175 -2.06102,2.21853 -0.47838,0.31636 -1.05072,0.66584 -1.6184,0.58414 -1.06077,-0.1527 -1.53128,-1.75807 -2.59352,-1.90019 -1.57059,-0.21014 -4.43837,1.70265 -4.43837,1.70265 -1.00907,0.73884 -1.61615,1.97441 -1.61615,1.97441 -0.87,1.75337 -1.6058,4.70096 -1.99331,6.49119 l 2.55962,-0.53277 4.65149,-1.59441 11.56237,-8.65618 c 0.23702,-4.162963 4.51929,-5.845316 4.51929,-5.845316 6.58234,-2.815413 9.60586,3.670203 9.60586,3.670203 l -6.15725,5.622443 c 2.16485,1.16251 4.17191,-0.38502 4.17191,-0.38502 0,0 4.5054,-4.247487 6.61284,-6.678581 0,0 -0.24823,-1.868657 0.012,-2.746347 0.49959,-1.684934 1.10333,-2.656257 2.85451,-4.432728 0.72344,-0.662352 1.82441,-1.218774 3.30292,-1.669269 1.06148,-0.323432 2.34176,-0.382085 3.8408,-0.175959 0.18676,-0.112162 0.23396,-0.319884 0.14156,-0.623159 0.0713,-5.476666 0.14382,-8.343591 0.21732,-8.600771 l 3.47773,-1.639721 c 0.27583,-0.0012 0.45611,0.137225 0.54081,0.415231 0.36467,9.763012 0.62402,14.897252 0.77804,15.402724 l 0.16171,0.53074 c 0.41975,1.377647 1.20439,2.124209 2.24429,2.402702 0.0362,0.0097 0.11552,0.01893 0.23947,0.02463 0.31327,0.01449 0.91146,0.0068 1.81776,-0.07145 l 0.29025,0.408719 c 0.0269,1.856132 -0.0414,2.878186 -0.20507,3.066151 l -0.4836,0.381251 11.12404,-2.124673 0.47809,2.97453 -112.413757,24.20159 c 1.687,-1.59134 2.21064,-4.50057 2.21064,-4.50057 l 13.545057,-2.81041 c 2.33235,-3.51547 6.41954,-11.71752 6.41954,-11.71752 z"
         style="font-style:normal;font-variant:normal;font-weight:normal;font-stretch:normal;font-size:medium;line-height:1.25;font-family:Vespa;-inkscape-font-specification:Vespa;letter-spacing:0px;word-spacing:0px;fill:none;fill-opacity:1;stroke:#000000;stroke-width:0.2;stroke-miterlimit:4;stroke-dasharray:none;stroke-opacity:1" />
      <path
         id="path827"
         d="m 163.24882,99.021928 c 1.18588,-0.267393 1.75401,0.536642 1.75401,0.536642 l -3.13431,2.83893 c -1.53633,-1.67267 0.37703,-2.93597 0.46375,-2.987277 0.3397,-0.199208 0.64288,-0.32658 0.91655,-0.388291 z m 23.31658,1.914962 c 0.47617,-0.56197 0.92652,-1.098937 1.51326,-1.791909 1.05844,0.333762 1.23274,0.821962 2.32231,1.038369 z m -15.97057,3.25289 4.81923,-3.48869 c 0,0 0.88333,1.23282 1.52526,1.58929 0.28716,0.15946 0.66094,0.29324 1.20471,0.39769 z m -14.49901,-0.97527 c 1.50204,2.79271 5.2107,2.9787 5.2107,2.9787 l -12.76314,2.61357 7.55244,-5.59228 z"
         inkscape:connector-curvature="0"
         style="fill:none;fill-opacity:1;stroke:#000000;stroke-width:0.2;stroke-miterlimit:4;stroke-dasharray:none;stroke-opacity:1"
         sodipodi:nodetypes="cccccccccccccccccccc" />
      <path
         transform="matrix(-0.50701825,-0.86193532,0.90986298,-0.41490886,0,0)"
         style="opacity:0.98000004;fill:none;fill-opacity:1;stroke:#000000;stroke-width:0.20054124;stroke-miterlimit:4;stroke-dasharray:none;stroke-opacity:1"
         d="m -161.04634,109.39438 a 2.3043985,2.0916271 0 0 1 -2.3044,2.09163 2.3043985,2.0916271 0 0 1 -2.3044,-2.09163 2.3043985,2.0916271 0 0 1 2.3044,-2.09163 2.3043985,2.0916271 0 0 1 2.3044,2.09163 z"
         id="path829"
         inkscape:connector-curvature="0" />
    </g>
    <rect
       style="opacity:0.98000004;fill:none;fill-opacity:1;stroke:#000000;stroke-width:0.2;stroke-miterlimit:3.98765421;stroke-dasharray:none;stroke-opacity:1"
       id="rect841"
       width="124.97523"
       height="35.172672"
       x="239.89066"
       y="158.90117"
       rx="5.1426535"
       ry="5.1426535"
       transform="rotate(-11.626126)" />
    <g
       id="g884"
       transform="translate(-195.2625,89.429167)">
      <path
         inkscape:connector-curvature="0"
         id="path843"
         style="font-style:normal;font-variant:normal;font-weight:normal;font-stretch:normal;font-size:medium;line-height:1.25;font-family:Vespa;-inkscape-font-specification:Vespa;letter-spacing:0px;word-spacing:0px;fill:none;fill-opacity:1;stroke:#000000;stroke-width:0.2;stroke-miterlimit:4;stroke-dasharray:none;stroke-opacity:1"
         d="m 269.13135,96.558613 c 0,0 -1.02261,4.168167 -1.90614,7.175157 l -6.34965,1.35623 z"
         sodipodi:nodetypes="cccc" />
      <path
         sodipodi:nodetypes="ccccccccccccccccccccccccccczcaaacsccccccccacscccccscsssccccccssscc"
         inkscape:connector-curvature="0"
         id="path845"
         d="m 227.28274,116.18156 c 1.687,-1.59134 2.21064,-4.50057 2.21064,-4.50057 l 13.54506,-2.81041 c 2.33235,-3.51547 6.41954,-11.717517 6.41954,-11.717517 l -5.52986,0.73444 0.54387,-3.75349 6.95469,-1.21335 2.2225,-6.890302 -9.97315,2.035873 1.54722,-5.28884 c 9.73852,-0.991078 14.09017,-1.295358 22.35708,-4.355277 2.18288,-0.973999 3.5436,-1.470914 4.08215,-1.490736 0.28542,0.324319 0.50522,0.689492 0.52376,1.043852 0.0143,0.389038 -1.25323,1.165947 -2.94076,4.164326 0.0102,0.276962 -3.54039,1.139521 -10.65177,2.587677 l -2.29978,7.284507 0.30345,0.0813 8.38533,-1.371771 0.31449,0.381324 c -0.37254,1.193967 -1.11277,2.369717 -1.71149,3.499447 l -8.68492,1.87186 c -1.60219,3.824857 -3.73165,7.420847 -5.69072,11.165717 l 7.87889,-1.77092 c 4.3482,-4.63528 12.58258,-13.459447 12.58258,-13.459447 l 0.98518,-4.098004 3.61371,0.381235 -0.0253,2.239019 c 0,0 6.23825,-3.982271 8.50107,-3.295786 2.26282,0.686485 3.77162,2.207157 2.91231,4.150556 -0.44322,0.90687 -1.21908,1.66175 -2.06102,2.21853 -0.47838,0.31636 -1.05072,0.66584 -1.6184,0.58414 -1.06077,-0.1527 -1.53128,-1.75807 -2.59352,-1.90019 -1.57059,-0.21014 -4.43837,1.70265 -4.43837,1.70265 -1.00907,0.73884 -1.61615,1.97441 -1.61615,1.97441 -0.87,1.75337 -1.6058,4.700957 -1.99331,6.491187 l 2.55962,-0.53277 4.65149,-1.59441 11.56237,-8.656177 c 0.23702,-4.162963 4.51929,-5.845316 4.51929,-5.845316 6.58234,-2.815413 9.60586,3.670203 9.60586,3.670203 l -6.15725,5.622443 c 2.16485,1.16251 4.17191,-0.38502 4.17191,-0.38502 0,0 4.5054,-4.247487 6.61284,-6.678581 0,0 -0.24823,-1.868657 0.012,-2.746347 0.49959,-1.684934 1.10333,-2.656257 2.85451,-4.432728 0.72344,-0.662352 1.82441,-1.218774 3.30292,-1.669269 1.06148,-0.323432 2.34176,-0.382085 3.8408,-0.175959 0.18676,-0.112162 0.23396,-0.319884 0.14156,-0.623159 0.0713,-5.476666 0.14382,-8.343591 0.21732,-8.600771 l 3.47773,-1.639721 c 0.27583,-0.0012 0.45611,0.137225 0.54081,0.415231 0.36467,9.763012 0.62402,14.897252 0.77804,15.402724 l 0.16171,0.53074 c 0.41975,1.377647 1.20439,2.124209 2.24429,2.402702 0.0362,0.0097 0.11552,0.01893 0.23947,0.02463 0.31327,0.01449 0.91146,0.0068 1.81776,-0.07145 l 0.29025,0.408719 c 0.0269,1.856132 -0.0414,2.878186 -0.20507,3.066151 l -0.4836,0.381251 11.12404,-2.124673 0.0392,0.262922 c 1.75487,1.925941 2.82704,4.490448 2.82704,7.305373 0,5.991132 -4.85678,10.847912 -10.84791,10.847912 -5.99114,0 -10.84792,-4.85677 -10.84792,-10.847912 0,-0.142694 0.003,-0.284745 0.005,-0.431865 z"
         style="font-style:normal;font-variant:normal;font-weight:normal;font-stretch:normal;font-size:medium;line-height:1.25;font-family:Vespa;-inkscape-font-specification:Vespa;letter-spacing:0px;word-spacing:0px;fill:none;fill-opacity:1;stroke:#000000;stroke-width:0.2;stroke-miterlimit:4;stroke-dasharray:none;stroke-opacity:1" />
      <path
         id="path847"
         d="m 297.65715,90.555261 c 1.18588,-0.267393 1.75401,0.536642 1.75401,0.536642 l -3.13431,2.83893 c -1.53633,-1.67267 0.37703,-2.93597 0.46375,-2.987277 0.3397,-0.199208 0.64288,-0.32658 0.91655,-0.388291 z m 23.31658,1.914962 c 0.47617,-0.56197 0.92652,-1.098937 1.51326,-1.791909 1.05844,0.333762 1.23274,0.821962 2.32231,1.038369 z m -15.97057,3.25289 4.81923,-3.48869 c 0,0 0.88333,1.23282 1.52526,1.58929 0.28716,0.15946 0.66094,0.29324 1.20471,0.39769 z m -14.49901,-0.97527 c 1.50204,2.79271 5.2107,2.9787 5.2107,2.9787 l -12.76314,2.613567 7.55244,-5.592277 z"
         inkscape:connector-curvature="0"
         style="fill:none;fill-opacity:1;stroke:#000000;stroke-width:0.2;stroke-miterlimit:4;stroke-dasharray:none;stroke-opacity:1"
         sodipodi:nodetypes="cccccccccccccccccccc" />
      <path
         sodipodi:nodetypes="ccccc"
         style="opacity:0.98000004;fill:none;fill-opacity:1;stroke:#000000;stroke-width:0.19999999;stroke-miterlimit:4;stroke-dasharray:none;stroke-opacity:1"
         d="m 315.59566,84.956164 c 1.05105,-0.479294 2.4262,0.02143 3.07147,1.118408 0.64528,1.096972 0.31633,2.374788 -0.73472,2.85408 -1.05105,0.479294 -2.4262,-0.02143 -3.07147,-1.118408 -0.64528,-1.096972 -0.31633,-2.374788 0.73472,-2.85408 z"
         id="path849"
         inkscape:connector-curvature="0" />
      <path
         sodipodi:nodetypes="cscscc"
         inkscape:connector-curvature="0"
         id="path858"
         d="m 332.67224,93.495886 c 1.55575,0.532481 2.67426,2.007458 2.67426,3.743677 0,2.184788 -1.77112,3.955907 -3.95591,3.955907 -2.18478,0 -3.9559,-1.771123 -3.9559,-3.955907 0,-1.100821 0.44964,-2.096623 1.17527,-2.813768 z"
         style="opacity:0.98000004;fill:none;fill-opacity:1;stroke:#000000;stroke-width:0.22568251;stroke-miterlimit:3.98765421;stroke-dasharray:none;stroke-opacity:1" />
    </g>
    <g
       id="g877"
       transform="translate(-86.254167,95.779167)">
      <path
         style="font-style:normal;font-variant:normal;font-weight:normal;font-stretch:normal;font-size:medium;line-height:1.25;font-family:Vespa;-inkscape-font-specification:Vespa;letter-spacing:0px;word-spacing:0px;fill:none;fill-opacity:1;stroke:#000000;stroke-width:0.2;stroke-miterlimit:4;stroke-dasharray:none;stroke-opacity:1"
         d="m 116.90043,57.435718 c 1.687,-1.59134 2.21064,-4.50057 2.21064,-4.50057 l 13.54506,-2.81041 c 2.33235,-3.51547 6.41954,-11.717517 6.41954,-11.717517 l -5.52986,0.73444 0.54387,-3.75349 6.95469,-1.21335 2.2225,-6.890302 -9.97315,2.035873 1.54722,-5.28884 c 9.73852,-0.991078 14.09017,-1.295358 22.35708,-4.355277 2.18288,-0.973999 3.5436,-1.470914 4.08215,-1.490736 0.28542,0.324319 0.50522,0.689492 0.52376,1.043852 0.0143,0.389038 -1.25323,1.165947 -2.94076,4.164326 0.0102,0.276962 -3.54039,1.139521 -10.65177,2.587677 l -2.29978,7.284507 0.30345,0.0813 8.38533,-1.371771 0.31449,0.381324 c -0.37254,1.193967 -1.11277,2.369717 -1.71149,3.499447 l -8.68492,1.87186 c -1.60219,3.824857 -3.73165,7.420847 -5.69072,11.165717 l 7.87889,-1.77092 c 4.3482,-4.63528 12.58258,-13.459447 12.58258,-13.459447 l 0.98518,-4.098004 3.61371,0.381235 -0.0253,2.239019 c 0,0 6.23825,-3.982271 8.50107,-3.295786 2.26282,0.686485 3.77162,2.207157 2.91231,4.150556 -0.44322,0.90687 -1.21908,1.66175 -2.06102,2.21853 -0.47838,0.31636 -1.05072,0.66584 -1.6184,0.58414 -1.06077,-0.1527 -1.53128,-1.75807 -2.59352,-1.90019 -1.57059,-0.21014 -4.43837,1.70265 -4.43837,1.70265 -1.00907,0.73884 -1.61615,1.97441 -1.61615,1.97441 -0.87,1.75337 -1.6058,4.700957 -1.99331,6.491187 l 2.55962,-0.53277 4.65149,-1.59441 11.56237,-8.656177 c 0.23702,-4.162963 4.51929,-5.845316 4.51929,-5.845316 6.58234,-2.815413 9.60586,3.670203 9.60586,3.670203 l -6.15725,5.622443 c 2.16485,1.16251 4.17191,-0.38502 4.17191,-0.38502 0,0 4.5054,-4.247487 6.61284,-6.678581 0,0 -0.24823,-1.868657 0.012,-2.746347 0.49959,-1.684934 1.10333,-2.656257 2.85451,-4.432728 0.72344,-0.662352 1.82441,-1.218774 3.30292,-1.669269 1.06148,-0.323432 2.34176,-0.382085 3.8408,-0.175959 0.18676,-0.112162 0.23396,-0.319884 0.14156,-0.623159 0.0713,-5.476666 0.14382,-8.343591 0.21732,-8.600771 l 3.47773,-1.6397211 c 0.27583,-0.0012 0.45611,0.137225 0.54081,0.4152311 0.36467,9.763012 0.62402,14.897252 0.77804,15.402724 l 0.16171,0.53074 c 0.41975,1.377647 1.20439,2.124209 2.24429,2.402702 0.0362,0.0097 0.11552,0.01893 0.23947,0.02463 0.31327,0.01449 0.91146,0.0068 1.81776,-0.07145 l 0.29025,0.408719 c 0.0269,1.856132 -0.0414,2.878186 -0.20507,3.066151 l -0.4836,0.381251 11.12404,-2.124673 0.0392,0.262922 c 1.75487,1.925941 2.82704,4.490448 2.82704,7.305373 0,5.991132 -4.85678,10.847912 -10.84791,10.847912 -5.99114,0 -10.84792,-4.85677 -10.84792,-10.847912 0,-0.142694 0.003,-0.284745 0.005,-0.431865 z"
         id="path867"
         inkscape:connector-curvature="0"
         sodipodi:nodetypes="ccccccccccccccccccccccccccczcaaacsccccccccacscccccscsssccccccssscc" />
      <path
         style="opacity:0.98000004;fill:none;fill-opacity:1;stroke:#000000;stroke-width:0.22568251;stroke-miterlimit:3.98765421;stroke-dasharray:none;stroke-opacity:1"
         d="m 222.28993,34.750044 c 1.55575,0.532481 2.67426,2.007458 2.67426,3.743677 0,2.184788 -1.77112,3.955907 -3.95591,3.955907 -2.18478,0 -3.9559,-1.771123 -3.9559,-3.955907 0,-1.100821 0.44964,-2.096623 1.17527,-2.813768 z"
         id="path873"
         inkscape:connector-curvature="0"
         sodipodi:nodetypes="cscscc" />
    </g>
    <rect
       style="opacity:0.98000004;fill:none;fill-opacity:1;stroke:#000000;stroke-width:0.2;stroke-miterlimit:3.98765421;stroke-dasharray:none;stroke-opacity:1"
       id="rect1434"
       width="141.81667"
       height="171.97917"
       x="16.404167"
       y="40.354141"
       rx="5.1426535"
       ry="5.1426535" />
  </g>
</svg>
