<?xml version="1.0" encoding="UTF-8" standalone="no"?>
<svg
   xmlns:dc="http://purl.org/dc/elements/1.1/"
   xmlns:cc="http://creativecommons.org/ns#"
   xmlns:rdf="http://www.w3.org/1999/02/22-rdf-syntax-ns#"
   xmlns:svg="http://www.w3.org/2000/svg"
   xmlns="http://www.w3.org/2000/svg"
   version="1.1"
   width="18in"
   height="18in"
   viewBox="0 0 1620 1620"
   id="svg26">
  <metadata
     id="metadata32">
    <rdf:RDF>
      <cc:Work
         rdf:about="">
        <dc:format>image/svg+xml</dc:format>
        <dc:type
           rdf:resource="http://purl.org/dc/dcmitype/StillImage" />
        <dc:title></dc:title>
      </cc:Work>
    </rdf:RDF>
  </metadata>
  <defs
     id="defs30" />
  <!-- Front-->
  <path
     id="polygon2"
     d="m 94.5,10.62 h 27 V 0 h 27 v 10.62 h 27 V 0 h 27 v 10.62 h 27 V 0 h 27 v 10.62 h 27 V 0 h 27 v 10.62 h 27 V 0 h 27 v 10.62 h 27 V 0 h 27 v 10.62 h 27 V 0 h 27 v 10.62 h 27 V 0 h 27 v 10.62 h 27 V 0 h 27 v 10.62 h 27 V 0 h 27 v 10.62 h 27 V 0 h 27 v 10.62 h 27 V 0 h 27 v 10.62 h 27 V 0 h 27 v 10.62 h 27 V 0 h 27 v 10.62 h 27 V 0 h 27 v 10.62 h 27 V 0 h 27 v 10.62 h 27 V 0 h 27 v 10.62 h 33.75 V 0 H 1080 v 42.75 h -10.62 V 85.5 H 1080 v 27 h -10.62 v 27 H 1080 v 27 h -10.62 v 27 H 1080 v 27 h -10.62 v 27 H 1080 v 27 h -10.62 v 42.75 H 1080 V 360 h -33.75 V 349.38 H 1012.5 V 360 h -27 v -10.62 h -27 V 360 h -27 v -10.62 h -27 V 360 h -27 v -10.62 h -27 V 360 h -27 v -10.62 h -27 V 360 h -27 v -10.62 h -27 V 360 h -27 v -10.62 h -27 V 360 h -27 v -10.62 h -27 V 360 h -27 v -10.62 h -27 V 360 h -27 v -10.62 h -27 V 360 h -27 v -10.62 h -27 V 360 h -27 v -10.62 h -27 V 360 h -27 v -10.62 h -27 V 360 h -27 v -10.62 h -27 V 360 h -27 v -10.62 h -27 V 360 h -27 v -10.62 h -27 V 360 h -27 v -10.62 h -27 V 360 h -27 v -10.62 h -27 V 360 h -27 V 349.38 H 33.75 V 360 H 0 V 317.25 H 10.62 V 274.5 H 0 v -27 h 10.62 v -27 H 0 v -27 h 10.62 v -27 H 0 v -27 h 10.62 v -27 H 0 v -27 H 10.62 V 42.75 H 0 V 0 H 33.75 V 10.62 H 67.5 V 0 h 27 z"
     style="fill:none;stroke:#000000;stroke-width:0.89999998"
     transform="translate(22.5,697.5)" />
  <!-- Back-->
  <path
     id="polygon6"
     d="M 175.5,10.62 V 0 h 27 v 10.62 h 27 V 0 h 27 v 10.62 h 27 V 0 h 27 v 10.62 h 27 V 0 h 27 v 10.62 h 27 V 0 h 27 v 10.62 h 27 V 0 h 27 v 10.62 h 27 V 0 h 27 v 10.62 h 27 V 0 h 27 v 10.62 h 27 V 0 h 27 v 10.62 h 27 V 0 h 27 v 10.62 h 27 V 0 h 27 v 10.62 h 27 V 0 h 27 v 10.62 h 27 V 0 h 27 v 10.62 h 27 V 0 h 27 v 10.62 h 27 V 0 h 27 v 10.62 h 27 V 0 h 27 v 10.62 h 33.75 V 0 H 1080 v 42.75 h -10.62 V 85.5 H 1080 v 27 h -10.62 v 27 H 1080 v 27 h -10.62 v 27 H 1080 v 27 h -10.62 v 27 H 1080 v 27 h -10.62 v 42.75 H 1080 V 360 h -33.75 V 349.38 H 1012.5 V 360 h -27 v -10.62 h -27 V 360 h -27 v -10.62 h -27 V 360 h -27 v -10.62 h -27 V 360 h -27 v -10.62 h -27 V 360 h -27 v -10.62 h -27 V 360 h -27 v -10.62 h -27 V 360 h -27 v -10.62 h -27 V 360 h -27 v -10.62 h -27 V 360 h -27 v -10.62 h -27 V 360 h -27 v -10.62 h -27 V 360 h -27 v -10.62 h -27 V 360 h -27 v -10.62 h -27 V 360 h -27 v -10.62 h -27 V 360 h -27 v -10.62 h -27 V 360 h -27 v -10.62 h -27 V 360 h -27 v -10.62 h -27 V 360 h -27 v -10.62 h -27 V 360 h -27 V 349.38 H 33.75 V 360 H 0 V 317.25 H 10.62 V 274.5 H 0 v -27 h 10.62 v -27 H 0 v -27 h 10.62 v -27 H 0 v -27 h 10.62 v -27 H 0 v -27 H 10.62 V 42.75 H 0 V 0 H 33.75 V 10.62 H 67.5 V 0 h 27 v 10.62 h 27 V 0 h 27 v 10.62 z"
     style="fill:none;stroke:#000000;stroke-width:0.89999998"
     transform="translate(21.394794,323.18182)" />
  <!-- Left-->
  <!-- Right-->
  <path
     id="polygon10"
     d="M 283.5,10.62 V 0 h 27 v 10.62 h 27 V 0 h 27 v 10.62 h 27 V 0 h 27 v 10.62 h 27 V 0 h 27 v 10.62 h 33.75 V 0 h 23.13 V 42.75 H 540 V 85.5 h -10.62 v 27 H 540 v 27 h -10.62 v 27 H 540 v 27 h -10.62 v 27 H 540 v 27 h -10.62 v 27 H 540 v 42.75 H 529.38 V 360 H 506.25 V 349.38 H 472.5 V 360 h -27 v -10.62 h -27 V 360 h -27 v -10.62 h -27 V 360 h -27 v -10.62 h -27 V 360 h -27 v -10.62 h -27 V 360 h -27 v -10.62 h -27 V 360 h -27 v -10.62 h -27 V 360 h -27 v -10.62 h -27 V 360 h -27 V 349.38 H 33.75 V 360 H 10.62 V 317.25 H 0 V 274.5 h 10.62 v -27 H 0 v -27 h 10.62 v -27 H 0 v -27 h 10.62 v -27 H 0 v -27 h 10.62 v -27 H 0 V 42.75 H 10.62 V 0 H 33.75 V 10.62 H 67.5 V 0 h 27 v 10.62 h 27 V 0 h 27 v 10.62 h 27 V 0 h 27 v 10.62 h 27 V 0 h 27 v 10.62 z"
     style="fill:none;stroke:#000000;stroke-width:0.89999998"
     transform="rotate(-90,1079.3448,-33.517096)" />
  <path
     id="polygon14"
     d="M 337.5,10.62 V 0 h 27 v 10.62 h 27 V 0 h 27 v 10.62 h 27 V 0 h 27 v 10.62 h 33.75 V 0 h 23.13 V 42.75 H 540 V 85.5 h -10.62 v 27 H 540 v 27 h -10.62 v 27 H 540 v 27 h -10.62 v 27 H 540 v 27 h -10.62 v 27 H 540 v 42.75 H 529.38 V 360 H 506.25 V 349.38 H 472.5 V 360 h -27 v -10.62 h -27 V 360 h -27 v -10.62 h -27 V 360 h -27 v -10.62 h -27 V 360 h -27 v -10.62 h -27 V 360 h -27 v -10.62 h -27 V 360 h -27 v -10.62 h -27 V 360 h -27 v -10.62 h -27 V 360 h -27 V 349.38 H 33.75 V 360 H 10.62 V 317.25 H 0 V 274.5 h 10.62 v -27 H 0 v -27 h 10.62 v -27 H 0 v -27 h 10.62 v -27 H 0 v -27 h 10.62 v -27 H 0 V 42.75 H 10.62 V 0 H 33.75 V 10.62 H 67.5 V 0 h 27 v 10.62 h 27 V 0 h 27 v 10.62 h 27 V 0 h 27 v 10.62 h 27 V 0 h 27 v 10.62 h 27 V 0 h 27 v 10.62 z"
     style="fill:none;stroke:#000000;stroke-width:0.89999998"
     transform="rotate(-90,1354.6875,242.8125)" />
  <!-- Top-->
  <path
     id="polygon18"
     d="m 94.5,0 h 27 v 10.62 h 27 V 0 h 27 v 10.62 h 27 V 0 h 27 v 10.62 h 27 V 0 h 27 v 10.62 h 27 V 0 h 27 v 10.62 h 27 V 0 h 27 v 10.62 h 27 V 0 h 27 v 10.62 h 27 V 0 h 27 v 10.62 h 27 V 0 h 27 v 10.62 h 27 V 0 h 27 v 10.62 h 27 V 0 h 27 v 10.62 h 27 V 0 h 27 v 10.62 h 27 V 0 h 27 v 10.62 h 27 V 0 h 27 v 10.62 h 27 V 0 h 27 v 10.62 h 27 V 0 h 27 v 10.62 h 27 V 0 h 27 v 10.62 h 27 V 0 h 33.75 v 10.62 h 23.13 V 33.75 H 1080 V 67.5 h -10.62 v 27 H 1080 v 27 h -10.62 v 27 H 1080 v 27 h -10.62 v 27 H 1080 v 27 h -10.62 v 27 H 1080 v 27 h -10.62 v 27 H 1080 v 27 h -10.62 v 27 H 1080 v 27 h -10.62 v 27 H 1080 v 27 h -10.62 v 27 H 1080 v 33.75 h -10.62 v 23.13 h -23.13 V 540 h -33.75 v -10.62 h -27 V 540 h -27 v -10.62 h -27 V 540 h -27 v -10.62 h -27 V 540 h -27 v -10.62 h -27 V 540 h -27 v -10.62 h -27 V 540 h -27 v -10.62 h -27 V 540 h -27 v -10.62 h -27 V 540 h -27 v -10.62 h -27 V 540 h -27 v -10.62 h -27 V 540 h -27 v -10.62 h -27 V 540 h -27 v -10.62 h -27 V 540 h -27 v -10.62 h -27 V 540 h -27 v -10.62 h -27 V 540 h -27 v -10.62 h -27 V 540 h -27 v -10.62 h -27 V 540 h -27 v -10.62 h -27 V 540 h -27 v -10.62 h -27 V 540 h -27 v -10.62 h -27 V 540 H 33.75 V 529.38 H 10.62 V 506.25 H 0 V 472.5 h 10.62 v -27 H 0 v -27 h 10.62 v -27 H 0 v -27 h 10.62 v -27 H 0 v -27 h 10.62 v -27 H 0 v -27 h 10.62 v -27 H 0 v -27 h 10.62 v -27 H 0 v -27 h 10.62 v -27 H 0 v -27 h 10.62 v -27 H 0 V 33.75 H 10.62 V 10.62 H 33.75 V 0 H 67.5 v 10.62 h 27 z"
     style="fill:none;stroke:#000000;stroke-width:0.89999998"
     transform="translate(22.5,1057.5)" />
  <!-- Bottom-->
  <path
     id="path825"
     d="m 1496.205,305.81509 a 35.190548,35.190548 0 0 1 -35.1906,35.19055 35.190548,35.190548 0 0 1 -35.1905,-35.19055 35.190548,35.190548 0 0 1 35.1905,-35.19054 35.190548,35.190548 0 0 1 35.1906,35.19054 z"
     style="opacity:0.98000004;fill:none;fill-opacity:1;stroke:#000000;stroke-width:11.25;stroke-miterlimit:3.98765421;stroke-dasharray:none;stroke-opacity:1" />
  <path
     style="opacity:0.98000004;fill:none;fill-opacity:1;stroke:#000000;stroke-width:3.44534302;stroke-miterlimit:3.98765421;stroke-dasharray:none;stroke-opacity:1"
     d="m 28.833473,1604.6846 a 10.7772,10.7772 0 0 1 -10.777216,10.7772 10.7772,10.7772 0 0 1 -10.7771854,-10.7772 10.7772,10.7772 0 0 1 10.7771854,-10.7772 10.7772,10.7772 0 0 1 10.777216,10.7772 z"
     id="path828" />
</svg>
