<?xml version="1.0" encoding="UTF-8" standalone="no"?>
<svg
   xmlns:dc="http://purl.org/dc/elements/1.1/"
   xmlns:cc="http://creativecommons.org/ns#"
   xmlns:rdf="http://www.w3.org/1999/02/22-rdf-syntax-ns#"
   xmlns:svg="http://www.w3.org/2000/svg"
   xmlns="http://www.w3.org/2000/svg"
   xmlns:sodipodi="http://sodipodi.sourceforge.net/DTD/sodipodi-0.dtd"
   xmlns:inkscape="http://www.inkscape.org/namespaces/inkscape"
   version="1.1"
   width="18in"
   height="18in"
   viewBox="0 0 1620 1620"
   id="svg26"
   sodipodi:docname="caseplans.svg"
   inkscape:version="0.92.3 (2405546, 2018-03-11)">
  <sodipodi:namedview
     pagecolor="#ffffff"
     bordercolor="#666666"
     borderopacity="1"
     objecttolerance="10"
     gridtolerance="10"
     guidetolerance="10"
     inkscape:pageopacity="0"
     inkscape:pageshadow="2"
     inkscape:window-width="1366"
     inkscape:window-height="738"
     id="namedview12"
     showgrid="false"
     inkscape:window-x="0"
     inkscape:window-y="1"
     inkscape:window-maximized="1"
     inkscape:current-layer="layer1" />
  <metadata
     id="metadata32">
    <rdf:RDF>
      <cc:Work
         rdf:about="">
        <dc:format>image/svg+xml</dc:format>
        <dc:type
           rdf:resource="http://purl.org/dc/dcmitype/StillImage" />
        <dc:title></dc:title>
      </cc:Work>
    </rdf:RDF>
  </metadata>
  <defs
     id="defs30" />
  <!-- Front-->
  <!-- Back-->
  <!-- Left-->
  <!-- Right-->
  <!-- Top-->
  <!-- Bottom-->
  <g
     inkscape:groupmode="layer"
     id="layer1"
     inkscape:label="Blech">
    <path
       inkscape:connector-curvature="0"
       id="polygon2"
       d="m 111.44361,710.93549 h 27 v -10.62 h 27 v 10.62 h 27 v -10.62 h 27 v 10.62 h 27 v -10.62 h 27 v 10.62 h 27 v -10.62 h 27 v 10.62 h 27 v -10.62 h 27.00001 v 10.62 h 27 v -10.62 h 27 v 10.62 h 27 v -10.62 h 27 v 10.62 h 27 v -10.62 h 27 v 10.62 h 27 v -10.62 h 27 v 10.62 h 27 v -10.62 h 27 v 10.62 h 27 v -10.62 h 27 v 10.62 h 27 v -10.62 h 27 v 10.62 h 27 v -10.62 h 27 v 10.62 h 27 v -10.62 h 27 v 10.62 h 27 v -10.62 h 27 v 10.62 h 27 v -10.62 h 27 v 10.62 h 26.99998 v -10.62 h 27 v 10.62 h 33.75 v -10.62 h 33.75 v 42.75001 h -10.62 v 42.75 h 10.62 v 27 h -10.62 v 27 h 10.62 v 27 h -10.62 v 27 h 10.62 v 27 h -10.62 v 27 h 10.62 v 27 h -10.62 v 42.75 h 10.62 v 42.75 h -33.75 v -10.62 h -33.75 v 10.62 h -27 v -10.62 h -26.99998 v 10.62 h -27 v -10.62 h -27 v 10.62 h -27 v -10.62 h -27 v 10.62 h -27 v -10.62 h -27 v 10.62 h -27 v -10.62 h -27 v 10.62 h -27 v -10.62 h -27 v 10.62 h -27 v -10.62 h -27 v 10.62 h -27 v -10.62 h -27 v 10.62 h -27 v -10.62 h -27 v 10.62 h -27 v -10.62 h -27 v 10.62 h -27 v -10.62 h -27 v 10.62 h -27 v -10.62 h -27 v 10.62 h -27.00001 v -10.62 h -27 v 10.62 h -27 v -10.62 h -27 v 10.62 h -27 v -10.62 h -27 v 10.62 h -27 v -10.62 h -27 v 10.62 h -27 v -10.62 h -27 v 10.62 H 84.443602 v -10.62 h -33.75 v 10.62 h -33.75 v -42.75 h 10.62 v -42.75 h -10.62 v -27 h 10.62 v -27 h -10.62 v -27 h 10.62 v -27 h -10.62 v -27 h 10.62 v -27 h -10.62 v -27 h 10.62 v -42.75 h -10.62 v -42.75001 h 33.75 v 10.62 h 33.75 v -10.62 h 27.000008 z"
       style="fill:none;stroke:#000000;stroke-width:0.89999998" />
    <path
       inkscape:connector-curvature="0"
       id="polygon6"
       d="m 191.3384,336.61731 v -10.62 h 27 v 10.62 h 27 v -10.62 h 27.00001 v 10.62 h 27 v -10.62 h 27 v 10.62 h 27 v -10.62 h 27 v 10.62 h 27 v -10.62 h 27 v 10.62 h 27 v -10.62 h 27 v 10.62 h 27 v -10.62 h 27 v 10.62 h 27.00001 v -10.62 h 27 v 10.62 h 27 v -10.62 h 27 v 10.62 h 27 v -10.62 h 27 v 10.62 h 27 v -10.62 h 27 v 10.62 h 27 v -10.62 h 27 v 10.62 h 27 v -10.62 h 27 v 10.62 h 27 v -10.62 h 27 v 10.62 h 26.99999 v -10.62 h 27 v 10.62 h 26.99999 v -10.62 h 27 v 10.62 h 33.75 v -10.62 h 33.75 v 42.75 h -10.62 v 42.75 h 10.62 v 27 h -10.62 v 27 h 10.62 v 27 h -10.62 v 27 h 10.62 v 27 h -10.62 v 27 h 10.62 v 27 h -10.62 v 42.75 h 10.62 v 42.75001 h -33.75 v -10.62 h -33.75 v 10.62 h -27 v -10.62 h -26.99999 v 10.62 h -27 v -10.62 h -26.99999 v 10.62 h -27 v -10.62 h -27 v 10.62 h -27 v -10.62 h -27 v 10.62 h -27 v -10.62 h -27 v 10.62 h -27 v -10.62 h -27 v 10.62 h -27 v -10.62 h -27 v 10.62 h -27 v -10.62 h -27 v 10.62 h -27 v -10.62 h -27.00001 v 10.62 h -27 v -10.62 h -27 v 10.62 h -27 v -10.62 h -27 v 10.62 h -27 v -10.62 h -27 v 10.62 h -27 v -10.62 h -27 v 10.62 h -27 v -10.62 h -27 v 10.62 H 245.3384 v -10.62 h -27 v 10.62 h -27 v -10.62 h -27 v 10.62 h -27 v -10.62 h -27 v 10.62 H 83.338392 v -10.62 h -33.75 v 10.62 h -33.75 v -42.75001 h 10.62 v -42.75 h -10.62 v -27 h 10.62 v -27 h -10.62 v -27 h 10.62 v -27 h -10.62 v -27 h 10.62 v -27 h -10.62 v -27 h 10.62 v -42.75 h -10.62 v -42.75 h 33.75 v 10.62 h 33.75 v -10.62 H 110.3384 v 10.62 h 27 v -10.62 h 27 v 10.62 z"
       style="fill:none;stroke:#000000;stroke-width:0.89999998" />
    <path
       inkscape:connector-curvature="0"
       id="polygon10"
       d="m 1117.9255,765.14323 h -10.62 v -27 h 10.62 v -27 h -10.62 v -27 h 10.62 v -27 h -10.62 v -27 h 10.62 v -27 h -10.62 v -27 h 10.62 v -33.75 h -10.62 v -23.13 h 42.75 v -10.62 h 42.75 v 10.62 h 27 v -10.62 h 27 v 10.62 h 27 v -10.62 h 27 v 10.62 h 27 v -10.62 h 27 v 10.62 h 27 v -10.62 h 42.75 v 10.62 h 42.75 v 23.13 h -10.62 v 33.75 h 10.62 v 27 h -10.62 v 27 h 10.62 v 27 h -10.62 v 27 h 10.62 v 27 h -10.62 v 27 h 10.62 v 27 h -10.62 v 27.00001 h 10.62 v 27 h -10.62 v 27 h 10.62 v 27 h -10.62 v 27 h 10.62 v 27 h -10.62 v 27 h 10.62 v 27 h -10.62 v 33.74996 h 10.62 v 23.13 h -42.75 v 10.62 h -42.75 v -10.62 h -27 v 10.62 h -27 v -10.62 h -27 v 10.62 h -27 v -10.62 h -27 v 10.62 h -27 v -10.62 h -27 v 10.62 h -42.75 v -10.62 h -42.75 v -23.13 h 10.62 v -33.74996 h -10.62 v -27 h 10.62 v -27 h -10.62 v -27 h 10.62 v -27 h -10.62 v -27 h 10.62 v -27 h -10.62 v -27 h 10.62 z"
       style="fill:none;stroke:#000000;stroke-width:0.89999998" />
    <path
       inkscape:connector-curvature="0"
       id="polygon14"
       d="m 1116.9386,1262.8155 h -10.62 v -27 h 10.62 v -27 h -10.62 v -27 h 10.62 v -27 h -10.62 v -27 h 10.62 v -33.75 h -10.62 v -23.13 h 42.75 v -10.62 h 42.75 v 10.62 h 27 v -10.62 h 27 v 10.62 h 27 v -10.62 h 27 v 10.62 h 27 v -10.62 h 27 v 10.62 h 27 v -10.62 h 42.75 v 10.62 h 42.75 v 23.13 h -10.62 v 33.75 h 10.62 v 27 h -10.62 v 27 h 10.62 v 27 h -10.62 v 27 h 10.62 v 27 h -10.62 v 26.9999 h 10.62 v 27 h -10.62 v 27 h 10.62 v 27 h -10.62 v 27 h 10.62 v 27 h -10.62 v 27 h 10.62 v 27 h -10.62 v 27 h 10.62 v 27 h -10.62 v 33.75 h 10.62 v 23.13 h -42.75 v 10.62 h -42.75 v -10.62 h -27 v 10.62 h -27 v -10.62 h -27 v 10.62 h -27 v -10.62 h -27 v 10.62 h -27 v -10.62 h -27 v 10.62 h -42.75 v -10.62 h -42.75 v -23.13 h 10.62 v -33.75 h -10.62 v -27 h 10.62 v -27 h -10.62 v -27 h 10.62 v -27 h -10.62 v -27 h 10.62 v -27 h -10.62 v -27 h 10.62 v -27 h -10.62 v -27 h 10.62 z"
       style="fill:none;stroke:#000000;stroke-width:0.89999998" />
    <path
       inkscape:connector-curvature="0"
       id="polygon18"
       d="m 111.44361,1060.3155 h 27 v 10.62 h 27 v -10.62 h 27 v 10.62 h 27 v -10.62 h 27 v 10.62 h 27 v -10.62 h 27 v 10.62 h 27 v -10.62 h 27 v 10.62 h 27.00001 v -10.62 h 27 v 10.62 h 27 v -10.62 h 27 v 10.62 h 27 v -10.62 h 27 v 10.62 h 27 v -10.62 h 27 v 10.62 h 27 v -10.62 h 27 v 10.62 h 27 v -10.62 h 27 v 10.62 h 27 v -10.62 h 27 v 10.62 h 27 v -10.62 h 27 v 10.62 h 27 v -10.62 h 27 v 10.62 h 27 v -10.62 h 27 v 10.62 h 27 v -10.62 h 27 v 10.62 h 27 v -10.62 h 26.99998 v 10.62 h 27 v -10.62 h 33.75 v 10.62 h 23.13 v 23.13 h 10.62 v 33.75 h -10.62 v 27 h 10.62 v 27 h -10.62 v 27 h 10.62 v 27 h -10.62 v 27 h 10.62 v 26.9999 h -10.62 v 27 h 10.62 v 27 h -10.62 v 27 h 10.62 v 27 h -10.62 v 27 h 10.62 v 27 h -10.62 v 27 h 10.62 v 27 h -10.62 v 27 h 10.62 v 33.75 h -10.62 v 23.13 h -23.13 v 10.62 h -33.75 v -10.62 h -27 v 10.62 h -26.99998 v -10.62 h -27 v 10.62 h -27 v -10.62 h -27 v 10.62 h -27 v -10.62 h -27 v 10.62 h -27 v -10.62 h -27 v 10.62 h -27 v -10.62 h -27 v 10.62 h -27 v -10.62 h -27 v 10.62 h -27 v -10.62 h -27 v 10.62 h -27 v -10.62 h -27 v 10.62 h -27 v -10.62 h -27 v 10.62 h -27 v -10.62 h -27 v 10.62 h -27 v -10.62 h -27 v 10.62 h -27 v -10.62 h -27.00001 v 10.62 h -27 v -10.62 h -27 v 10.62 h -27 v -10.62 h -27 v 10.62 h -27 v -10.62 h -27 v 10.62 h -27 v -10.62 h -27 v 10.62 h -27 v -10.62 H 84.443602 v 10.62 h -33.75 v -10.62 h -23.13 v -23.13 h -10.62 v -33.75 h 10.62 v -27 h -10.62 v -27 h 10.62 v -27 h -10.62 v -27 h 10.62 v -27 h -10.62 v -27 h 10.62 v -27 h -10.62 v -27 h 10.62 v -27 h -10.62 v -26.9999 h 10.62 v -27 h -10.62 v -27 h 10.62 v -27 h -10.62 v -27 h 10.62 v -27 h -10.62 v -33.75 h 10.62 v -23.13 h 23.13 v -10.62 h 33.75 v 10.62 h 27.000008 z"
       style="fill:none;stroke:#000000;stroke-width:0.89999998" />
    <path
       inkscape:connector-curvature="0"
       style="opacity:0.98000004;fill:none;fill-opacity:1;stroke:#000000;stroke-width:3.44534302;stroke-miterlimit:3.98765421;stroke-dasharray:none;stroke-opacity:1"
       d="m 23.277072,1607.5001 a 10.7772,10.7772 0 0 1 -10.77722,10.7772 10.7772,10.7772 0 0 1 -10.7771805,-10.7772 10.7772,10.7772 0 0 1 10.7771805,-10.7771 10.7772,10.7772 0 0 1 10.77722,10.7771 z"
       id="path828" />
    <path
       id="path822"
       d="m 1467.0272,276.2501 a 10.7772,10.7772 0 0 1 -10.7772,10.7772 10.7772,10.7772 0 0 1 -10.7772,-10.7772 10.7772,10.7772 0 0 1 10.7772,-10.7772 10.7772,10.7772 0 0 1 10.7772,10.7772 z"
       style="opacity:0.98000004;fill:none;fill-opacity:1;stroke:#000000;stroke-width:3.44534302;stroke-miterlimit:3.98765421;stroke-dasharray:none;stroke-opacity:1"
       inkscape:connector-curvature="0" />
  </g>
</svg>
