<?xml version="1.0" encoding="UTF-8" standalone="no"?>
<svg
   xmlns:dc="http://purl.org/dc/elements/1.1/"
   xmlns:cc="http://creativecommons.org/ns#"
   xmlns:rdf="http://www.w3.org/1999/02/22-rdf-syntax-ns#"
   xmlns:svg="http://www.w3.org/2000/svg"
   xmlns="http://www.w3.org/2000/svg"
   id="svg26"
   viewBox=" 0 0 2745 945"
   height="10.5in"
   width="30.5in"
   version="1.1">
  <metadata
     id="metadata32">
    <rdf:RDF>
      <cc:Work
         rdf:about="">
        <dc:format>image/svg+xml</dc:format>
        <dc:type
           rdf:resource="http://purl.org/dc/dcmitype/StillImage" />
        <dc:title></dc:title>
      </cc:Work>
    </rdf:RDF>
  </metadata>
  <defs
     id="defs30" />
  <!-- Front-->
  <g
     id="g4"
     transform="translate(22.5, 22.5) ">
    <polygon
       id="polygon2"
       points="0, 0 33.75, 0 33.75, 10.62 67.5, 10.62 67.5, 0 94.5, 0 94.5, 10.62 121.5, 10.62 121.5, 0 148.5, 0 148.5, 10.62 175.5, 10.62 175.5, 0 202.5, 0 202.5, 10.62 229.5, 10.62 229.5, 0 256.5, 0 256.5, 10.62 283.5, 10.62 283.5, 0 310.5, 0 310.5, 10.62 337.5, 10.62 337.5, 0 364.5, 0 364.5, 10.62 391.5, 10.62 391.5, 0 418.5, 0 418.5, 10.62 445.5, 10.62 445.5, 0 472.5, 0 472.5, 10.62 499.5, 10.62 499.5, 0 526.5, 0 526.5, 10.62 553.5, 10.62 553.5, 0 580.5, 0 580.5, 10.62 607.5, 10.62 607.5, 0 634.5, 0 634.5, 10.62 661.5, 10.62 661.5, 0 688.5, 0 688.5, 10.62 715.5, 10.62 715.5, 0 742.5, 0 742.5, 10.62 769.5, 10.62 769.5, 0 796.5, 0 796.5, 10.62 823.5, 10.62 823.5, 0 850.5, 0 850.5, 10.62 877.5, 10.62 877.5, 0 904.5, 0 904.5, 10.62 931.5, 10.62 931.5, 0 958.5, 0 958.5, 10.62 985.5, 10.62 985.5, 0 1012.5, 0 1012.5, 10.62 1046.25, 10.62 1046.25, 0 1080, 0 1080, 42.75000000000001 1069.38, 42.75000000000001 1069.38, 85.50000000000001 1080, 85.50000000000001 1080, 112.50000000000001 1069.38, 112.50000000000001 1069.38, 139.5 1080, 139.5 1080, 166.5 1069.38, 166.5 1069.38, 193.5 1080, 193.5 1080, 220.5 1069.38, 220.5 1069.38, 247.5 1080, 247.5 1080, 274.5 1069.38, 274.5 1069.38, 317.25 1080, 317.25 1080, 360 1046.25, 360 1046.25, 349.38 1012.5, 349.38 1012.5, 360 985.5, 360 985.5, 349.38 958.5, 349.38 958.5, 360 931.5, 360 931.5, 349.38 904.5, 349.38 904.5, 360 877.5, 360 877.5, 349.38 850.5, 349.38 850.5, 360 823.5, 360 823.5, 349.38 796.5, 349.38 796.5, 360 769.5, 360 769.5, 349.38 742.5, 349.38 742.5, 360 715.5, 360 715.5, 349.38 688.5, 349.38 688.5, 360 661.5, 360 661.5, 349.38 634.5, 349.38 634.5, 360 607.5, 360 607.5, 349.38 580.5, 349.38 580.5, 360 553.5, 360 553.5, 349.38 526.5, 349.38 526.5, 360 499.5, 360 499.5, 349.38 472.5, 349.38 472.5, 360 445.5, 360 445.5, 349.38 418.5, 349.38 418.5, 360 391.5, 360 391.5, 349.38 364.5, 349.38 364.5, 360 337.5, 360 337.5, 349.38 310.5, 349.38 310.5, 360 283.5, 360 283.5, 349.38 256.5, 349.38 256.5, 360 229.5, 360 229.5, 349.38 202.5, 349.38 202.5, 360 175.5, 360 175.5, 349.38 148.5, 349.38 148.5, 360 121.5, 360 121.5, 349.38 94.5, 349.38 94.5, 360 67.5, 360 67.5, 349.38 33.75, 349.38 33.75, 360 0, 360 0, 317.25 10.62, 317.25 10.62, 274.5 0, 274.5 0, 247.5 10.62, 247.5 10.62, 220.5 0, 220.5 0, 193.5 10.62, 193.5 10.62, 166.5 0, 166.5 0, 139.5 10.62, 139.5 10.62, 112.50000000000001 0, 112.50000000000001 0, 85.50000000000001 10.62, 85.50000000000001 10.62, 42.75000000000001 0, 42.75000000000001 "
       style="stroke:#000000; fill:none; stroke-width:0.9" />
  </g>
  <!-- Back-->
  <g
     id="g8"
     transform="translate(1108.125,22.5)">
    <polygon
       id="polygon6"
       points="67.5,10.62 67.5,0 94.5,0 94.5,10.62 121.5,10.62 121.5,0 148.5,0 148.5,10.62 175.5,10.62 175.5,0 202.5,0 202.5,10.62 229.5,10.62 229.5,0 256.5,0 256.5,10.62 283.5,10.62 283.5,0 310.5,0 310.5,10.62 337.5,10.62 337.5,0 364.5,0 364.5,10.62 391.5,10.62 391.5,0 418.5,0 418.5,10.62 445.5,10.62 445.5,0 472.5,0 472.5,10.62 499.5,10.62 499.5,0 526.5,0 526.5,10.62 553.5,10.62 553.5,0 580.5,0 580.5,10.62 607.5,10.62 607.5,0 634.5,0 634.5,10.62 661.5,10.62 661.5,0 688.5,0 688.5,10.62 715.5,10.62 715.5,0 742.5,0 742.5,10.62 769.5,10.62 769.5,0 796.5,0 796.5,10.62 823.5,10.62 823.5,0 850.5,0 850.5,10.62 877.5,10.62 877.5,0 904.5,0 904.5,10.62 931.5,10.62 931.5,0 958.5,0 958.5,10.62 985.5,10.62 985.5,0 1012.5,0 1012.5,10.62 1046.25,10.62 1046.25,0 1080,0 1080,42.75 1069.38,42.75 1069.38,85.5 1080,85.5 1080,112.5 1069.38,112.5 1069.38,139.5 1080,139.5 1080,166.5 1069.38,166.5 1069.38,193.5 1080,193.5 1080,220.5 1069.38,220.5 1069.38,247.5 1080,247.5 1080,274.5 1069.38,274.5 1069.38,317.25 1080,317.25 1080,360 1046.25,360 1046.25,349.38 1012.5,349.38 1012.5,360 985.5,360 985.5,349.38 958.5,349.38 958.5,360 931.5,360 931.5,349.38 904.5,349.38 904.5,360 877.5,360 877.5,349.38 850.5,349.38 850.5,360 823.5,360 823.5,349.38 796.5,349.38 796.5,360 769.5,360 769.5,349.38 742.5,349.38 742.5,360 715.5,360 715.5,349.38 688.5,349.38 688.5,360 661.5,360 661.5,349.38 634.5,349.38 634.5,360 607.5,360 607.5,349.38 580.5,349.38 580.5,360 553.5,360 553.5,349.38 526.5,349.38 526.5,360 499.5,360 499.5,349.38 472.5,349.38 472.5,360 445.5,360 445.5,349.38 418.5,349.38 418.5,360 391.5,360 391.5,349.38 364.5,349.38 364.5,360 337.5,360 337.5,349.38 310.5,349.38 310.5,360 283.5,360 283.5,349.38 256.5,349.38 256.5,360 229.5,360 229.5,349.38 202.5,349.38 202.5,360 175.5,360 175.5,349.38 148.5,349.38 148.5,360 121.5,360 121.5,349.38 94.5,349.38 94.5,360 67.5,360 67.5,349.38 33.75,349.38 33.75,360 0,360 0,317.25 10.62,317.25 10.62,274.5 0,274.5 0,247.5 10.62,247.5 10.62,220.5 0,220.5 0,193.5 10.62,193.5 10.62,166.5 0,166.5 0,139.5 10.62,139.5 10.62,112.5 0,112.5 0,85.5 10.62,85.5 10.62,42.75 0,42.75 0,0 33.75,0 33.75,10.62 "
       style="fill:none;stroke:#000000;stroke-width:0.89999998" />
  </g>
  <!-- Left-->
  <g
     id="g12"
     transform="translate(1661.6723,392.48688)">
    <polygon
       id="polygon10"
       points="33.75,10.62 67.5,10.62 67.5,0 94.5,0 94.5,10.62 121.5,10.62 121.5,0 148.5,0 148.5,10.62 175.5,10.62 175.5,0 202.5,0 202.5,10.62 229.5,10.62 229.5,0 256.5,0 256.5,10.62 283.5,10.62 283.5,0 310.5,0 310.5,10.62 337.5,10.62 337.5,0 364.5,0 364.5,10.62 391.5,10.62 391.5,0 418.5,0 418.5,10.62 445.5,10.62 445.5,0 472.5,0 472.5,10.62 506.25,10.62 506.25,0 529.38,0 529.38,42.75 540,42.75 540,85.5 529.38,85.5 529.38,112.5 540,112.5 540,139.5 529.38,139.5 529.38,166.5 540,166.5 540,193.5 529.38,193.5 529.38,220.5 540,220.5 540,247.5 529.38,247.5 529.38,274.5 540,274.5 540,317.25 529.38,317.25 529.38,360 506.25,360 506.25,349.38 472.5,349.38 472.5,360 445.5,360 445.5,349.38 418.5,349.38 418.5,360 391.5,360 391.5,349.38 364.5,349.38 364.5,360 337.5,360 337.5,349.38 310.5,349.38 310.5,360 283.5,360 283.5,349.38 256.5,349.38 256.5,360 229.5,360 229.5,349.38 202.5,349.38 202.5,360 175.5,360 175.5,349.38 148.5,349.38 148.5,360 121.5,360 121.5,349.38 94.5,349.38 94.5,360 67.5,360 67.5,349.38 33.75,349.38 33.75,360 10.62,360 10.62,317.25 0,317.25 0,274.5 10.62,274.5 10.62,247.5 0,247.5 0,220.5 10.62,220.5 10.62,193.5 0,193.5 0,166.5 10.62,166.5 10.62,139.5 0,139.5 0,112.5 10.62,112.5 10.62,85.5 0,85.5 0,42.75 10.62,42.75 10.62,0 33.75,0 "
       style="fill:none;stroke:#000000;stroke-width:0.89999998" />
  </g>
  <!-- Right-->
  <g
     id="g16"
     transform="translate(1110,391.5)">
    <polygon
       id="polygon14"
       points="94.5,10.62 121.5,10.62 121.5,0 148.5,0 148.5,10.62 175.5,10.62 175.5,0 202.5,0 202.5,10.62 229.5,10.62 229.5,0 256.5,0 256.5,10.62 283.5,10.62 283.5,0 310.5,0 310.5,10.62 337.5,10.62 337.5,0 364.5,0 364.5,10.62 391.5,10.62 391.5,0 418.5,0 418.5,10.62 445.5,10.62 445.5,0 472.5,0 472.5,10.62 506.25,10.62 506.25,0 529.38,0 529.38,42.75 540,42.75 540,85.5 529.38,85.5 529.38,112.5 540,112.5 540,139.5 529.38,139.5 529.38,166.5 540,166.5 540,193.5 529.38,193.5 529.38,220.5 540,220.5 540,247.5 529.38,247.5 529.38,274.5 540,274.5 540,317.25 529.38,317.25 529.38,360 506.25,360 506.25,349.38 472.5,349.38 472.5,360 445.5,360 445.5,349.38 418.5,349.38 418.5,360 391.5,360 391.5,349.38 364.5,349.38 364.5,360 337.5,360 337.5,349.38 310.5,349.38 310.5,360 283.5,360 283.5,349.38 256.5,349.38 256.5,360 229.5,360 229.5,349.38 202.5,349.38 202.5,360 175.5,360 175.5,349.38 148.5,349.38 148.5,360 121.5,360 121.5,349.38 94.5,349.38 94.5,360 67.5,360 67.5,349.38 33.75,349.38 33.75,360 10.62,360 10.62,317.25 0,317.25 0,274.5 10.62,274.5 10.62,247.5 0,247.5 0,220.5 10.62,220.5 10.62,193.5 0,193.5 0,166.5 10.62,166.5 10.62,139.5 0,139.5 0,112.5 10.62,112.5 10.62,85.5 0,85.5 0,42.75 10.62,42.75 10.62,0 33.75,0 33.75,10.62 67.5,10.62 67.5,0 94.5,0 "
       style="fill:none;stroke:#000000;stroke-width:0.89999998" />
  </g>
  <!-- Top-->
  <g
     id="g20"
     transform="translate(22.5, 382.5) ">
    <polygon
       id="polygon18"
       points="10.62, 10.62 33.75, 10.62 33.75, 0 67.5, 0 67.5, 10.62 94.5, 10.62 94.5, 0 121.5, 0 121.5, 10.62 148.5, 10.62 148.5, 0 175.5, 0 175.5, 10.62 202.5, 10.62 202.5, 0 229.5, 0 229.5, 10.62 256.5, 10.62 256.5, 0 283.5, 0 283.5, 10.62 310.5, 10.62 310.5, 0 337.5, 0 337.5, 10.62 364.5, 10.62 364.5, 0 391.5, 0 391.5, 10.62 418.5, 10.62 418.5, 0 445.5, 0 445.5, 10.62 472.5, 10.62 472.5, 0 499.5, 0 499.5, 10.62 526.5, 10.62 526.5, 0 553.5, 0 553.5, 10.62 580.5, 10.62 580.5, 0 607.5, 0 607.5, 10.62 634.5, 10.62 634.5, 0 661.5, 0 661.5, 10.62 688.5, 10.62 688.5, 0 715.5, 0 715.5, 10.62 742.5, 10.62 742.5, 0 769.5, 0 769.5, 10.62 796.5, 10.62 796.5, 0 823.5, 0 823.5, 10.62 850.5, 10.62 850.5, 0 877.5, 0 877.5, 10.62 904.5, 10.62 904.5, 0 931.5, 0 931.5, 10.62 958.5, 10.62 958.5, 0 985.5, 0 985.5, 10.62 1012.5, 10.62 1012.5, 0 1046.25, 0 1046.25, 10.62 1069.38, 10.62 1069.38, 33.75 1080, 33.75 1080, 67.5 1069.38, 67.5 1069.38, 94.5 1080, 94.5 1080, 121.5 1069.38, 121.5 1069.38, 148.5 1080, 148.5 1080, 175.5 1069.38, 175.5 1069.38, 202.5 1080, 202.5 1080, 229.5 1069.38, 229.5 1069.38, 256.5 1080, 256.5 1080, 283.5 1069.38, 283.5 1069.38, 310.5 1080, 310.5 1080, 337.5 1069.38, 337.5 1069.38, 364.5 1080, 364.5 1080, 391.5 1069.38, 391.5 1069.38, 418.5 1080, 418.5 1080, 445.5 1069.38, 445.5 1069.38, 472.5 1080, 472.5 1080, 506.25 1069.38, 506.25 1069.38, 529.38 1046.25, 529.38 1046.25, 540 1012.5, 540 1012.5, 529.38 985.5, 529.38 985.5, 540 958.5, 540 958.5, 529.38 931.5, 529.38 931.5, 540 904.5, 540 904.5, 529.38 877.5, 529.38 877.5, 540 850.5, 540 850.5, 529.38 823.5, 529.38 823.5, 540 796.5, 540 796.5, 529.38 769.5, 529.38 769.5, 540 742.5, 540 742.5, 529.38 715.5, 529.38 715.5, 540 688.5, 540 688.5, 529.38 661.5, 529.38 661.5, 540 634.5, 540 634.5, 529.38 607.5, 529.38 607.5, 540 580.5, 540 580.5, 529.38 553.5, 529.38 553.5, 540 526.5, 540 526.5, 529.38 499.5, 529.38 499.5, 540 472.5, 540 472.5, 529.38 445.5, 529.38 445.5, 540 418.5, 540 418.5, 529.38 391.5, 529.38 391.5, 540 364.5, 540 364.5, 529.38 337.5, 529.38 337.5, 540 310.5, 540 310.5, 529.38 283.5, 529.38 283.5, 540 256.5, 540 256.5, 529.38 229.5, 529.38 229.5, 540 202.5, 540 202.5, 529.38 175.5, 529.38 175.5, 540 148.5, 540 148.5, 529.38 121.5, 529.38 121.5, 540 94.5, 540 94.5, 529.38 67.5, 529.38 67.5, 540 33.75, 540 33.75, 529.38 10.62, 529.38 10.62, 506.25 0, 506.25 0, 472.5 10.62, 472.5 10.62, 445.5 0, 445.5 0, 418.5 10.62, 418.5 10.62, 391.5 0, 391.5 0, 364.5 10.62, 364.5 10.62, 337.5 0, 337.5 0, 310.5 10.62, 310.5 10.62, 283.5 0, 283.5 0, 256.5 10.62, 256.5 10.62, 229.5 0, 229.5 0, 202.5 10.62, 202.5 10.62, 175.5 0, 175.5 0, 148.5 10.62, 148.5 10.62, 121.5 0, 121.5 0, 94.5 10.62, 94.5 10.62, 67.5 0, 67.5 0, 33.75 10.62, 33.75 "
       style="stroke:#000000; fill:none; stroke-width:0.9" />
  </g>
  <!-- Bottom-->
</svg>
