<?xml version="1.0" encoding="UTF-8" standalone="no"?>
<!-- Created with Inkscape (http://www.inkscape.org/) -->

<svg
   xmlns:dc="http://purl.org/dc/elements/1.1/"
   xmlns:cc="http://creativecommons.org/ns#"
   xmlns:rdf="http://www.w3.org/1999/02/22-rdf-syntax-ns#"
   xmlns:svg="http://www.w3.org/2000/svg"
   xmlns="http://www.w3.org/2000/svg"
   xmlns:sodipodi="http://sodipodi.sourceforge.net/DTD/sodipodi-0.dtd"
   xmlns:inkscape="http://www.inkscape.org/namespaces/inkscape"
   width="180mm"
   height="180mm"
   viewBox="0 0 180 180"
   version="1.1"
   id="svg8"
   sodipodi:docname="Bot.svg"
   inkscape:version="0.92.3 (2405546, 2018-03-11)">
  <defs
     id="defs2" />
  <sodipodi:namedview
     id="base"
     pagecolor="#737373"
     bordercolor="#666666"
     borderopacity="1.0"
     inkscape:pageopacity="0"
     inkscape:pageshadow="2"
     inkscape:zoom="0.50434028"
     inkscape:cx="864"
     inkscape:cy="576"
     inkscape:document-units="mm"
     inkscape:current-layer="layer1"
     showgrid="false"
     units="mm"
     inkscape:pagecheckerboard="false"
     inkscape:window-width="1366"
     inkscape:window-height="768"
     inkscape:window-x="0"
     inkscape:window-y="0"
     inkscape:window-maximized="1"
     showguides="true"
     inkscape:guide-bbox="true"
     inkscape:snap-global="false" />
  <metadata
     id="metadata5">
    <rdf:RDF>
      <cc:Work
         rdf:about="">
        <dc:format>image/svg+xml</dc:format>
        <dc:type
           rdf:resource="http://purl.org/dc/dcmitype/StillImage" />
        <dc:title></dc:title>
      </cc:Work>
    </rdf:RDF>
  </metadata>
  <g
     inkscape:label="Layer 1"
     inkscape:groupmode="layer"
     id="layer1"
     transform="translate(0,-116.99998)">
    <g
       id="g5055" />
    <g
       id="g5394"
       transform="rotate(27.949632,206.17949,54.231553)" />
    <g
       id="g5817"
       transform="translate(-2.5018588,119.47428)">
      <g
         transform="translate(-104.24583,-81.491666)"
         id="g5766">
        <g
           id="g5693"
           transform="rotate(90,160.55585,85.518897)">
          <circle
             r="2.4851964"
             cy="57.215881"
             cx="207.78398"
             id="path4781"
             style="opacity:0.98000004;fill:none;fill-opacity:0;stroke:#000000;stroke-width:0.02960751;stroke-miterlimit:3.98765421;stroke-dasharray:none;stroke-opacity:1" />
          <g
             id="g5671">
            <path
               style="opacity:0.98000004;fill:none;fill-opacity:0;stroke:#000000;stroke-width:0.09878863;stroke-miterlimit:3.98765421;stroke-dasharray:none;stroke-opacity:1"
               d="m 207.18898,4.4831588 c 22.48168,0 41.67744,14.0686752 49.26208,33.8849182 -9.23504,5.331851 -30.90056,16.75824 -43.42013,23.146977 -7.63147,0 -5.97999,-0.07919 -11.67592,-0.07919 C 188.94946,53.739593 170.0889,41.83472 159.11915,35.501329 167.39869,17.208202 185.80778,4.4831588 207.18898,4.4831588 Z"
               id="circle4808"
               inkscape:connector-curvature="0"
               sodipodi:nodetypes="sccccs" />
            <g
               id="g5651">
              <g
                 id="g4816"
                 transform="matrix(0.43110658,0.11551466,-0.11551466,0.43110658,204.34499,-82.927614)">
                <path
                   inkscape:connector-curvature="0"
                   id="path4810"
                   d="m 63.542036,212.38226 v -4.50476 c 0,0 0.702154,-1.52338 2.638568,-1.52338 1.936414,0 2.564059,1.48036 2.564059,1.48036 v 19.05458"
                   style="opacity:0.98000004;fill:none;fill-opacity:0;stroke:#000000;stroke-width:0.1;stroke-miterlimit:3.98765421;stroke-dasharray:none;stroke-opacity:1" />
                <path
                   inkscape:connector-curvature="0"
                   id="path4812"
                   d="m 68.744663,207.83448 c 0,0 0.624337,-1.11622 2.386382,-1.11622 1.762049,0 2.874921,1.80842 2.874921,1.80842 v 18.64059"
                   style="opacity:0.98000004;fill:none;fill-opacity:0;stroke:#000000;stroke-width:0.1;stroke-miterlimit:3.98765421;stroke-dasharray:none;stroke-opacity:1" />
                <path
                   sodipodi:nodetypes="csccscscssscccscc"
                   inkscape:connector-curvature="0"
                   id="path4814"
                   d="m 74.145073,214.64747 c 0,0 0.719503,-1.26518 2.191353,-1.26518 1.471851,0 2.337951,1.34982 2.337951,1.34982 v 25.60415 c 0,0 -0.605475,7.11356 -5.131272,7.43659 -0.106297,0.008 -7.888935,0 -8.266227,0 0,0 -5.18181,0.26077 -6.943855,-2.33593 -1.762048,-2.5967 -6.120794,-13.26172 -6.120794,-13.26172 0,0 -0.463698,-1.85479 0.741913,-4.17327 1.205611,-2.31848 1.112871,-3.80231 1.112871,-4.35875 0,-0.55643 3.895053,-1.76205 4.173271,0.83466 0.278217,2.5967 -1.205611,5.74983 -0.741916,6.76997 0.463698,1.02013 0.927394,3.89505 1.29835,2.41122 0.370959,-1.48383 0,-21.33004 0,-21.33004 0,0 0.526148,-1.34322 2.326524,-1.34322 1.800376,0 2.418794,1.39649 2.418794,1.39649 v 13.81125"
                   style="opacity:0.98000004;fill:none;fill-opacity:0;stroke:#000000;stroke-width:0.1;stroke-miterlimit:3.98765421;stroke-dasharray:none;stroke-opacity:1" />
              </g>
              <g
                 transform="matrix(0.82327652,0,0,0.82327652,36.378127,0.35667956)"
                 id="g5336">
                <path
                   inkscape:connector-curvature="0"
                   id="path4820"
                   d="m 178.23079,34.17346 v -8.781645 c 0,0 0.65868,-0.957919 1.65918,-0.957919 1.00049,0 1.34672,0.863493 1.34672,0.863493 v 7.239344 c 0,0 0.0655,0.753413 -1.30495,0.753413 -1.37046,0 -1.71281,-0.988886 -1.71281,-0.988886"
                   style="opacity:0.98000004;fill:none;fill-opacity:0;stroke:#000000;stroke-width:0.06787933;stroke-miterlimit:3.98765421;stroke-dasharray:none;stroke-opacity:1" />
                <path
                   inkscape:connector-curvature="0"
                   id="path4822"
                   d="m 181.23669,25.297389 c 0,0 0.44065,-1.699672 1.69967,-1.699672 1.25902,0 1.60525,1.133117 1.60525,1.133117 v 8.215083 c 0,0 -0.36136,0.958415 -1.66003,0.958415 -1.29866,0 -1.64489,-1.367599 -1.64489,-1.367599"
                   style="opacity:0.98000004;fill:none;fill-opacity:0;stroke:#000000;stroke-width:0.06787933;stroke-miterlimit:3.98765421;stroke-dasharray:none;stroke-opacity:1" />
                <path
                   inkscape:connector-curvature="0"
                   id="path4824"
                   d="m 184.54161,24.730834 c 0,0 0.47265,-0.817906 1.41666,-0.817906 0.944,0 1.68324,0.971815 1.68324,0.971815 v 7.935271 c 0,0 -0.0784,0.908422 -1.57343,0.908422 -1.49499,0 -1.52647,-0.782519 -1.52647,-0.782519"
                   style="opacity:0.98000004;fill:none;fill-opacity:0;stroke:#000000;stroke-width:0.06787933;stroke-miterlimit:3.98765421;stroke-dasharray:none;stroke-opacity:1" />
                <path
                   inkscape:connector-curvature="0"
                   id="path4826"
                   d="m 187.7521,25.517718 c 0,0 0.37628,-0.681047 1.17962,-0.681047 0.80333,0 1.4534,0.398879 1.59295,0.91969 0.13955,0.520818 0,6.308244 0,6.308244 0,0 -0.27252,0.788181 -1.36516,0.788181 -1.09265,0 -1.50183,-0.851132 -1.50183,-0.851132"
                   style="opacity:0.98000004;fill:none;fill-opacity:0;stroke:#000000;stroke-width:0.06787933;stroke-miterlimit:3.98765421;stroke-dasharray:none;stroke-opacity:1" />
                <path
                   sodipodi:nodetypes="ccscssssccc"
                   inkscape:connector-curvature="0"
                   id="path4828"
                   d="M 190.52467,32.064605 V 38.9892 c 0,0 -0.0809,4.591196 -2.63848,4.569963 l -6.05146,-0.05023 c 0,0 -4.50099,-0.05023 -6.26361,-4.142031 -1.76262,-4.091807 -2.45508,-6.232131 -2.45508,-6.861637 0,-0.629513 1.25901,-1.32197 1.51082,-2.95869 0.2518,-1.63672 0.31475,-2.769837 1.07016,-2.958691 0.75541,-0.188854 2.20328,0.314757 1.95148,2.392129 -0.3969,1.767856 -1.1896,3.336555 -0.55082,4.799999 0.73115,0.04602 4.41035,1.835159 6.0118,3.383615"
                   style="opacity:0.98000004;fill:none;fill-opacity:0;stroke:#000000;stroke-width:0.06787933;stroke-miterlimit:3.98765421;stroke-dasharray:none;stroke-opacity:1" />
              </g>
              <g
                 transform="matrix(0.58214441,0.58214441,-0.58214441,0.58214441,111.84062,-125.90648)"
                 id="g5329">
                <path
                   inkscape:connector-curvature="0"
                   id="path4832"
                   d="m 230.82939,46.764074 c 0,0 -2.81549,-0.05518 -4.14043,-2.760284 -1.32494,-2.705084 -1.38014,-4.747694 -1.43535,-5.520574 -0.0552,-0.77288 1.54576,-4.030019 1.9322,-4.361256 0.38644,-0.331237 1.82179,-0.386437 2.70509,-0.77288 0.88329,-0.386438 1.76658,-0.993705 2.37384,-0.993705 0.60726,0 1.04891,1.159323 0.88329,1.490554 -0.16561,0.331237 -0.93849,1.600973 -1.54576,1.766585 -0.60726,0.165618 -2.20823,0.828086 -2.42905,1.048911 -0.22082,0.220825 -0.49685,0.552056 -0.27603,1.159317 0.22082,0.607268 2.04261,2.097822 2.09782,2.649878 0.0552,0.552055 0.11041,0.552055 0.11041,0.552055"
                   style="opacity:0.98000004;fill:none;fill-opacity:0;stroke:#000000;stroke-width:0.05952788;stroke-miterlimit:3.98765421;stroke-dasharray:none;stroke-opacity:1" />
                <path
                   inkscape:connector-curvature="0"
                   id="path4834"
                   d="m 227.0754,34.011547 c 0,0 0.11041,-1.600966 -0.11041,-2.373846 -0.22082,-0.77288 -1.98741,-9.440181 -1.98741,-9.440181 0,0 0.0552,-0.717674 0.82809,-0.883292 0.77288,-0.165619 1.65617,0.331236 1.76658,0.662467 0.11042,0.331237 2.26344,10.213067 2.59467,10.323474 0.33124,0.110412 1.76658,-10.047443 2.20823,-10.544292 0.44165,-0.496856 1.04891,-0.77288 1.54576,-0.607268 0.49685,0.165619 0.9385,0.938499 0.8833,1.380148 -0.0552,0.441643 -1.65618,9.716205 -1.65618,9.716205"
                   style="opacity:0.98000004;fill:none;fill-opacity:0;stroke:#000000;stroke-width:0.05952788;stroke-miterlimit:3.98765421;stroke-dasharray:none;stroke-opacity:1" />
                <path
                   sodipodi:nodetypes="caccccc"
                   inkscape:connector-curvature="0"
                   id="path4836"
                   d="m 233.52136,31.30063 c 0,0 0.9418,-0.962964 1.52551,-0.88843 0.56815,0.07255 1.21989,1.210125 1.21989,1.210125 l -0.40012,5.796902 c 0,0 -0.28302,1.210124 -1.52242,1.122297 -1.2394,-0.08783 -1.41507,-1.102778 -1.41507,-1.102778 z"
                   style="opacity:0.98000004;fill:none;fill-opacity:0;stroke:#000000;stroke-width:0.05952788;stroke-miterlimit:3.98765421;stroke-dasharray:none;stroke-opacity:1" />
                <path
                   inkscape:connector-curvature="0"
                   id="path4838"
                   d="m 236.23748,32.22739 c 0,0 0.62458,-0.644098 1.22965,-0.585546 0.60506,0.05858 1.5029,0.02929 1.58097,1.239406 0.0781,1.210124 -0.40012,3.718212 -0.40012,3.718212 0,0 -0.27326,1.16133 -1.34676,1.053983 -1.0735,-0.107352 -1.35651,-1.239406 -1.35651,-1.239406"
                   style="opacity:0.98000004;fill:none;fill-opacity:0;stroke:#000000;stroke-width:0.05952788;stroke-miterlimit:3.98765421;stroke-dasharray:none;stroke-opacity:1" />
                <path
                   inkscape:connector-curvature="0"
                   id="path4840"
                   d="m 238.88219,35.691865 -0.31229,6.636185 c 0,0 -0.27325,3.90363 -2.96676,4.098816 -2.69351,0.19518 -4.77375,0.337208 -4.77375,0.337208"
                   style="opacity:0.98000004;fill:none;fill-opacity:0;stroke:#000000;stroke-width:0.05952788;stroke-miterlimit:3.98765421;stroke-dasharray:none;stroke-opacity:1" />
              </g>
            </g>
          </g>
        </g>
      </g>
      <g
         transform="translate(-90.4875,97.366666)"
         id="g5770">
        <circle
           style="opacity:0.98000004;fill:none;fill-opacity:0;stroke:#000000;stroke-width:0.1;stroke-miterlimit:3.98765421;stroke-dasharray:none;stroke-opacity:1"
           id="path5062"
           cx="207.78398"
           cy="23.112562"
           r="14.022917" />
        <path
           style="opacity:0.98000004;fill:none;fill-opacity:0;stroke:#000000;stroke-width:0.03410766;stroke-miterlimit:3.98765421;stroke-dasharray:none;stroke-opacity:1"
           d="m 192.80105,79.565731 h 29.96589 l -0.002,-5.971489 20.00293,-0.0056 V 7.7297635 H 172.8004 V 73.588642 l 19.98602,0.0056 z"
           id="rect5631"
           inkscape:connector-curvature="0"
           sodipodi:nodetypes="ccccccccc" />
      </g>
      <g
         transform="translate(-294.74583,-53.445833)"
         id="g5743">
        <path
           style="opacity:0.98000004;fill:none;fill-opacity:0;stroke:#000000;stroke-width:0.08802655;stroke-miterlimit:3.98765421;stroke-dasharray:none;stroke-opacity:1"
           d="m 301.70721,55.721817 h 69.91198 v 79.887563 h -69.91198 z"
           id="rect4890"
           inkscape:connector-curvature="0"
           sodipodi:nodetypes="ccccc" />
        <g
           id="g5734"
           transform="translate(0,-19.457222)">
          <rect
             transform="rotate(90)"
             y="-342.63705"
             x="94.591217"
             height="11.947681"
             width="2.1476822"
             id="rect5707"
             style="opacity:0.98000004;fill:none;fill-opacity:0;stroke:#000000;stroke-width:0.05231784;stroke-miterlimit:3.98765421;stroke-dasharray:none;stroke-opacity:1" />
          <rect
             style="opacity:0.98000004;fill:none;fill-opacity:0;stroke:#000000;stroke-width:0.02496885;stroke-miterlimit:3.98765421;stroke-dasharray:none;stroke-opacity:1"
             id="rect5633"
             width="30.175032"
             height="3.1750312"
             x="321.57568"
             y="83.812462" />
        </g>
      </g>
      <g
         id="g5780"
         transform="translate(-294.74583,28.575)">
        <path
           sodipodi:nodetypes="ccccc"
           inkscape:connector-curvature="0"
           id="path5772"
           d="m 301.70721,55.721817 h 69.91198 v 79.887563 h -69.91198 z"
           style="opacity:0.98000004;fill:none;fill-opacity:0;stroke:#000000;stroke-width:0.08802655;stroke-miterlimit:3.98765421;stroke-dasharray:none;stroke-opacity:1" />
        <g
           transform="translate(0,-19.457222)"
           id="g5778">
          <rect
             style="opacity:0.98000004;fill:none;fill-opacity:0;stroke:#000000;stroke-width:0.05231784;stroke-miterlimit:3.98765421;stroke-dasharray:none;stroke-opacity:1"
             id="rect5774"
             width="2.1476822"
             height="11.947681"
             x="94.591217"
             y="-342.63705"
             transform="rotate(90)" />
          <rect
             y="83.812462"
             x="321.57568"
             height="3.1750312"
             width="30.175032"
             id="rect5776"
             style="opacity:0.98000004;fill:none;fill-opacity:0;stroke:#000000;stroke-width:0.02496885;stroke-miterlimit:3.98765421;stroke-dasharray:none;stroke-opacity:1" />
        </g>
      </g>
    </g>
  </g>
</svg>
