<?xml version="1.0" encoding="UTF-8" standalone="no"?>
<svg
   xmlns:dc="http://purl.org/dc/elements/1.1/"
   xmlns:cc="http://creativecommons.org/ns#"
   xmlns:rdf="http://www.w3.org/1999/02/22-rdf-syntax-ns#"
   xmlns:svg="http://www.w3.org/2000/svg"
   xmlns="http://www.w3.org/2000/svg"
   id="svg8"
   version="1.1"
   viewBox="0 0 180 180"
   height="180mm"
   width="180mm">
  <defs
     id="defs2" />
  <metadata
     id="metadata5">
    <rdf:RDF>
      <cc:Work
         rdf:about="">
        <dc:format>image/svg+xml</dc:format>
        <dc:type
           rdf:resource="http://purl.org/dc/dcmitype/StillImage" />
        <dc:title></dc:title>
      </cc:Work>
    </rdf:RDF>
  </metadata>
  <g
     transform="translate(0,-116.99998)"
     id="layer1">
    <path
       id="path4781"
       d="m 173.21484,-82.111176 a 2.4851964,2.4851964 0 0 1 -2.4852,2.485197 2.4851964,2.4851964 0 0 1 -2.48519,-2.485197 2.4851964,2.4851964 0 0 1 2.48519,-2.485196 2.4851964,2.4851964 0 0 1 2.4852,2.485196 z"
       style="opacity:0.98000004;fill:none;fill-opacity:0;stroke:#000000;stroke-width:0.02960751;stroke-miterlimit:3.98765421;stroke-dasharray:none;stroke-opacity:1"
       transform="rotate(90)" />
    <path
       id="circle4808"
       d="m 134.8439,170.13464 c 0,22.48168 -14.06868,41.67744 -33.88492,49.26208 -5.331851,-9.23504 -16.75824,-30.90056 -23.146977,-43.42013 0,-7.63147 0.07919,-5.97999 0.07919,-11.67592 7.696271,-12.40555 19.601144,-31.26611 25.934537,-42.23586 18.29313,8.27954 31.01817,26.68863 31.01817,48.06983 z"
       style="opacity:0.98000004;fill:none;fill-opacity:0;stroke:#000000;stroke-width:0.09878863;stroke-miterlimit:3.98765421;stroke-dasharray:none;stroke-opacity:1" />
    <path
       style="opacity:0.98000004;fill:none;fill-opacity:0;stroke:#000000;stroke-width:0.04463144;stroke-miterlimit:3.98765421;stroke-dasharray:none;stroke-opacity:1"
       d="m 123.35524,170.15078 1.94204,0.52036 c 0,0 0.57563,0.47868 0.35194,1.31348 -0.22368,0.8348 -0.93438,0.93438 -0.93438,0.93438 l -8.21455,-2.20109"
       id="path4810" />
    <path
       style="opacity:0.98000004;fill:none;fill-opacity:0;stroke:#000000;stroke-width:0.04463144;stroke-miterlimit:3.98765421;stroke-dasharray:none;stroke-opacity:1"
       d="m 124.71484,172.919 c 0,0 0.40909,0.39809 0.20555,1.15772 -0.20354,0.75963 -1.11172,1.0305 -1.11172,1.0305 l -8.03608,-2.15326"
       id="path4812" />
    <path
       style="opacity:0.98000004;fill:none;fill-opacity:0;stroke:#000000;stroke-width:0.04463144;stroke-miterlimit:3.98765421;stroke-dasharray:none;stroke-opacity:1"
       d="m 121.15389,174.46015 c 0,0 0.46231,0.45633 0.29229,1.09085 -0.17002,0.63453 -0.85198,0.85198 -0.85198,0.85198 l -11.03812,-2.95765 c 0,0 -2.99676,-1.08274 -2.61322,-3.07116 0.009,-0.0468 0.91128,-3.40097 0.95487,-3.56362 0,0 0.48615,-2.26404 1.80915,-2.72371 1.323,-0.45968 6.42426,-1.10679 6.42426,-1.10679 0,0 0.85317,0.0144 1.71342,0.80191 0.86024,0.78757 1.51065,0.91899 1.75053,0.98327 0.23988,0.0643 0.3097,1.88272 -0.8419,1.70271 -1.15159,-0.18002 -2.33952,-1.18394 -2.83288,-1.10188 -0.49335,0.0821 -1.78631,-0.0501 -1.18947,0.2812 0.59684,0.33133 9.19552,2.46393 9.19552,2.46393 0,0 0.5183,0.38199 0.31033,1.15814 -0.20797,0.77616 -0.88145,0.88145 -0.88145,0.88145 l -5.95412,-1.59541"
       id="path4814" />
    <path
       style="opacity:0.98000004;fill:none;fill-opacity:0;stroke:#000000;stroke-width:0.05588346;stroke-miterlimit:3.98765421;stroke-dasharray:none;stroke-opacity:1"
       d="m 110.83617,146.05701 h 7.22972 c 0,0 0.78864,0.54228 0.78864,1.36597 0,0.82368 -0.7109,1.10872 -0.7109,1.10872 h -5.95998 c 0,0 -0.62027,0.0539 -0.62027,-1.07434 0,-1.12826 0.81413,-1.41011 0.81413,-1.41011"
       id="path4820" />
    <path
       style="opacity:0.98000004;fill:none;fill-opacity:0;stroke:#000000;stroke-width:0.05588346;stroke-miterlimit:3.98765421;stroke-dasharray:none;stroke-opacity:1"
       d="m 118.14363,148.5317 c 0,0 1.3993,0.36278 1.3993,1.3993 0,1.03652 -0.93286,1.32156 -0.93286,1.32156 h -6.76329 c 0,0 -0.78904,-0.2975 -0.78904,-1.36666 0,-1.06916 1.12591,-1.3542 1.12591,-1.3542"
       id="path4822" />
    <path
       style="opacity:0.98000004;fill:none;fill-opacity:0;stroke:#000000;stroke-width:0.05588346;stroke-miterlimit:3.98765421;stroke-dasharray:none;stroke-opacity:1"
       d="m 118.61007,151.25256 c 0,0 0.67336,0.38912 0.67336,1.16631 0,0.77717 -0.80007,1.38577 -0.80007,1.38577 h -6.53293 c 0,0 -0.74788,-0.0645 -0.74788,-1.29537 0,-1.23079 0.64423,-1.25671 0.64423,-1.25671"
       id="path4824" />
    <path
       style="opacity:0.98000004;fill:none;fill-opacity:0;stroke:#000000;stroke-width:0.05588346;stroke-miterlimit:3.98765421;stroke-dasharray:none;stroke-opacity:1"
       d="m 117.96224,153.89568 c 0,0 0.56069,0.30979 0.56069,0.97116 0,0.66136 -0.32839,1.19655 -0.75716,1.31144 -0.42877,0.11488 -5.19343,0 -5.19343,0 0,0 -0.64889,-0.22436 -0.64889,-1.12391 0,-0.89955 0.70072,-1.23642 0.70072,-1.23642"
       id="path4826" />
    <path
       style="opacity:0.98000004;fill:none;fill-opacity:0;stroke:#000000;stroke-width:0.05588346;stroke-miterlimit:3.98765421;stroke-dasharray:none;stroke-opacity:1"
       d="m 112.57234,156.17828 h -5.70085 c 0,0 -3.77983,-0.0666 -3.76235,-2.1722 l 0.0414,-4.98203 c 0,0 0.0414,-3.70556 3.41003,-5.15668 3.36869,-1.45112 5.13077,-2.02121 5.64903,-2.02121 0.51826,0 1.08835,1.03651 2.43582,1.24382 1.34747,0.2073 2.28034,0.25913 2.43582,0.88104 0.15548,0.62191 -0.25913,1.81391 -1.96938,1.60661 -1.45544,-0.32676 -2.74691,-0.97937 -3.95173,-0.45348 -0.0379,0.60194 -1.51084,3.63094 -2.78565,4.94937"
       id="path4828" />
    <path
       style="opacity:0.98000004;fill:none;fill-opacity:0;stroke:#000000;stroke-width:0.04900791;stroke-miterlimit:3.98765421;stroke-dasharray:none;stroke-opacity:1"
       d="m 103.63406,181.93888 c 0,0 1.67114,-1.6069 4.01721,-0.80345 2.34605,0.80344 3.56728,1.9604 4.04935,2.37819 0.48206,0.4178 1.4462,3.24591 1.41406,3.6637 -0.0321,0.41779 -0.83558,1.28551 -1.12482,2.02468 -0.28924,0.73917 -0.44993,1.60689 -0.80344,1.9604 -0.35351,0.35351 -1.28551,-0.0643 -1.38192,-0.35352 -0.0964,-0.28923 -0.38566,-1.47833 -0.12855,-1.92826 0.2571,-0.44992 0.80344,-1.76757 0.80344,-2.02467 -10e-6,-0.2571 -0.0321,-0.61062 -0.5142,-0.83558 -0.48207,-0.22497 -2.41033,-0.0321 -2.76385,-0.32138 -0.35351,-0.28924 -0.38565,-0.2571 -0.38565,-0.2571"
       id="path4832" />
    <path
       style="opacity:0.98000004;fill:none;fill-opacity:0;stroke:#000000;stroke-width:0.04900791;stroke-miterlimit:3.98765421;stroke-dasharray:none;stroke-opacity:1"
       d="m 113.24323,187.17732 c 0,0 0.86772,0.99627 1.4462,1.31765 0.57848,0.32138 6.65251,4.33859 6.65251,4.33859 0,0 0.38565,0.44992 0.0321,0.99627 -0.35351,0.54634 -1.15695,0.7713 -1.41405,0.64275 -0.25711,-0.12854 -7.26313,-4.62783 -7.52023,-4.49928 -0.2571,0.12856 4.82066,6.87747 4.85279,7.42381 0.0321,0.54635 -0.16069,1.06055 -0.54633,1.25338 -0.38566,0.19282 -1.09269,0 -1.31766,-0.28924 -0.22496,-0.28924 -4.6921,-6.62037 -4.6921,-6.62037"
       id="path4834" />
    <path
       style="opacity:0.98000004;fill:none;fill-opacity:0;stroke:#000000;stroke-width:0.04900791;stroke-miterlimit:3.98765421;stroke-dasharray:none;stroke-opacity:1"
       d="m 111.0689,192.50795 c 0,0 0.0123,1.10885 -0.37087,1.40526 -0.37298,0.28851 -1.41462,0.006 -1.41462,0.006 l -3.14171,-3.60756 c 0,0 -0.53971,-0.86922 0.23293,-1.5396 0.77264,-0.67038 1.46575,-0.1818 1.46575,-0.1818 z"
       id="path4836" />
    <path
       style="opacity:0.98000004;fill:none;fill-opacity:0;stroke:#000000;stroke-width:0.04900791;stroke-miterlimit:3.98765421;stroke-dasharray:none;stroke-opacity:1"
       d="m 108.94822,193.54961 c 0,0 0.0114,0.73856 -0.37496,1.05671 -0.38634,0.31813 -0.89196,0.85785 -1.64187,0.19884 -0.74993,-0.659 -1.93161,-2.39746 -1.93161,-2.39746 0,0 -0.51698,-0.83514 0.17044,-1.39758 0.68743,-0.56244 1.5112,-0.0682 1.5112,-0.0682"
       id="path4838" />
    <path
       style="opacity:0.98000004;fill:none;fill-opacity:0;stroke:#000000;stroke-width:0.04900791;stroke-miterlimit:3.98765421;stroke-dasharray:none;stroke-opacity:1"
       d="m 105.39179,193.07239 -3.68142,-4.04501 c 0,0 -2.113407,-2.43155 -0.65902,-4.11319 1.45439,-1.68163 2.58271,-2.97531 2.58271,-2.97531"
       id="path4840" />
    <path
       id="path5062"
       d="m 128.81753,239.95351 a 14.022917,14.022917 0 0 1 -14.02291,14.02291 14.022917,14.022917 0 0 1 -14.02292,-14.02291 14.022917,14.022917 0 0 1 14.02292,-14.02292 14.022917,14.022917 0 0 1 14.02291,14.02292 z"
       style="opacity:0.98000004;fill:none;fill-opacity:0;stroke:#000000;stroke-width:0.1;stroke-miterlimit:3.98765421;stroke-dasharray:none;stroke-opacity:1" />
    <path
       id="rect5631"
       d="m 99.811691,296.40668 h 29.965889 l -0.002,-5.97149 20.00293,-0.006 V 224.57071 H 79.811041 v 65.85888 l 19.98602,0.006 z"
       style="opacity:0.98000004;fill:none;fill-opacity:0;stroke:#000000;stroke-width:0.03410766;stroke-miterlimit:3.98765421;stroke-dasharray:none;stroke-opacity:1" />
    <path
       id="rect4890"
       d="M 4.45952,121.75026 H 74.3715 v 79.88757 H 4.45952 Z"
       style="opacity:0.98000004;fill:none;fill-opacity:0;stroke:#000000;stroke-width:0.08802655;stroke-miterlimit:3.98765421;stroke-dasharray:none;stroke-opacity:1" />
    <path
       id="rect5707"
       d="m 141.16245,-45.389366 h 2.14768 v 11.947681 h -2.14768 z"
       style="opacity:0.98000004;fill:none;fill-opacity:0;stroke:#000000;stroke-width:0.05231784;stroke-miterlimit:3.98765421;stroke-dasharray:none;stroke-opacity:1"
       transform="rotate(90)" />
    <path
       id="rect5633"
       d="m 24.327993,130.38368 h 30.175032 v 3.17503 H 24.327993 Z"
       style="opacity:0.98000004;fill:none;fill-opacity:0;stroke:#000000;stroke-width:0.02496885;stroke-miterlimit:3.98765421;stroke-dasharray:none;stroke-opacity:1" />
    <path
       style="opacity:0.98000004;fill:none;fill-opacity:0;stroke:#000000;stroke-width:0.08802655;stroke-miterlimit:3.98765421;stroke-dasharray:none;stroke-opacity:1"
       d="M 4.45952,203.7711 H 74.3715 v 79.88756 H 4.45952 Z"
       id="path5772" />
    <path
       id="rect5774"
       d="m 223.18329,-45.389359 h 2.14768 v 11.947682 h -2.14768 z"
       style="opacity:0.98000004;fill:none;fill-opacity:0;stroke:#000000;stroke-width:0.05231784;stroke-miterlimit:3.98765421;stroke-dasharray:none;stroke-opacity:1"
       transform="rotate(90)" />
    <path
       id="rect5776"
       d="m 24.327993,212.40453 h 30.175032 v 3.17503 H 24.327993 Z"
       style="opacity:0.98000004;fill:none;fill-opacity:0;stroke:#000000;stroke-width:0.02496885;stroke-miterlimit:3.98765421;stroke-dasharray:none;stroke-opacity:1" />
  </g>
</svg>
