<?xml version="1.0" encoding="UTF-8" standalone="no"?>
<svg
   xmlns:dc="http://purl.org/dc/elements/1.1/"
   xmlns:cc="http://creativecommons.org/ns#"
   xmlns:rdf="http://www.w3.org/1999/02/22-rdf-syntax-ns#"
   xmlns:svg="http://www.w3.org/2000/svg"
   xmlns="http://www.w3.org/2000/svg"
   xmlns:sodipodi="http://sodipodi.sourceforge.net/DTD/sodipodi-0.dtd"
   xmlns:inkscape="http://www.inkscape.org/namespaces/inkscape"
   id="svg8"
   version="1.1"
   viewBox="0 0 180 180"
   height="180mm"
   width="180mm"
   sodipodi:docname="BotPlainCut.svg"
   inkscape:version="0.92.3 (2405546, 2018-03-11)">
  <sodipodi:namedview
     pagecolor="#ffffff"
     bordercolor="#666666"
     borderopacity="1"
     objecttolerance="10"
     gridtolerance="10"
     guidetolerance="10"
     inkscape:pageopacity="0"
     inkscape:pageshadow="2"
     inkscape:window-width="681"
     inkscape:window-height="737"
     id="namedview29"
     showgrid="false"
     inkscape:window-x="0"
     inkscape:window-y="1"
     inkscape:window-maximized="0"
     inkscape:current-layer="svg8" />
  <defs
     id="defs2" />
  <metadata
     id="metadata5">
    <rdf:RDF>
      <cc:Work
         rdf:about="">
        <dc:format>image/svg+xml</dc:format>
        <dc:type
           rdf:resource="http://purl.org/dc/dcmitype/StillImage" />
        <dc:title />
      </cc:Work>
    </rdf:RDF>
  </metadata>
  <path
     inkscape:connector-curvature="0"
     style="opacity:0.98000004;fill:none;fill-opacity:0;stroke:#000000;stroke-width:0.02960751;stroke-miterlimit:3.98765421;stroke-dasharray:none;stroke-opacity:1"
     d="m 82.111176,56.21486 a 2.4851964,2.4851964 0 0 1 -2.485197,-2.4852 2.4851964,2.4851964 0 0 1 2.485197,-2.48519 2.4851964,2.4851964 0 0 1 2.485196,2.48519 2.4851964,2.4851964 0 0 1 -2.485196,2.4852 z"
     id="path4781" />
  <path
     inkscape:connector-curvature="0"
     style="opacity:0.98000004;fill:none;fill-opacity:0;stroke:#000000;stroke-width:0.09878863;stroke-miterlimit:3.98765421;stroke-dasharray:none;stroke-opacity:1"
     d="m 134.8439,53.13466 c 0,22.48168 -14.06868,41.67744 -33.88492,49.26208 C 95.627129,93.1617 84.20074,71.49618 77.812003,58.97661 c 0,-7.63147 0.07919,-5.97999 0.07919,-11.67592 7.696271,-12.40555 19.601144,-31.26611 25.934537,-42.23586 18.29313,8.27954 31.01817,26.68863 31.01817,48.06983 z"
     id="circle4808" />
  <path
     inkscape:connector-curvature="0"
     style="opacity:0.98000004;fill:none;fill-opacity:0;stroke:#000000;stroke-width:0.1;stroke-miterlimit:3.98765421;stroke-dasharray:none;stroke-opacity:1"
     d="m 128.81753,122.95353 a 14.022917,14.022917 0 0 1 -14.02291,14.02291 14.022917,14.022917 0 0 1 -14.02292,-14.02291 14.022917,14.022917 0 0 1 14.02292,-14.02292 14.022917,14.022917 0 0 1 14.02291,14.02292 z"
     id="path5062" />
  <path
     inkscape:connector-curvature="0"
     style="opacity:0.98000004;fill:none;fill-opacity:0;stroke:#000000;stroke-width:0.03410766;stroke-miterlimit:3.98765421;stroke-dasharray:none;stroke-opacity:1"
     d="m 99.811691,179.4067 h 29.965889 l -0.002,-5.97149 20.00293,-0.006 V 107.57073 H 79.811041 v 65.85888 l 19.98602,0.006 z"
     id="rect5631" />
  <path
     inkscape:connector-curvature="0"
     style="opacity:0.98000004;fill:none;fill-opacity:0;stroke:#000000;stroke-width:0.08802655;stroke-miterlimit:3.98765421;stroke-dasharray:none;stroke-opacity:1"
     d="M 4.45952,4.75028 H 74.3715 V 84.63785 H 4.45952 Z"
     id="rect4890" />
  <path
     inkscape:connector-curvature="0"
     style="opacity:0.98000004;fill:none;fill-opacity:0;stroke:#000000;stroke-width:0.05231784;stroke-miterlimit:3.98765421;stroke-dasharray:none;stroke-opacity:1"
     d="m 45.389366,24.16247 v 2.14768 H 33.441685 v -2.14768 z"
     id="rect5707" />
  <path
     inkscape:connector-curvature="0"
     style="opacity:0.98000004;fill:none;fill-opacity:0;stroke:#000000;stroke-width:0.02496885;stroke-miterlimit:3.98765421;stroke-dasharray:none;stroke-opacity:1"
     d="m 24.327993,13.3837 h 30.175032 v 3.17503 H 24.327993 Z"
     id="rect5633" />
  <path
     inkscape:connector-curvature="0"
     id="path5772"
     d="M 4.45952,86.77112 H 74.3715 v 79.88756 H 4.45952 Z"
     style="opacity:0.98000004;fill:none;fill-opacity:0;stroke:#000000;stroke-width:0.08802655;stroke-miterlimit:3.98765421;stroke-dasharray:none;stroke-opacity:1" />
  <path
     inkscape:connector-curvature="0"
     style="opacity:0.98000004;fill:none;fill-opacity:0;stroke:#000000;stroke-width:0.05231784;stroke-miterlimit:3.98765421;stroke-dasharray:none;stroke-opacity:1"
     d="m 45.389359,106.18331 v 2.14768 H 33.441677 v -2.14768 z"
     id="rect5774" />
  <path
     inkscape:connector-curvature="0"
     style="opacity:0.98000004;fill:none;fill-opacity:0;stroke:#000000;stroke-width:0.02496885;stroke-miterlimit:3.98765421;stroke-dasharray:none;stroke-opacity:1"
     d="m 24.327993,95.40455 h 30.175032 v 3.17503 H 24.327993 Z"
     id="rect5776" />
  <path
     style="opacity:0.98000004;fill:none;fill-opacity:0;stroke:#000000;stroke-width:0.01080782;stroke-miterlimit:3.98765421;stroke-dasharray:none;stroke-opacity:1"
     d="M 0.99459609,179.5 A 0.49459609,0.49459609 0 0 1 0.5,179.9946 0.49459609,0.49459609 0 0 1 0.00540391,179.5 0.49459609,0.49459609 0 0 1 0.5,179.0054 0.49459609,0.49459609 0 0 1 0.99459609,179.5 Z"
     id="path4768" />
  <path
     style="opacity:0.98000004;fill:none;fill-opacity:0;stroke:#000000;stroke-width:0.01080782;stroke-miterlimit:3.98765421;stroke-dasharray:none;stroke-opacity:1"
     d="M 179.9946,0.50000513 A 0.49459609,0.49459609 0 0 1 179.5,0.99460122 0.49459609,0.49459609 0 0 1 179.0054,0.50000513 0.49459609,0.49459609 0 0 1 179.5,0.00540903 a 0.49459609,0.49459609 0 0 1 0.4946,0.4945961 z"
     id="circle4770" />
</svg>
