<?xml version="1.0" encoding="UTF-8" standalone="no"?>
<svg
   xmlns:dc="http://purl.org/dc/elements/1.1/"
   xmlns:cc="http://creativecommons.org/ns#"
   xmlns:rdf="http://www.w3.org/1999/02/22-rdf-syntax-ns#"
   xmlns:svg="http://www.w3.org/2000/svg"
   xmlns="http://www.w3.org/2000/svg"
   version="1.1"
   id="svg2"
   viewBox="0 0 248.03149 301.1811"
   height="85mm"
   width="70mm">
  <defs
     id="defs4" />
  <metadata
     id="metadata7">
    <rdf:RDF>
      <cc:Work
         rdf:about="">
        <dc:format>image/svg+xml</dc:format>
        <dc:type
           rdf:resource="http://purl.org/dc/dcmitype/StillImage" />
        <dc:title></dc:title>
      </cc:Work>
    </rdf:RDF>
  </metadata>
  <g
     id="layer2">
    <path
       id="rect4158"
       d="m 14.435679,934.66223 2.564042,0 c 2.124795,0 3.83537,1.71058 3.83537,3.83537 l 0,16.4541 c 0,2.1248 -1.710575,3.83537 -3.83537,3.83537 l -2.564042,0 c -2.124795,0 -3.83537,-1.71057 -3.83537,-3.83537 l 0,-16.4541 c 0,-2.12479 1.710575,-3.83537 3.83537,-3.83537 z"
       style="fill:none;fill-opacity:1;stroke:#000000;stroke-width:0.35433072;stroke-linecap:round;stroke-miterlimit:4;stroke-dasharray:none;stroke-opacity:1"
       transform="translate(0,-751.1811)" />
    <path
       id="rect4160"
       d="m 14.435679,899.20605 2.564042,0 c 2.124795,0 3.83537,1.71058 3.83537,3.83537 l 0,16.45411 c 0,2.12479 -1.710575,3.83537 -3.83537,3.83537 l -2.564042,0 c -2.124795,0 -3.83537,-1.71058 -3.83537,-3.83537 l 0,-16.45411 c 0,-2.12479 1.710575,-3.83537 3.83537,-3.83537 z"
       style="fill:none;fill-opacity:1;stroke:#000000;stroke-width:0.35433072;stroke-linecap:round;stroke-miterlimit:4;stroke-dasharray:none;stroke-opacity:1"
       transform="translate(0,-751.1811)" />
    <path
       style="fill:none;fill-opacity:1;stroke:#000000;stroke-width:0.22874354;stroke-linecap:round;stroke-miterlimit:4;stroke-dasharray:none;stroke-opacity:1"
       d="m 231.86306,150.7114 c -0.87567,0 -1.58063,-0.82985 -1.58063,-1.86065 l 0,-70.53999 c 0,-1.030801 0.70496,-1.860636 1.58063,-1.860646 l 14.45293,-1.51e-4 c 1.43472,-1.61e-4 1.53834,-1.455606 1.53834,-1.455606 l 2.3e-4,-39.425986 C 247.85467,15.961524 232.06998,0.17693415 212.46312,0.17693415 l -176.894744,0 10e-6,0 c -19.606858,0 -35.39144104,15.78458985 -35.39144104,35.39143685 l 0,230.044349 c 0,19.60685 15.78458304,35.39146 35.39144104,35.39146 l 176.894744,0 c 19.60686,0 35.39144,-14.14353 35.39144,-33.75048 l 0,-1.39242 c -0.0862,-2.102 -3.34413,-2.2893 -3.34413,-2.2893 l -5.88923,-0.60688 c -4.47141,-0.33055 -5.96358,-0.68313 -6.20532,-1.95644 l -0.0634,-3.66633 c 0,-2.71069 2.07896,-3.07122 5.12971,-3.81249 l 6.87856,-1.30872 c 0,0 3.23023,-0.0423 3.23023,-3.42052 l 0,-3.78648 c 0,-3.63438 -2.52685,-3.74616 -2.52685,-3.74616 l -5.29051,-0.82928 c -3.57883,-0.23184 -7.85424,-2.85287 -7.91213,-4.81182 l 0,-2.36291 c 0,-1.44662 1.5897,-2.35717 3.686,-2.45326 l 8.90074,-0.30028 c 3.37898,0.10804 3.14275,-3.84967 3.14275,-3.84967 l 0.13895,-74.59328 c 0,0 -0.36593,-1.32648 -1.51627,-1.34127 z"
       id="rect8026" />
  </g>
</svg>
