<?xml version="1.0" encoding="UTF-8" standalone="no"?>
<svg
   xmlns:dc="http://purl.org/dc/elements/1.1/"
   xmlns:cc="http://creativecommons.org/ns#"
   xmlns:rdf="http://www.w3.org/1999/02/22-rdf-syntax-ns#"
   xmlns:svg="http://www.w3.org/2000/svg"
   xmlns="http://www.w3.org/2000/svg"
   version="1.1"
   id="svg2"
   viewBox="0 0 496.063 248.03149"
   height="70mm"
   width="140mm">
  <defs
     id="defs4" />
  <metadata
     id="metadata7">
    <rdf:RDF>
      <cc:Work
         rdf:about="">
        <dc:format>image/svg+xml</dc:format>
        <dc:type
           rdf:resource="http://purl.org/dc/dcmitype/StillImage" />
        <dc:title></dc:title>
      </cc:Work>
    </rdf:RDF>
  </metadata>
  <g
     transform="translate(0,-804.33071)"
     id="layer1">
    <path
       id="path4210"
       d="m 279.36707,814.67229 -7.62754,-0.0146 c 0,0 -12.84332,1.4076 -12.84332,17.93 l 0,3.34904 c 0,2.1889 2.27334,1.89301 2.27334,1.89301 l 17.47037,-0.22287 c 1.55955,0 3.58995,-1.52844 3.58995,-3.50897 l -0.11856,-17.074 c 0,0 -0.26158,-2.34681 -2.74424,-2.35157 z"
       style="opacity:1;fill:none;fill-rule:evenodd;stroke:#000000;stroke-width:0.17863974;stroke-linecap:butt;stroke-linejoin:miter;stroke-miterlimit:4;stroke-dasharray:none;stroke-opacity:1" />
    <path
       id="rect4181-3"
       d="m 473.6771,804.41914 -203.2827,0 c -12.33947,0 -22.27342,9.93493 -22.27342,22.27557 l 0,203.30259 c 0,12.3406 7.65235,22.2756 19.99182,22.2756 l 184.75559,0 c 2.93175,-3.0774 -0.0232,-18.2649 9.03757,-19.4008 8.84254,-0.8361 6.512,19.4008 13.74298,19.4008 16.79999,-0.2536 20.30156,-5.2479 20.30156,-19.7658 0,-7.4427 -16.65204,-7.0886 -16.65204,-15.1806 0,-7.1321 16.65204,-6.1006 16.65204,-10.4832 l 0,-58.96339 c 0,0 0.48634,-3.88591 -2.99778,-4.08794 l -26.21474,-1.52001 c 0,0 -4.53951,-0.65929 -4.53951,-5.76068 l 0,-19.0547 c 0,-4.3443 4.81567,-4.65698 4.81567,-4.65698 l 25.04923,-1.36511 c 3.90908,-0.10764 3.88713,-3.58528 3.88713,-3.58528 l 0,-81.1545 c 0,-12.34064 -9.93393,-22.27557 -22.2734,-22.27557 z"
       style="opacity:1;fill:none;stroke:#000000;stroke-width:0.17863974;stroke-linejoin:round;stroke-miterlimit:4;stroke-dasharray:none;stroke-opacity:1" />
    <path
       id="path4210-5"
       d="m 31.337887,814.67231 -7.628292,-0.0146 c 0,0 -12.8446,1.4076 -12.8446,17.93007 l 0,3.34906 c 0,2.1889 2.273569,1.89301 2.273569,1.89301 l 17.472109,-0.22287 c 1.559702,0 3.590301,-1.52845 3.590301,-3.50899 l -0.118571,-17.07406 c 0,0 -0.26161,-2.34682 -2.744516,-2.35158 z"
       style="opacity:1;fill:none;fill-rule:evenodd;stroke:#000000;stroke-width:0.17704143;stroke-linecap:butt;stroke-linejoin:miter;stroke-miterlimit:4;stroke-dasharray:none;stroke-opacity:1" />
    <path
       id="rect4181-3-3"
       d="m 225.66721,804.41912 -203.302877,0 c -12.340697,0 -22.27563494,9.93496 -22.27563494,22.27566 l 0,180.72092 c 0,7.9287 8.29302704,6.829 8.29302704,6.829 l 20.2730209,-0.115 c 12.38797,-0.07 12.0902,8.1389 12.050798,20.4322 l -0.03263,10.1808 c 0,0 0.928306,7.5312 6.818727,7.5312 l 157.364789,0 c 2.93204,-3.0774 -0.0232,-18.265 9.03847,-19.401 8.84341,-0.836 6.51264,19.401 13.74434,19.401 16.80166,-0.2537 20.30358,-5.2479 20.30358,-19.7659 0,-7.4427 -16.6537,-7.0886 -16.6537,-15.1807 0,-7.1321 16.6537,-6.1006 16.6537,-10.4832 l 0,-180.14932 c 0,-12.3407 -9.93492,-22.27566 -22.27562,-22.27566 z"
       style="opacity:1;fill:none;stroke:#000000;stroke-width:0.17704143;stroke-linejoin:round;stroke-miterlimit:4;stroke-dasharray:none;stroke-opacity:1" />
  </g>
</svg>
