<?xml version="1.0" encoding="UTF-8" standalone="no"?>
<svg
   xmlns:dc="http://purl.org/dc/elements/1.1/"
   xmlns:cc="http://creativecommons.org/ns#"
   xmlns:rdf="http://www.w3.org/1999/02/22-rdf-syntax-ns#"
   xmlns:svg="http://www.w3.org/2000/svg"
   xmlns="http://www.w3.org/2000/svg"
   width="280mm"
   height="350mm"
   viewBox="0 0 992.126 1240.1574"
   id="svg2"
   version="1.1">
  <defs
     id="defs4" />
  <metadata
     id="metadata7">
    <rdf:RDF>
      <cc:Work
         rdf:about="">
        <dc:format>image/svg+xml</dc:format>
        <dc:type
           rdf:resource="http://purl.org/dc/dcmitype/StillImage" />
        <dc:title></dc:title>
      </cc:Work>
    </rdf:RDF>
  </metadata>
  <path
     id="path4210"
     d="m 279.36707,1002.4676 -7.62754,-0.015 c 0,0 -12.84332,1.4076 -12.84332,17.93 l 0,3.349 c 0,2.1889 2.27334,1.893 2.27334,1.893 l 17.47037,-0.2229 c 1.55955,0 3.58995,-1.5284 3.58995,-3.5089 l -0.11856,-17.074 c 0,0 -0.26158,-2.3468 -2.74424,-2.3516 z"
     style="opacity:1;fill:none;fill-rule:evenodd;stroke:#000000;stroke-width:0.17863974;stroke-linecap:butt;stroke-linejoin:miter;stroke-miterlimit:4;stroke-dasharray:none;stroke-opacity:1" />
  <path
     id="rect4181-3"
     d="m 473.6771,992.21441 -203.2827,0 c -12.33947,0 -22.27342,9.93489 -22.27342,22.27559 l 0,203.3026 c 0,12.3406 7.65235,22.2756 19.99182,22.2756 l 184.75559,0 c 2.93175,-3.0774 -0.0232,-18.2649 9.03757,-19.4008 8.84254,-0.8361 6.512,19.4008 13.74298,19.4008 16.79999,-0.2536 20.30156,-5.2479 20.30156,-19.7658 0,-7.4427 -16.65204,-7.0886 -16.65204,-15.1806 0,-7.1321 16.65204,-6.1006 16.65204,-10.4832 l 0,-58.9634 c 0,0 0.48634,-3.8859 -2.99778,-4.088 l -26.21474,-1.52 c 0,0 -4.53951,-0.6593 -4.53951,-5.7606 l 0,-19.0547 c 0,-4.3443 4.81567,-4.657 4.81567,-4.657 l 25.04923,-1.3651 c 3.90908,-0.1077 3.88713,-3.5853 3.88713,-3.5853 l 0,-81.1545 c 0,-12.3407 -9.93393,-22.27559 -22.2734,-22.27559 z"
     style="opacity:1;fill:none;stroke:#000000;stroke-width:0.17863974;stroke-linejoin:round;stroke-miterlimit:4;stroke-dasharray:none;stroke-opacity:1" />
  <path
     id="path4210-5"
     d="m 31.337887,1002.4676 -7.628292,-0.015 c 0,0 -12.8446,1.4076 -12.8446,17.9301 l 0,3.349 c 0,2.1889 2.273569,1.893 2.273569,1.893 l 17.472109,-0.2228 c 1.559702,0 3.590301,-1.5285 3.590301,-3.509 l -0.118571,-17.0741 c 0,0 -0.26161,-2.3468 -2.744516,-2.3516 z"
     style="opacity:1;fill:none;fill-rule:evenodd;stroke:#000000;stroke-width:0.17704143;stroke-linecap:butt;stroke-linejoin:miter;stroke-miterlimit:4;stroke-dasharray:none;stroke-opacity:1" />
  <path
     id="rect4181-3-3"
     d="m 225.66721,992.21439 -203.302877,0 c -12.340697,0 -22.27563494,9.93501 -22.27563494,22.27561 l 0,180.721 c 0,7.9287 8.29302704,6.829 8.29302704,6.829 l 20.2730209,-0.115 c 12.38797,-0.07 12.0902,8.1389 12.050798,20.4322 l -0.03263,10.1808 c 0,0 0.928306,7.5312 6.818727,7.5312 l 157.364789,0 c 2.93204,-3.0774 -0.0232,-18.265 9.03847,-19.401 8.84341,-0.836 6.51264,19.401 13.74434,19.401 16.80166,-0.2537 20.30358,-5.2479 20.30358,-19.7659 0,-7.4427 -16.6537,-7.0886 -16.6537,-15.1807 0,-7.1321 16.6537,-6.1006 16.6537,-10.4832 l 0,-180.1494 c 0,-12.3407 -9.93492,-22.27561 -22.27562,-22.27561 z"
     style="opacity:1;fill:none;stroke:#000000;stroke-width:0.17704143;stroke-linejoin:round;stroke-miterlimit:4;stroke-dasharray:none;stroke-opacity:1" />
  <path
     style="opacity:1;fill:none;fill-rule:evenodd;stroke:#000000;stroke-width:0.17863974;stroke-linecap:butt;stroke-linejoin:miter;stroke-miterlimit:4;stroke-dasharray:none;stroke-opacity:1"
     d="m 775.42988,1002.4676 -7.62754,-0.015 c 0,0 -12.84332,1.4076 -12.84332,17.93 l 0,3.349 c 0,2.1889 2.27334,1.893 2.27334,1.893 l 17.47037,-0.2229 c 1.55955,0 3.58995,-1.5284 3.58995,-3.5089 l -0.11856,-17.074 c 0,0 -0.26158,-2.3468 -2.74424,-2.3516 z"
     id="path4140" />
  <path
     style="opacity:1;fill:none;stroke:#000000;stroke-width:0.17863974;stroke-linejoin:round;stroke-miterlimit:4;stroke-dasharray:none;stroke-opacity:1"
     d="m 969.73991,992.21441 -203.2827,0 c -12.33947,0 -22.27342,9.93489 -22.27342,22.27559 l 0,203.3026 c 0,12.3406 7.65235,22.2756 19.99182,22.2756 l 184.75559,0 c 2.93175,-3.0774 -0.0232,-18.2649 9.03757,-19.4008 8.84254,-0.8361 6.512,19.4008 13.74298,19.4008 16.79999,-0.2536 20.30156,-5.2479 20.30156,-19.7658 0,-7.4427 -16.65204,-7.0886 -16.65204,-15.1806 0,-7.1321 16.65204,-6.1006 16.65204,-10.4832 l 0,-58.9634 c 0,0 0.48634,-3.8859 -2.99778,-4.088 l -26.21474,-1.52 c 0,0 -4.53951,-0.6593 -4.53951,-5.7606 l 0,-19.0547 c 0,-4.3443 4.81567,-4.657 4.81567,-4.657 l 25.04923,-1.3651 c 3.90908,-0.1077 3.88713,-3.5853 3.88713,-3.5853 l 0,-81.1545 c 0,-12.3407 -9.93393,-22.27559 -22.2734,-22.27559 z"
     id="path4142" />
  <path
     style="opacity:1;fill:none;fill-rule:evenodd;stroke:#000000;stroke-width:0.17704143;stroke-linecap:butt;stroke-linejoin:miter;stroke-miterlimit:4;stroke-dasharray:none;stroke-opacity:1"
     d="m 527.4007,1002.4676 -7.62829,-0.015 c 0,0 -12.8446,1.4076 -12.8446,17.9301 l 0,3.349 c 0,2.1889 2.27356,1.893 2.27356,1.893 l 17.47211,-0.2228 c 1.55971,0 3.5903,-1.5285 3.5903,-3.509 l -0.11857,-17.0741 c 0,0 -0.26161,-2.3468 -2.74451,-2.3516 z"
     id="path4144" />
  <path
     style="opacity:1;fill:none;stroke:#000000;stroke-width:0.17704143;stroke-linejoin:round;stroke-miterlimit:4;stroke-dasharray:none;stroke-opacity:1"
     d="m 721.73002,992.21439 -203.30288,0 c -12.34069,0 -22.27563,9.93501 -22.27563,22.27561 l 0,180.721 c 0,7.9287 8.29303,6.829 8.29303,6.829 l 20.27302,-0.115 c 12.38797,-0.07 12.0902,8.1389 12.05079,20.4322 l -0.0326,10.1808 c 0,0 0.92831,7.5312 6.81873,7.5312 l 157.36479,0 c 2.93204,-3.0774 -0.0232,-18.265 9.03847,-19.401 8.84341,-0.836 6.51264,19.401 13.74434,19.401 16.80166,-0.2537 20.30358,-5.2479 20.30358,-19.7659 0,-7.4427 -16.6537,-7.0886 -16.6537,-15.1807 0,-7.1321 16.6537,-6.1006 16.6537,-10.4832 l 0,-180.1494 c 0,-12.3407 -9.93492,-22.27561 -22.27562,-22.27561 z"
     id="path4146" />
  <path
     style="opacity:1;fill:none;fill-rule:evenodd;stroke:#000000;stroke-width:0.17863974;stroke-linecap:butt;stroke-linejoin:miter;stroke-miterlimit:4;stroke-dasharray:none;stroke-opacity:1"
     d="m 279.36707,754.43579 -7.62754,-0.0146 c 0,0 -12.84332,1.4076 -12.84332,17.93 l 0,3.34904 c 0,2.1889 2.27334,1.89301 2.27334,1.89301 l 17.47037,-0.22287 c 1.55955,0 3.58995,-1.52844 3.58995,-3.50897 l -0.11856,-17.074 c 0,0 -0.26158,-2.34681 -2.74424,-2.35157 z"
     id="path4150" />
  <path
     style="opacity:1;fill:none;stroke:#000000;stroke-width:0.17863974;stroke-linejoin:round;stroke-miterlimit:4;stroke-dasharray:none;stroke-opacity:1"
     d="m 473.6771,744.18264 -203.2827,0 c -12.33947,0 -22.27342,9.93493 -22.27342,22.27557 l 0,203.30259 c 0,12.3406 7.65235,22.2756 19.99182,22.2756 l 184.75559,0 c 2.93175,-3.0774 -0.0232,-18.2649 9.03757,-19.4008 8.84254,-0.8361 6.512,19.4008 13.74298,19.4008 16.79999,-0.2536 20.30156,-5.2479 20.30156,-19.7658 0,-7.4427 -16.65204,-7.0886 -16.65204,-15.1806 0,-7.1321 16.65204,-6.1006 16.65204,-10.4832 l 0,-58.96339 c 0,0 0.48634,-3.88591 -2.99778,-4.08794 l -26.21474,-1.52001 c 0,0 -4.53951,-0.65929 -4.53951,-5.76068 l 0,-19.0547 c 0,-4.3443 4.81567,-4.65698 4.81567,-4.65698 l 25.04923,-1.36511 c 3.90908,-0.10764 3.88713,-3.58528 3.88713,-3.58528 l 0,-81.1545 c 0,-12.34064 -9.93393,-22.27557 -22.2734,-22.27557 z"
     id="path4152" />
  <path
     style="opacity:1;fill:none;fill-rule:evenodd;stroke:#000000;stroke-width:0.17704143;stroke-linecap:butt;stroke-linejoin:miter;stroke-miterlimit:4;stroke-dasharray:none;stroke-opacity:1"
     d="m 31.337887,754.43581 -7.628292,-0.0146 c 0,0 -12.8446,1.4076 -12.8446,17.93007 l 0,3.34906 c 0,2.1889 2.273569,1.89301 2.273569,1.89301 l 17.472109,-0.22287 c 1.559702,0 3.590301,-1.52845 3.590301,-3.50899 l -0.118571,-17.07406 c 0,0 -0.26161,-2.34682 -2.744516,-2.35158 z"
     id="path4154" />
  <path
     style="opacity:1;fill:none;stroke:#000000;stroke-width:0.17704143;stroke-linejoin:round;stroke-miterlimit:4;stroke-dasharray:none;stroke-opacity:1"
     d="m 225.66721,744.18262 -203.302877,0 c -12.340697,0 -22.27563494,9.93496 -22.27563494,22.27566 l 0,180.72092 c 0,7.9287 8.29302704,6.829 8.29302704,6.829 l 20.2730209,-0.115 c 12.38797,-0.07 12.0902,8.1389 12.050798,20.4322 l -0.03263,10.1808 c 0,0 0.928306,7.5312 6.818727,7.5312 l 157.364789,0 c 2.93204,-3.0774 -0.0232,-18.265 9.03847,-19.401 8.84341,-0.836 6.51264,19.401 13.74434,19.401 16.80166,-0.2537 20.30358,-5.2479 20.30358,-19.7659 0,-7.4427 -16.6537,-7.0886 -16.6537,-15.1807 0,-7.1321 16.6537,-6.1006 16.6537,-10.4832 l 0,-180.14932 c 0,-12.3407 -9.93492,-22.27566 -22.27562,-22.27566 z"
     id="path4156" />
  <path
     id="path4160"
     d="m 775.42988,754.43579 -7.62754,-0.0146 c 0,0 -12.84332,1.4076 -12.84332,17.93 l 0,3.34904 c 0,2.1889 2.27334,1.89301 2.27334,1.89301 l 17.47037,-0.22287 c 1.55955,0 3.58995,-1.52844 3.58995,-3.50897 l -0.11856,-17.074 c 0,0 -0.26158,-2.34681 -2.74424,-2.35157 z"
     style="opacity:1;fill:none;fill-rule:evenodd;stroke:#000000;stroke-width:0.17863974;stroke-linecap:butt;stroke-linejoin:miter;stroke-miterlimit:4;stroke-dasharray:none;stroke-opacity:1" />
  <path
     id="path4162"
     d="m 969.73991,744.18264 -203.2827,0 c -12.33947,0 -22.27342,9.93493 -22.27342,22.27557 l 0,203.30259 c 0,12.3406 7.65235,22.2756 19.99182,22.2756 l 184.75559,0 c 2.93175,-3.0774 -0.0232,-18.2649 9.03757,-19.4008 8.84254,-0.8361 6.512,19.4008 13.74298,19.4008 16.79999,-0.2536 20.30156,-5.2479 20.30156,-19.7658 0,-7.4427 -16.65204,-7.0886 -16.65204,-15.1806 0,-7.1321 16.65204,-6.1006 16.65204,-10.4832 l 0,-58.96339 c 0,0 0.48634,-3.88591 -2.99778,-4.08794 l -26.21474,-1.52001 c 0,0 -4.53951,-0.65929 -4.53951,-5.76068 l 0,-19.0547 c 0,-4.3443 4.81567,-4.65698 4.81567,-4.65698 l 25.04923,-1.36511 c 3.90908,-0.10764 3.88713,-3.58528 3.88713,-3.58528 l 0,-81.1545 c 0,-12.34064 -9.93393,-22.27557 -22.2734,-22.27557 z"
     style="opacity:1;fill:none;stroke:#000000;stroke-width:0.17863974;stroke-linejoin:round;stroke-miterlimit:4;stroke-dasharray:none;stroke-opacity:1" />
  <path
     id="path4164"
     d="m 527.4007,754.43581 -7.62829,-0.0146 c 0,0 -12.8446,1.4076 -12.8446,17.93007 l 0,3.34906 c 0,2.1889 2.27356,1.89301 2.27356,1.89301 l 17.47211,-0.22287 c 1.55971,0 3.5903,-1.52845 3.5903,-3.50899 l -0.11857,-17.07406 c 0,0 -0.26161,-2.34682 -2.74451,-2.35158 z"
     style="opacity:1;fill:none;fill-rule:evenodd;stroke:#000000;stroke-width:0.17704143;stroke-linecap:butt;stroke-linejoin:miter;stroke-miterlimit:4;stroke-dasharray:none;stroke-opacity:1" />
  <path
     id="path4166"
     d="m 721.73002,744.18262 -203.30288,0 c -12.34069,0 -22.27563,9.93496 -22.27563,22.27566 l 0,180.72092 c 0,7.9287 8.29303,6.829 8.29303,6.829 l 20.27302,-0.115 c 12.38797,-0.07 12.0902,8.1389 12.05079,20.4322 l -0.0326,10.1808 c 0,0 0.92831,7.5312 6.81873,7.5312 l 157.36479,0 c 2.93204,-3.0774 -0.0232,-18.265 9.03847,-19.401 8.84341,-0.836 6.51264,19.401 13.74434,19.401 16.80166,-0.2537 20.30358,-5.2479 20.30358,-19.7659 0,-7.4427 -16.6537,-7.0886 -16.6537,-15.1807 0,-7.1321 16.6537,-6.1006 16.6537,-10.4832 l 0,-180.14932 c 0,-12.3407 -9.93492,-22.27566 -22.27562,-22.27566 z"
     style="opacity:1;fill:none;stroke:#000000;stroke-width:0.17704143;stroke-linejoin:round;stroke-miterlimit:4;stroke-dasharray:none;stroke-opacity:1" />
  <path
     id="path4170"
     d="m 279.36707,506.4043 -7.62754,-0.0146 c 0,0 -12.84332,1.4076 -12.84332,17.93 l 0,3.34904 c 0,2.1889 2.27334,1.89301 2.27334,1.89301 l 17.47037,-0.22287 c 1.55955,0 3.58995,-1.52844 3.58995,-3.50897 l -0.11856,-17.074 c 0,0 -0.26158,-2.34681 -2.74424,-2.35157 z"
     style="opacity:1;fill:none;fill-rule:evenodd;stroke:#000000;stroke-width:0.17863974;stroke-linecap:butt;stroke-linejoin:miter;stroke-miterlimit:4;stroke-dasharray:none;stroke-opacity:1" />
  <path
     id="path4172"
     d="m 473.6771,496.15115 -203.2827,0 c -12.33947,0 -22.27342,9.93493 -22.27342,22.27557 l 0,203.30259 c 0,12.3406 7.65235,22.2756 19.99182,22.2756 l 184.75559,0 c 2.93175,-3.0774 -0.0232,-18.2649 9.03757,-19.4008 8.84254,-0.8361 6.512,19.4008 13.74298,19.4008 16.79999,-0.2536 20.30156,-5.2479 20.30156,-19.7658 0,-7.4427 -16.65204,-7.0886 -16.65204,-15.1806 0,-7.1321 16.65204,-6.1006 16.65204,-10.4832 l 0,-58.96339 c 0,0 0.48634,-3.88591 -2.99778,-4.08794 l -26.21474,-1.52001 c 0,0 -4.53951,-0.65929 -4.53951,-5.76068 l 0,-19.0547 c 0,-4.3443 4.81567,-4.65698 4.81567,-4.65698 l 25.04923,-1.36511 c 3.90908,-0.10764 3.88713,-3.58528 3.88713,-3.58528 l 0,-81.1545 c 0,-12.34064 -9.93393,-22.27557 -22.2734,-22.27557 z"
     style="opacity:1;fill:none;stroke:#000000;stroke-width:0.17863974;stroke-linejoin:round;stroke-miterlimit:4;stroke-dasharray:none;stroke-opacity:1" />
  <path
     id="path4174"
     d="m 31.337887,506.40432 -7.628292,-0.0146 c 0,0 -12.8446,1.4076 -12.8446,17.93007 l 0,3.34906 c 0,2.1889 2.273569,1.89301 2.273569,1.89301 l 17.472109,-0.22287 c 1.559702,0 3.590301,-1.52845 3.590301,-3.50899 l -0.118571,-17.07406 c 0,0 -0.26161,-2.34682 -2.744516,-2.35158 z"
     style="opacity:1;fill:none;fill-rule:evenodd;stroke:#000000;stroke-width:0.17704143;stroke-linecap:butt;stroke-linejoin:miter;stroke-miterlimit:4;stroke-dasharray:none;stroke-opacity:1" />
  <path
     id="path4176"
     d="m 225.66721,496.15113 -203.302877,0 c -12.340697,0 -22.27563494,9.93496 -22.27563494,22.27566 l 0,180.72092 c 0,7.9287 8.29302704,6.829 8.29302704,6.829 l 20.2730209,-0.115 c 12.38797,-0.07 12.0902,8.1389 12.050798,20.4322 l -0.03263,10.1808 c 0,0 0.928306,7.5312 6.818727,7.5312 l 157.364789,0 c 2.93204,-3.0774 -0.0232,-18.265 9.03847,-19.401 8.84341,-0.836 6.51264,19.401 13.74434,19.401 16.80166,-0.2537 20.30358,-5.2479 20.30358,-19.7659 0,-7.4427 -16.6537,-7.0886 -16.6537,-15.1807 0,-7.1321 16.6537,-6.1006 16.6537,-10.4832 l 0,-180.14932 c 0,-12.3407 -9.93492,-22.27566 -22.27562,-22.27566 z"
     style="opacity:1;fill:none;stroke:#000000;stroke-width:0.17704143;stroke-linejoin:round;stroke-miterlimit:4;stroke-dasharray:none;stroke-opacity:1" />
  <path
     style="opacity:1;fill:none;fill-rule:evenodd;stroke:#000000;stroke-width:0.17863974;stroke-linecap:butt;stroke-linejoin:miter;stroke-miterlimit:4;stroke-dasharray:none;stroke-opacity:1"
     d="m 775.42988,506.4043 -7.62754,-0.0146 c 0,0 -12.84332,1.4076 -12.84332,17.93 l 0,3.34904 c 0,2.1889 2.27334,1.89301 2.27334,1.89301 l 17.47037,-0.22287 c 1.55955,0 3.58995,-1.52844 3.58995,-3.50897 l -0.11856,-17.074 c 0,0 -0.26158,-2.34681 -2.74424,-2.35157 z"
     id="path4180" />
  <path
     style="opacity:1;fill:none;stroke:#000000;stroke-width:0.17863974;stroke-linejoin:round;stroke-miterlimit:4;stroke-dasharray:none;stroke-opacity:1"
     d="m 969.73991,496.15115 -203.2827,0 c -12.33947,0 -22.27342,9.93493 -22.27342,22.27557 l 0,203.30259 c 0,12.3406 7.65235,22.2756 19.99182,22.2756 l 184.75559,0 c 2.93175,-3.0774 -0.0232,-18.2649 9.03757,-19.4008 8.84254,-0.8361 6.512,19.4008 13.74298,19.4008 16.79999,-0.2536 20.30156,-5.2479 20.30156,-19.7658 0,-7.4427 -16.65204,-7.0886 -16.65204,-15.1806 0,-7.1321 16.65204,-6.1006 16.65204,-10.4832 l 0,-58.96339 c 0,0 0.48634,-3.88591 -2.99778,-4.08794 l -26.21474,-1.52001 c 0,0 -4.53951,-0.65929 -4.53951,-5.76068 l 0,-19.0547 c 0,-4.3443 4.81567,-4.65698 4.81567,-4.65698 l 25.04923,-1.36511 c 3.90908,-0.10764 3.88713,-3.58528 3.88713,-3.58528 l 0,-81.1545 c 0,-12.34064 -9.93393,-22.27557 -22.2734,-22.27557 z"
     id="path4182" />
  <path
     style="opacity:1;fill:none;fill-rule:evenodd;stroke:#000000;stroke-width:0.17704143;stroke-linecap:butt;stroke-linejoin:miter;stroke-miterlimit:4;stroke-dasharray:none;stroke-opacity:1"
     d="m 527.4007,506.40432 -7.62829,-0.0146 c 0,0 -12.8446,1.4076 -12.8446,17.93007 l 0,3.34906 c 0,2.1889 2.27356,1.89301 2.27356,1.89301 l 17.47211,-0.22287 c 1.55971,0 3.5903,-1.52845 3.5903,-3.50899 l -0.11857,-17.07406 c 0,0 -0.26161,-2.34682 -2.74451,-2.35158 z"
     id="path4184" />
  <path
     style="opacity:1;fill:none;stroke:#000000;stroke-width:0.17704143;stroke-linejoin:round;stroke-miterlimit:4;stroke-dasharray:none;stroke-opacity:1"
     d="m 721.73002,496.15113 -203.30288,0 c -12.34069,0 -22.27563,9.93496 -22.27563,22.27566 l 0,180.72092 c 0,7.9287 8.29303,6.829 8.29303,6.829 l 20.27302,-0.115 c 12.38797,-0.07 12.0902,8.1389 12.05079,20.4322 l -0.0326,10.1808 c 0,0 0.92831,7.5312 6.81873,7.5312 l 157.36479,0 c 2.93204,-3.0774 -0.0232,-18.265 9.03847,-19.401 8.84341,-0.836 6.51264,19.401 13.74434,19.401 16.80166,-0.2537 20.30358,-5.2479 20.30358,-19.7659 0,-7.4427 -16.6537,-7.0886 -16.6537,-15.1807 0,-7.1321 16.6537,-6.1006 16.6537,-10.4832 l 0,-180.14932 c 0,-12.3407 -9.93492,-22.27566 -22.27562,-22.27566 z"
     id="path4186" />
  <path
     style="opacity:1;fill:none;fill-rule:evenodd;stroke:#000000;stroke-width:0.17863974;stroke-linecap:butt;stroke-linejoin:miter;stroke-miterlimit:4;stroke-dasharray:none;stroke-opacity:1"
     d="m 279.36707,258.3728 -7.62754,-0.0146 c 0,0 -12.84332,1.4076 -12.84332,17.93 l 0,3.34904 c 0,2.1889 2.27334,1.89301 2.27334,1.89301 l 17.47037,-0.22287 c 1.55955,0 3.58995,-1.52844 3.58995,-3.50897 l -0.11856,-17.074 c 0,0 -0.26158,-2.34681 -2.74424,-2.35157 z"
     id="path4190" />
  <path
     style="opacity:1;fill:none;stroke:#000000;stroke-width:0.17863974;stroke-linejoin:round;stroke-miterlimit:4;stroke-dasharray:none;stroke-opacity:1"
     d="m 473.6771,248.11965 -203.2827,0 c -12.33947,0 -22.27342,9.93493 -22.27342,22.27557 l 0,203.30259 c 0,12.3406 7.65235,22.2756 19.99182,22.2756 l 184.75559,0 c 2.93175,-3.0774 -0.0232,-18.2649 9.03757,-19.4008 8.84254,-0.8361 6.512,19.4008 13.74298,19.4008 16.79999,-0.2536 20.30156,-5.2479 20.30156,-19.7658 0,-7.4427 -16.65204,-7.0886 -16.65204,-15.1806 0,-7.1321 16.65204,-6.1006 16.65204,-10.4832 l 0,-58.96339 c 0,0 0.48634,-3.88591 -2.99778,-4.08794 l -26.21474,-1.52001 c 0,0 -4.53951,-0.65929 -4.53951,-5.76068 l 0,-19.0547 c 0,-4.3443 4.81567,-4.65698 4.81567,-4.65698 l 25.04923,-1.36511 c 3.90908,-0.10764 3.88713,-3.58528 3.88713,-3.58528 l 0,-81.1545 c 0,-12.34064 -9.93393,-22.27557 -22.2734,-22.27557 z"
     id="path4192" />
  <path
     style="opacity:1;fill:none;fill-rule:evenodd;stroke:#000000;stroke-width:0.17704143;stroke-linecap:butt;stroke-linejoin:miter;stroke-miterlimit:4;stroke-dasharray:none;stroke-opacity:1"
     d="m 31.337887,258.37282 -7.628292,-0.0146 c 0,0 -12.8446,1.4076 -12.8446,17.93007 l 0,3.34906 c 0,2.1889 2.273569,1.89301 2.273569,1.89301 l 17.472109,-0.22287 c 1.559702,0 3.590301,-1.52845 3.590301,-3.50899 l -0.118571,-17.07406 c 0,0 -0.26161,-2.34682 -2.744516,-2.35158 z"
     id="path4194" />
  <path
     style="opacity:1;fill:none;stroke:#000000;stroke-width:0.17704143;stroke-linejoin:round;stroke-miterlimit:4;stroke-dasharray:none;stroke-opacity:1"
     d="m 225.66721,248.11963 -203.302877,0 c -12.340697,0 -22.27563494,9.93496 -22.27563494,22.27566 l 0,180.72092 c 0,7.9287 8.29302704,6.829 8.29302704,6.829 l 20.2730209,-0.115 c 12.38797,-0.07 12.0902,8.1389 12.050798,20.4322 l -0.03263,10.1808 c 0,0 0.928306,7.5312 6.818727,7.5312 l 157.364789,0 c 2.93204,-3.0774 -0.0232,-18.265 9.03847,-19.401 8.84341,-0.836 6.51264,19.401 13.74434,19.401 16.80166,-0.2537 20.30358,-5.2479 20.30358,-19.7659 0,-7.4427 -16.6537,-7.0886 -16.6537,-15.1807 0,-7.1321 16.6537,-6.1006 16.6537,-10.4832 l 0,-180.14932 c 0,-12.3407 -9.93492,-22.27566 -22.27562,-22.27566 z"
     id="path4196" />
  <path
     id="path4200"
     d="m 775.42988,258.3728 -7.62754,-0.0146 c 0,0 -12.84332,1.4076 -12.84332,17.93 l 0,3.34904 c 0,2.1889 2.27334,1.89301 2.27334,1.89301 l 17.47037,-0.22287 c 1.55955,0 3.58995,-1.52844 3.58995,-3.50897 l -0.11856,-17.074 c 0,0 -0.26158,-2.34681 -2.74424,-2.35157 z"
     style="opacity:1;fill:none;fill-rule:evenodd;stroke:#000000;stroke-width:0.17863974;stroke-linecap:butt;stroke-linejoin:miter;stroke-miterlimit:4;stroke-dasharray:none;stroke-opacity:1" />
  <path
     id="path4202"
     d="m 969.73991,248.11965 -203.2827,0 c -12.33947,0 -22.27342,9.93493 -22.27342,22.27557 l 0,203.30259 c 0,12.3406 7.65235,22.2756 19.99182,22.2756 l 184.75559,0 c 2.93175,-3.0774 -0.0232,-18.2649 9.03757,-19.4008 8.84254,-0.8361 6.512,19.4008 13.74298,19.4008 16.79999,-0.2536 20.30156,-5.2479 20.30156,-19.7658 0,-7.4427 -16.65204,-7.0886 -16.65204,-15.1806 0,-7.1321 16.65204,-6.1006 16.65204,-10.4832 l 0,-58.96339 c 0,0 0.48634,-3.88591 -2.99778,-4.08794 l -26.21474,-1.52001 c 0,0 -4.53951,-0.65929 -4.53951,-5.76068 l 0,-19.0547 c 0,-4.3443 4.81567,-4.65698 4.81567,-4.65698 l 25.04923,-1.36511 c 3.90908,-0.10764 3.88713,-3.58528 3.88713,-3.58528 l 0,-81.1545 c 0,-12.34064 -9.93393,-22.27557 -22.2734,-22.27557 z"
     style="opacity:1;fill:none;stroke:#000000;stroke-width:0.17863974;stroke-linejoin:round;stroke-miterlimit:4;stroke-dasharray:none;stroke-opacity:1" />
  <path
     id="path4204"
     d="m 527.4007,258.37282 -7.62829,-0.0146 c 0,0 -12.8446,1.4076 -12.8446,17.93007 l 0,3.34906 c 0,2.1889 2.27356,1.89301 2.27356,1.89301 l 17.47211,-0.22287 c 1.55971,0 3.5903,-1.52845 3.5903,-3.50899 l -0.11857,-17.07406 c 0,0 -0.26161,-2.34682 -2.74451,-2.35158 z"
     style="opacity:1;fill:none;fill-rule:evenodd;stroke:#000000;stroke-width:0.17704143;stroke-linecap:butt;stroke-linejoin:miter;stroke-miterlimit:4;stroke-dasharray:none;stroke-opacity:1" />
  <path
     id="path4206"
     d="m 721.73002,248.11963 -203.30288,0 c -12.34069,0 -22.27563,9.93496 -22.27563,22.27566 l 0,180.72092 c 0,7.9287 8.29303,6.829 8.29303,6.829 l 20.27302,-0.115 c 12.38797,-0.07 12.0902,8.1389 12.05079,20.4322 l -0.0326,10.1808 c 0,0 0.92831,7.5312 6.81873,7.5312 l 157.36479,0 c 2.93204,-3.0774 -0.0232,-18.265 9.03847,-19.401 8.84341,-0.836 6.51264,19.401 13.74434,19.401 16.80166,-0.2537 20.30358,-5.2479 20.30358,-19.7659 0,-7.4427 -16.6537,-7.0886 -16.6537,-15.1807 0,-7.1321 16.6537,-6.1006 16.6537,-10.4832 l 0,-180.14932 c 0,-12.3407 -9.93492,-22.27566 -22.27562,-22.27566 z"
     style="opacity:1;fill:none;stroke:#000000;stroke-width:0.17704143;stroke-linejoin:round;stroke-miterlimit:4;stroke-dasharray:none;stroke-opacity:1" />
  <path
     id="path4211"
     d="m 279.36707,10.3413 -7.62754,-0.0146 c 0,0 -12.84332,1.4076 -12.84332,17.93 l 0,3.34904 c 0,2.1889 2.27334,1.89301 2.27334,1.89301 l 17.47037,-0.22287 c 1.55955,0 3.58995,-1.52844 3.58995,-3.50897 l -0.11856,-17.074 c 0,0 -0.26158,-2.34681 -2.74424,-2.35157 z"
     style="opacity:1;fill:none;fill-rule:evenodd;stroke:#000000;stroke-width:0.17863974;stroke-linecap:butt;stroke-linejoin:miter;stroke-miterlimit:4;stroke-dasharray:none;stroke-opacity:1" />
  <path
     id="path4213"
     d="m 473.6771,0.08815 -203.2827,0 c -12.33947,0 -22.27342,9.93493 -22.27342,22.27557 l 0,203.30259 c 0,12.3406 7.65235,22.2756 19.99182,22.2756 l 184.75559,0 c 2.93175,-3.0774 -0.0232,-18.2649 9.03757,-19.4008 8.84254,-0.8361 6.512,19.4008 13.74298,19.4008 16.79999,-0.2536 20.30156,-5.2479 20.30156,-19.7658 0,-7.4427 -16.65204,-7.0886 -16.65204,-15.1806 0,-7.1321 16.65204,-6.1006 16.65204,-10.4832 l 0,-58.96339 c 0,0 0.48634,-3.88591 -2.99778,-4.08794 l -26.21474,-1.52001 c 0,0 -4.53951,-0.65929 -4.53951,-5.76068 l 0,-19.0547 c 0,-4.3443 4.81567,-4.65698 4.81567,-4.65698 l 25.04923,-1.36511 c 3.90908,-0.10764 3.88713,-3.58528 3.88713,-3.58528 l 0,-81.1545 c 0,-12.34064 -9.93393,-22.27557 -22.2734,-22.27557 z"
     style="opacity:1;fill:none;stroke:#000000;stroke-width:0.17863974;stroke-linejoin:round;stroke-miterlimit:4;stroke-dasharray:none;stroke-opacity:1" />
  <path
     id="path4215"
     d="m 31.337887,10.34132 -7.628292,-0.0146 c 0,0 -12.8446,1.4076 -12.8446,17.93007 l 0,3.34906 c 0,2.1889 2.273569,1.89301 2.273569,1.89301 l 17.472109,-0.22287 c 1.559702,0 3.590301,-1.52845 3.590301,-3.50899 L 34.082403,12.69294 c 0,0 -0.26161,-2.34682 -2.744516,-2.35158 z"
     style="opacity:1;fill:none;fill-rule:evenodd;stroke:#000000;stroke-width:0.17704143;stroke-linecap:butt;stroke-linejoin:miter;stroke-miterlimit:4;stroke-dasharray:none;stroke-opacity:1" />
  <path
     id="path4217"
     d="m 225.66721,0.08813 -203.302877,0 c -12.340697,0 -22.27563494,9.93496 -22.27563494,22.27566 l 0,180.72092 c 0,7.9287 8.29302704,6.829 8.29302704,6.829 l 20.2730209,-0.115 c 12.38797,-0.07 12.0902,8.1389 12.050798,20.4322 l -0.03263,10.1808 c 0,0 0.928306,7.5312 6.818727,7.5312 l 157.364789,0 c 2.93204,-3.0774 -0.0232,-18.265 9.03847,-19.401 8.84341,-0.836 6.51264,19.401 13.74434,19.401 16.80166,-0.2537 20.30358,-5.2479 20.30358,-19.7659 0,-7.4427 -16.6537,-7.0886 -16.6537,-15.1807 0,-7.1321 16.6537,-6.1006 16.6537,-10.4832 l 0,-180.14932 c 0,-12.3407 -9.93492,-22.27566 -22.27562,-22.27566 z"
     style="opacity:1;fill:none;stroke:#000000;stroke-width:0.17704143;stroke-linejoin:round;stroke-miterlimit:4;stroke-dasharray:none;stroke-opacity:1" />
  <path
     style="opacity:1;fill:none;fill-rule:evenodd;stroke:#000000;stroke-width:0.17863974;stroke-linecap:butt;stroke-linejoin:miter;stroke-miterlimit:4;stroke-dasharray:none;stroke-opacity:1"
     d="m 775.42988,10.3413 -7.62754,-0.0146 c 0,0 -12.84332,1.4076 -12.84332,17.93 l 0,3.34904 c 0,2.1889 2.27334,1.89301 2.27334,1.89301 l 17.47037,-0.22287 c 1.55955,0 3.58995,-1.52844 3.58995,-3.50897 l -0.11856,-17.074 c 0,0 -0.26158,-2.34681 -2.74424,-2.35157 z"
     id="path4221" />
  <path
     style="opacity:1;fill:none;stroke:#000000;stroke-width:0.17863974;stroke-linejoin:round;stroke-miterlimit:4;stroke-dasharray:none;stroke-opacity:1"
     d="m 969.73991,0.08815 -203.2827,0 c -12.33947,0 -22.27342,9.93493 -22.27342,22.27557 l 0,203.30259 c 0,12.3406 7.65235,22.2756 19.99182,22.2756 l 184.75559,0 c 2.93175,-3.0774 -0.0232,-18.2649 9.03757,-19.4008 8.84254,-0.8361 6.512,19.4008 13.74298,19.4008 16.79999,-0.2536 20.30156,-5.2479 20.30156,-19.7658 0,-7.4427 -16.65204,-7.0886 -16.65204,-15.1806 0,-7.1321 16.65204,-6.1006 16.65204,-10.4832 l 0,-58.96339 c 0,0 0.48634,-3.88591 -2.99778,-4.08794 l -26.21474,-1.52001 c 0,0 -4.53951,-0.65929 -4.53951,-5.76068 l 0,-19.0547 c 0,-4.3443 4.81567,-4.65698 4.81567,-4.65698 l 25.04923,-1.36511 c 3.90908,-0.10764 3.88713,-3.58528 3.88713,-3.58528 l 0,-81.1545 c 0,-12.34064 -9.93393,-22.27557 -22.2734,-22.27557 z"
     id="path4223" />
  <path
     style="opacity:1;fill:none;fill-rule:evenodd;stroke:#000000;stroke-width:0.17704143;stroke-linecap:butt;stroke-linejoin:miter;stroke-miterlimit:4;stroke-dasharray:none;stroke-opacity:1"
     d="m 527.4007,10.34132 -7.62829,-0.0146 c 0,0 -12.8446,1.4076 -12.8446,17.93007 l 0,3.34906 c 0,2.1889 2.27356,1.89301 2.27356,1.89301 l 17.47211,-0.22287 c 1.55971,0 3.5903,-1.52845 3.5903,-3.50899 l -0.11857,-17.07406 c 0,0 -0.26161,-2.34682 -2.74451,-2.35158 z"
     id="path4225" />
  <path
     style="opacity:1;fill:none;stroke:#000000;stroke-width:0.17704143;stroke-linejoin:round;stroke-miterlimit:4;stroke-dasharray:none;stroke-opacity:1"
     d="m 721.73002,0.08813 -203.30288,0 c -12.34069,0 -22.27563,9.93496 -22.27563,22.27566 l 0,180.72092 c 0,7.9287 8.29303,6.829 8.29303,6.829 l 20.27302,-0.115 c 12.38797,-0.07 12.0902,8.1389 12.05079,20.4322 l -0.0326,10.1808 c 0,0 0.92831,7.5312 6.81873,7.5312 l 157.36479,0 c 2.93204,-3.0774 -0.0232,-18.265 9.03847,-19.401 8.84341,-0.836 6.51264,19.401 13.74434,19.401 16.80166,-0.2537 20.30358,-5.2479 20.30358,-19.7659 0,-7.4427 -16.6537,-7.0886 -16.6537,-15.1807 0,-7.1321 16.6537,-6.1006 16.6537,-10.4832 l 0,-180.14932 c 0,-12.3407 -9.93492,-22.27566 -22.27562,-22.27566 z"
     id="path4227" />
</svg>
