<?xml version="1.0" encoding="UTF-8" standalone="no"?>
<svg
   xmlns:dc="http://purl.org/dc/elements/1.1/"
   xmlns:cc="http://creativecommons.org/ns#"
   xmlns:rdf="http://www.w3.org/1999/02/22-rdf-syntax-ns#"
   xmlns:svg="http://www.w3.org/2000/svg"
   xmlns="http://www.w3.org/2000/svg"
   xmlns:sodipodi="http://sodipodi.sourceforge.net/DTD/sodipodi-0.dtd"
   xmlns:inkscape="http://www.inkscape.org/namespaces/inkscape"
   version="1.1"
   id="svg2"
   viewBox="0 0 496.063 496.06298"
   height="140mm"
   width="140mm"
   inkscape:version="0.91 r13725"
   sodipodi:docname="CutOutTwo.svg">
  <sodipodi:namedview
     pagecolor="#ffffff"
     bordercolor="#666666"
     borderopacity="1"
     objecttolerance="10"
     gridtolerance="10"
     guidetolerance="10"
     inkscape:pageopacity="0"
     inkscape:pageshadow="2"
     inkscape:window-width="1366"
     inkscape:window-height="744"
     id="namedview37"
     showgrid="false"
     inkscape:zoom="0.23787302"
     inkscape:cx="658.56102"
     inkscape:cy="87.271149"
     inkscape:window-x="0"
     inkscape:window-y="1"
     inkscape:window-maximized="1"
     inkscape:current-layer="svg2" />
  <defs
     id="defs4" />
  <metadata
     id="metadata7">
    <rdf:RDF>
      <cc:Work
         rdf:about="">
        <dc:format>image/svg+xml</dc:format>
        <dc:type
           rdf:resource="http://purl.org/dc/dcmitype/StillImage" />
        <dc:title></dc:title>
      </cc:Work>
    </rdf:RDF>
  </metadata>
  <g
     id="layer5"
     style="display:inline;opacity:0.23699999"
     transform="translate(0,248.0315)" />
  <g
     id="layer1"
     transform="translate(0,-556.29921)">
    <path
       id="rect4181"
       d="m -224.25027,806.14697 200.467591,0 c 12.168588,0 21.9649605,9.79637 21.9649605,21.96496 l 0,200.46757 c 0,12.1686 -9.7963725,21.965 -21.9649605,21.965 l -200.467591,0 c -12.16858,0 -21.96496,-9.7964 -21.96496,-21.965 l 0,-200.46757 c 0,-12.16859 9.79638,-21.96496 21.96496,-21.96496 z"
       style="fill:none;stroke:#000000;stroke-width:3.63543296;stroke-linejoin:round;stroke-miterlimit:4;stroke-dasharray:none;stroke-opacity:1"
       transform="scale(-1,1)"
       inkscape:connector-curvature="0" />
    <path
       id="path4210"
       d="m 32.63035,816.25639 -7.5219,-0.0144 c 0,0 -12.66546,1.38798 -12.66546,17.67998 l 0,3.30234 c 0,2.15838 2.24186,1.86661 2.24186,1.86661 l 17.22844,-0.21976 c 1.53795,0 3.54023,-1.50712 3.54023,-3.46003 L 35.3366,818.57522 c 0,0 -0.25796,-2.31409 -2.70625,-2.31879 z"
       style="fill:none;fill-rule:evenodd;stroke:#000000;stroke-width:0.88640338px;stroke-linecap:butt;stroke-linejoin:miter;stroke-opacity:1"
       inkscape:connector-curvature="0" />
  </g>
  <g
     id="layer3"
     transform="translate(0,248.0315)">
    <path
       d=""
       style="fill:none;stroke:#000000;stroke-width:0.30101201"
       id="path5329"
       inkscape:connector-curvature="0" />
    <path
       d=""
       style="fill:none;stroke:#000000;stroke-width:0.30101201"
       id="path5341"
       inkscape:connector-curvature="0" />
    <path
       d=""
       style="fill:none;stroke:#000000;stroke-width:0.30101201"
       id="path5357"
       inkscape:connector-curvature="0" />
    <path
       id="path5719"
       style="fill:none;stroke:#000000;stroke-width:0.28793129"
       d=""
       inkscape:connector-curvature="0" />
    <path
       id="path5723"
       style="fill:none;stroke:#000000;stroke-width:0.28793129"
       d=""
       inkscape:connector-curvature="0" />
    <path
       id="path5731"
       style="fill:none;stroke:#000000;stroke-width:0.28793129"
       d=""
       inkscape:connector-curvature="0" />
    <path
       id="path5735"
       style="fill:none;stroke:#000000;stroke-width:0.28793129"
       d=""
       inkscape:connector-curvature="0" />
    <path
       id="path5745"
       style="fill:none;stroke:#000000;stroke-width:0.28793129"
       d=""
       inkscape:connector-curvature="0" />
    <path
       d=""
       style="fill:none;stroke:#000000;stroke-width:0.28324676"
       id="path6153"
       inkscape:connector-curvature="0" />
    <path
       d=""
       style="fill:none;stroke:#000000;stroke-width:0.28324676"
       id="path6167"
       inkscape:connector-curvature="0" />
    <path
       d=""
       style="fill:none;stroke:#000000;stroke-width:0.28324676"
       id="path6173"
       inkscape:connector-curvature="0" />
    <path
       d=""
       style="fill:none;stroke:#000000;stroke-width:0.28324676"
       id="path6179"
       inkscape:connector-curvature="0" />
    <path
       d=""
       style="fill:none;stroke:#000000;stroke-width:0.28324676"
       id="path6189"
       inkscape:connector-curvature="0" />
    <path
       d=""
       style="fill:none;stroke:#000000;stroke-width:0.28324676"
       id="path6197"
       inkscape:connector-curvature="0" />
    <path
       d=""
       style="fill:none;stroke:#000000;stroke-width:0.28324676"
       id="path6207"
       inkscape:connector-curvature="0" />
    <path
       d=""
       style="fill:none;stroke:#000000;stroke-width:0.28324676"
       id="path6215"
       inkscape:connector-curvature="0" />
    <path
       d=""
       style="fill:none;stroke:#000000;stroke-width:0.28324676"
       id="path6223"
       inkscape:connector-curvature="0" />
    <path
       d=""
       style="fill:none;stroke:#000000;stroke-width:0.28324676"
       id="path6233"
       inkscape:connector-curvature="0" />
    <path
       d=""
       style="fill:none;stroke:#000000;stroke-width:0.28324676"
       id="path6245"
       inkscape:connector-curvature="0" />
    <path
       d=""
       style="fill:none;stroke:#000000;stroke-width:0.28324676"
       id="path6251"
       inkscape:connector-curvature="0" />
    <path
       d=""
       style="fill:none;stroke:#000000;stroke-width:0.28324676"
       id="path6261"
       inkscape:connector-curvature="0" />
    <path
       d=""
       style="fill:none;stroke:#000000;stroke-width:0.28324676"
       id="path6267"
       inkscape:connector-curvature="0" />
    <path
       d=""
       style="fill:none;stroke:#000000;stroke-width:0.28324676"
       id="path6279"
       inkscape:connector-curvature="0" />
    <path
       id="path9408"
       style="fill:none;stroke:#000000;stroke-width:0.28768027"
       d=""
       inkscape:connector-curvature="0" />
    <path
       id="path9420"
       style="fill:none;stroke:#000000;stroke-width:0.28768027"
       d=""
       inkscape:connector-curvature="0" />
  </g>
  <g
     id="layer6"
     transform="translate(0,248.0315)" />
  <g
     id="layer4"
     transform="translate(0,248.0315)" />
  <g
     transform="translate(248.03149,-556.29921)"
     id="g4171">
    <path
       inkscape:connector-curvature="0"
       transform="scale(-1,1)"
       style="fill:none;stroke:#000000;stroke-width:3.63543296;stroke-linejoin:round;stroke-miterlimit:4;stroke-dasharray:none;stroke-opacity:1"
       d="m -224.25027,806.14697 200.467591,0 c 12.168588,0 21.9649605,9.79637 21.9649605,21.96496 l 0,200.46757 c 0,12.1686 -9.7963725,21.965 -21.9649605,21.965 l -200.467591,0 c -12.16858,0 -21.96496,-9.7964 -21.96496,-21.965 l 0,-200.46757 c 0,-12.16859 9.79638,-21.96496 21.96496,-21.96496 z"
       id="path4173" />
    <path
       inkscape:connector-curvature="0"
       style="fill:none;fill-rule:evenodd;stroke:#000000;stroke-width:0.88640338px;stroke-linecap:butt;stroke-linejoin:miter;stroke-opacity:1"
       d="m 32.63035,816.25639 -7.5219,-0.0144 c 0,0 -12.66546,1.38798 -12.66546,17.67998 l 0,3.30234 c 0,2.15838 2.24186,1.86661 2.24186,1.86661 l 17.22844,-0.21976 c 1.53795,0 3.54023,-1.50712 3.54023,-3.46003 L 35.3366,818.57522 c 0,0 -0.25796,-2.31409 -2.70625,-2.31879 z"
       id="path4175" />
  </g>
  <g
     id="g4177"
     transform="translate(248.03149,-804.33072)">
    <path
       id="path4179"
       d="m -224.25027,806.14697 200.467591,0 c 12.168588,0 21.9649605,9.79637 21.9649605,21.96496 l 0,200.46757 c 0,12.1686 -9.7963725,21.965 -21.9649605,21.965 l -200.467591,0 c -12.16858,0 -21.96496,-9.7964 -21.96496,-21.965 l 0,-200.46757 c 0,-12.16859 9.79638,-21.96496 21.96496,-21.96496 z"
       style="fill:none;stroke:#000000;stroke-width:3.63543296;stroke-linejoin:round;stroke-miterlimit:4;stroke-dasharray:none;stroke-opacity:1"
       transform="scale(-1,1)"
       inkscape:connector-curvature="0" />
    <path
       id="path4181"
       d="m 32.63035,816.25639 -7.5219,-0.0144 c 0,0 -12.66546,1.38798 -12.66546,17.67998 l 0,3.30234 c 0,2.15838 2.24186,1.86661 2.24186,1.86661 l 17.22844,-0.21976 c 1.53795,0 3.54023,-1.50712 3.54023,-3.46003 L 35.3366,818.57522 c 0,0 -0.25796,-2.31409 -2.70625,-2.31879 z"
       style="fill:none;fill-rule:evenodd;stroke:#000000;stroke-width:0.88640338px;stroke-linecap:butt;stroke-linejoin:miter;stroke-opacity:1"
       inkscape:connector-curvature="0" />
  </g>
  <g
     transform="translate(-2.0206986e-6,-804.33072)"
     id="g4183">
    <path
       inkscape:connector-curvature="0"
       transform="scale(-1,1)"
       style="fill:none;stroke:#000000;stroke-width:3.63543296;stroke-linejoin:round;stroke-miterlimit:4;stroke-dasharray:none;stroke-opacity:1"
       d="m -224.25027,806.14697 200.467591,0 c 12.168588,0 21.9649605,9.79637 21.9649605,21.96496 l 0,200.46757 c 0,12.1686 -9.7963725,21.965 -21.9649605,21.965 l -200.467591,0 c -12.16858,0 -21.96496,-9.7964 -21.96496,-21.965 l 0,-200.46757 c 0,-12.16859 9.79638,-21.96496 21.96496,-21.96496 z"
       id="path4185" />
    <path
       inkscape:connector-curvature="0"
       style="fill:none;fill-rule:evenodd;stroke:#000000;stroke-width:0.88640338px;stroke-linecap:butt;stroke-linejoin:miter;stroke-opacity:1"
       d="m 32.63035,816.25639 -7.5219,-0.0144 c 0,0 -12.66546,1.38798 -12.66546,17.67998 l 0,3.30234 c 0,2.15838 2.24186,1.86661 2.24186,1.86661 l 17.22844,-0.21976 c 1.53795,0 3.54023,-1.50712 3.54023,-3.46003 L 35.3366,818.57522 c 0,0 -0.25796,-2.31409 -2.70625,-2.31879 z"
       id="path4187" />
  </g>
</svg>
