<?xml version="1.0" encoding="UTF-8" standalone="no"?>
<!-- Created with Inkscape (http://www.inkscape.org/) -->

<svg
   xmlns:dc="http://purl.org/dc/elements/1.1/"
   xmlns:cc="http://creativecommons.org/ns#"
   xmlns:rdf="http://www.w3.org/1999/02/22-rdf-syntax-ns#"
   xmlns:svg="http://www.w3.org/2000/svg"
   xmlns="http://www.w3.org/2000/svg"
   xmlns:sodipodi="http://sodipodi.sourceforge.net/DTD/sodipodi-0.dtd"
   xmlns:inkscape="http://www.inkscape.org/namespaces/inkscape"
   width="200mm"
   height="120mm"
   viewBox="0 0 200 120"
   version="1.1"
   id="svg8"
   sodipodi:docname="arduino-and-circuit-mount.plain.svg"
   inkscape:version="0.92.3 (2405546, 2018-03-11)">
  <defs
     id="defs2" />
  <sodipodi:namedview
     id="base"
     pagecolor="#737373"
     bordercolor="#666666"
     borderopacity="1.0"
     inkscape:pageopacity="0"
     inkscape:pageshadow="2"
     inkscape:zoom="0.50434028"
     inkscape:cx="864"
     inkscape:cy="576"
     inkscape:document-units="mm"
     inkscape:current-layer="layer1"
     showgrid="false"
     units="mm"
     inkscape:pagecheckerboard="false"
     inkscape:window-width="1366"
     inkscape:window-height="739"
     inkscape:window-x="0"
     inkscape:window-y="1"
     inkscape:window-maximized="1" />
  <metadata
     id="metadata5">
    <rdf:RDF>
      <cc:Work
         rdf:about="">
        <dc:format>image/svg+xml</dc:format>
        <dc:type
           rdf:resource="http://purl.org/dc/dcmitype/StillImage" />
        <dc:title></dc:title>
      </cc:Work>
    </rdf:RDF>
  </metadata>
  <g
     inkscape:label="Layer 1"
     inkscape:groupmode="layer"
     id="layer1"
     transform="translate(0,-176.99998)">
    <path
       style="opacity:0.98000004;fill:none;fill-opacity:1;stroke:#000000;stroke-width:0.1;stroke-miterlimit:3.98765421;stroke-dasharray:none;stroke-opacity:1"
       d="m 178.24762,188.57976 a 1.4250828,1.4250828 0 0 1 -1.42508,1.42508 1.4250828,1.4250828 0 0 1 -1.42508,-1.42508 1.4250828,1.4250828 0 0 1 1.42508,-1.42509 1.4250828,1.4250828 0 0 1 1.42508,1.42509 z"
       id="circle816" />
    <path
       style="opacity:0.98000004;fill:none;fill-opacity:1;stroke:#000000;stroke-width:0.1;stroke-miterlimit:3.98765421;stroke-dasharray:none;stroke-opacity:1"
       d="m 9.2414066,188.58829 a 1.4250828,1.4250828 0 0 1 -1.4250828,1.42508 1.4250828,1.4250828 0 0 1 -1.4250828,-1.42508 1.4250828,1.4250828 0 0 1 1.4250828,-1.42509 1.4250828,1.4250828 0 0 1 1.4250828,1.42509 z"
       id="circle818" />
    <path
       style="opacity:0.98000004;fill:none;fill-opacity:1;stroke:#000000;stroke-width:0.1;stroke-miterlimit:3.98765421;stroke-dasharray:none;stroke-opacity:1"
       d="m 178.2433,289.09262 a 1.4250828,1.4250828 0 0 1 -1.42508,1.42508 1.4250828,1.4250828 0 0 1 -1.42508,-1.42508 1.4250828,1.4250828 0 0 1 1.42508,-1.42508 1.4250828,1.4250828 0 0 1 1.42508,1.42508 z"
       id="circle820" />
    <path
       style="opacity:0.98000004;fill:none;fill-opacity:1;stroke:#000000;stroke-width:0.1;stroke-miterlimit:3.98765421;stroke-dasharray:none;stroke-opacity:1"
       d="m 9.2429858,289.09491 a 1.4250828,1.4250828 0 0 1 -1.4250828,1.42508 1.4250828,1.4250828 0 0 1 -1.4250828,-1.42508 1.4250828,1.4250828 0 0 1 1.4250828,-1.42508 1.4250828,1.4250828 0 0 1 1.4250828,1.42508 z"
       id="circle822" />
    <path
       style="opacity:0.98000004;fill:none;fill-opacity:1;stroke:#000000;stroke-width:0.1034789;stroke-miterlimit:3.98765421;stroke-dasharray:none;stroke-opacity:1"
       d="M 4.8101023,185.53913 H 180.19776 V 292.64989 H 4.8101023 Z"
       id="rect812"
       inkscape:connector-curvature="0" />
    <path
       style="opacity:0.98000004;fill:none;fill-opacity:1;stroke:#000000;stroke-width:0.05347977;stroke-miterlimit:3.98765421;stroke-dasharray:none;stroke-opacity:1"
       d="m 167.37758,207.63741 a 1.5732601,1.5732601 0 0 0 1.57326,-1.57326 1.5732601,1.5732601 0 0 0 -1.57326,-1.57326 1.5732601,1.5732601 0 0 0 -1.57326,1.57326 1.5732601,1.5732601 0 0 0 1.57326,1.57326 z"
       id="circle863"
       inkscape:connector-curvature="0" />
    <path
       style="opacity:0.98000004;fill:none;fill-opacity:1;stroke:#000000;stroke-width:0.05347977;stroke-miterlimit:3.98765421;stroke-dasharray:none;stroke-opacity:1"
       d="m 167.37758,282.94743 a 1.5732601,1.5732601 0 0 0 1.57326,-1.57326 1.5732601,1.5732601 0 0 0 -1.57326,-1.57326 1.5732601,1.5732601 0 0 0 -1.57326,1.57326 1.5732601,1.5732601 0 0 0 1.57326,1.57326 z"
       id="circle865"
       inkscape:connector-curvature="0" />
    <path
       style="opacity:0.98000004;fill:none;fill-opacity:1;stroke:#000000;stroke-width:0.05347977;stroke-miterlimit:3.98765421;stroke-dasharray:none;stroke-opacity:1"
       d="m 118.51757,206.33743 a 1.5732601,1.5732601 0 0 0 1.57326,-1.57326 1.5732601,1.5732601 0 0 0 -1.57326,-1.57326 1.5732601,1.5732601 0 0 0 -1.57326,1.57326 1.5732601,1.5732601 0 0 0 1.57326,1.57326 z"
       id="circle867"
       inkscape:connector-curvature="0" />
    <path
       style="opacity:0.98000004;fill:none;fill-opacity:1;stroke:#000000;stroke-width:0.05347977;stroke-miterlimit:3.98765421;stroke-dasharray:none;stroke-opacity:1"
       d="m 118.51757,290.37742 a 1.5732601,1.5732601 0 0 0 1.57326,-1.57326 1.5732601,1.5732601 0 0 0 -1.57326,-1.57326 1.5732601,1.5732601 0 0 0 -1.57326,1.57326 1.5732601,1.5732601 0 0 0 1.57326,1.57326 z"
       id="circle869"
       inkscape:connector-curvature="0" />
    <path
       transform="scale(1,-1)"
       style="opacity:0.98000004;fill:none;fill-opacity:1;stroke:#000000;stroke-width:0.03453692;stroke-miterlimit:3.98765421;stroke-dasharray:none;stroke-opacity:1"
       d="m 19.504041,-196.24503 a 1.0327315,1.0327315 0 0 1 -1.032731,1.03274 1.0327315,1.0327315 0 0 1 -1.032732,-1.03274 1.0327315,1.0327315 0 0 1 1.032732,-1.03273 1.0327315,1.0327315 0 0 1 1.032731,1.03273 z"
       id="path877" />
    <path
       transform="scale(1,-1)"
       style="opacity:0.98000004;fill:none;fill-opacity:1;stroke:#000000;stroke-width:0.03453692;stroke-miterlimit:3.98765421;stroke-dasharray:none;stroke-opacity:1"
       d="m 92.824045,-196.24503 a 1.0327315,1.0327315 0 0 1 -1.032732,1.03274 1.0327315,1.0327315 0 0 1 -1.032731,-1.03274 1.0327315,1.0327315 0 0 1 1.032731,-1.03273 1.0327315,1.0327315 0 0 1 1.032732,1.03273 z"
       id="circle879" />
    <path
       transform="scale(1,-1)"
       style="opacity:0.98000004;fill:none;fill-opacity:1;stroke:#000000;stroke-width:0.03453692;stroke-miterlimit:3.98765421;stroke-dasharray:none;stroke-opacity:1"
       d="m 92.824045,-229.64502 a 1.0327315,1.0327315 0 0 1 -1.032732,1.03273 1.0327315,1.0327315 0 0 1 -1.032731,-1.03273 1.0327315,1.0327315 0 0 1 1.032731,-1.03273 1.0327315,1.0327315 0 0 1 1.032732,1.03273 z"
       id="circle881" />
  </g>
</svg>
