<?xml version="1.0" encoding="UTF-8" standalone="no"?>
<svg
   xmlns:dc="http://purl.org/dc/elements/1.1/"
   xmlns:cc="http://creativecommons.org/ns#"
   xmlns:rdf="http://www.w3.org/1999/02/22-rdf-syntax-ns#"
   xmlns:svg="http://www.w3.org/2000/svg"
   xmlns="http://www.w3.org/2000/svg"
   xmlns:sodipodi="http://sodipodi.sourceforge.net/DTD/sodipodi-0.dtd"
   xmlns:inkscape="http://www.inkscape.org/namespaces/inkscape"
   width="220mm"
   height="250mm"
   viewBox="0 0 220.00001 250.00002"
   version="1.1"
   id="svg8"
   sodipodi:docname="vial-tray.svg"
   inkscape:version="0.92.3 (2405546, 2018-03-11)">
  <sodipodi:namedview
     pagecolor="#ffffff"
     bordercolor="#666666"
     borderopacity="1"
     objecttolerance="10"
     gridtolerance="10"
     guidetolerance="10"
     inkscape:pageopacity="0"
     inkscape:pageshadow="2"
     inkscape:window-width="681"
     inkscape:window-height="738"
     id="namedview10"
     showgrid="false"
     units="mm"
     inkscape:window-x="683"
     inkscape:window-y="1"
     inkscape:window-maximized="0"
     inkscape:current-layer="layer1" />
  <defs
     id="defs2" />
  <metadata
     id="metadata5">
    <rdf:RDF>
      <cc:Work
         rdf:about="">
        <dc:format>image/svg+xml</dc:format>
        <dc:type
           rdf:resource="http://purl.org/dc/dcmitype/StillImage" />
        <dc:title></dc:title>
      </cc:Work>
    </rdf:RDF>
  </metadata>
  <g
     inkscape:groupmode="layer"
     id="layer1"
     inkscape:label="Blech">
    <path
       style="opacity:0.98000004;fill:none;fill-opacity:1;stroke:#000000;stroke-width:0.09853547;stroke-miterlimit:3.98765421;stroke-dasharray:none;stroke-opacity:1"
       d="M 148.34261,101.893 V 227.906 H 64.151423 V 101.893 l 31.058473,-0.002 c 0.175098,-5.956397 5.049354,-10.730307 11.037114,-10.730307 5.98818,0 10.8627,4.774571 11.03397,10.729317 z"
       id="rect822"
       inkscape:connector-curvature="0"
       sodipodi:nodetypes="cccccscc" />
    <path
       style="opacity:0.98000004;fill:none;fill-opacity:1;stroke:#000000;stroke-width:0.11939054;stroke-miterlimit:3.98765421;stroke-dasharray:none;stroke-opacity:1"
       d="M 0.05969527,80.059712 V 249.94032 H 211.94031 V 80.059712 Z"
       id="rect824"
       inkscape:connector-curvature="0" />
    <path
       style="opacity:0.98000004;fill:none;fill-opacity:1;stroke:#000000;stroke-width:0.04970314;stroke-miterlimit:3.98765421;stroke-dasharray:none;stroke-opacity:1"
       d="m 8.6232918,113.47516 a 4.0751486,4.0751486 0 0 0 4.0751492,-4.07515 4.0751486,4.0751486 0 0 0 -4.0751492,-4.07515 4.0751486,4.0751486 0 0 0 -4.0751477,4.07515 4.0751486,4.0751486 0 0 0 4.0751477,4.07515 z"
       id="circle842"
       inkscape:connector-curvature="0" />
    <path
       style="opacity:0.98000004;fill:none;fill-opacity:1;stroke:#000000;stroke-width:0.04970314;stroke-miterlimit:3.98765421;stroke-dasharray:none;stroke-opacity:1"
       d="m 8.6232918,224.67517 a 4.0751486,4.0751486 0 0 0 4.0751492,-4.07515 4.0751486,4.0751486 0 0 0 -4.0751492,-4.07515 4.0751486,4.0751486 0 0 0 -4.0751477,4.07515 4.0751486,4.0751486 0 0 0 4.0751477,4.07515 z"
       id="circle844"
       inkscape:connector-curvature="0" />
    <path
       style="opacity:0.98000004;fill:none;fill-opacity:1;stroke:#000000;stroke-width:0.04970314;stroke-miterlimit:3.98765421;stroke-dasharray:none;stroke-opacity:1"
       d="m 204,169.07516 a 4.0751486,4.0751486 0 0 0 4.07515,-4.07515 A 4.0751486,4.0751486 0 0 0 204,160.92486 4.0751486,4.0751486 0 0 0 199.92485,165.00001 4.0751486,4.0751486 0 0 0 204,169.07516 Z"
       id="circle850"
       inkscape:connector-curvature="0" />
  </g>
</svg>
