<?xml version="1.0" encoding="UTF-8" standalone="no"?>
<svg
   xmlns:dc="http://purl.org/dc/elements/1.1/"
   xmlns:cc="http://creativecommons.org/ns#"
   xmlns:rdf="http://www.w3.org/1999/02/22-rdf-syntax-ns#"
   xmlns:svg="http://www.w3.org/2000/svg"
   xmlns="http://www.w3.org/2000/svg"
   xmlns:sodipodi="http://sodipodi.sourceforge.net/DTD/sodipodi-0.dtd"
   xmlns:inkscape="http://www.inkscape.org/namespaces/inkscape"
   width="220mm"
   height="250mm"
   viewBox="0 0 220.00001 250.00002"
   version="1.1"
   id="svg8"
   sodipodi:docname="vial-tray.svg"
   inkscape:version="0.92.3 (2405546, 2018-03-11)">
  <sodipodi:namedview
     pagecolor="#ffffff"
     bordercolor="#666666"
     borderopacity="1"
     objecttolerance="10"
     gridtolerance="10"
     guidetolerance="10"
     inkscape:pageopacity="0"
     inkscape:pageshadow="2"
     inkscape:window-width="1366"
     inkscape:window-height="739"
     id="namedview10"
     showgrid="false"
     units="mm"
     inkscape:window-x="0"
     inkscape:window-y="1"
     inkscape:window-maximized="1"
     inkscape:current-layer="svg8" />
  <defs
     id="defs2" />
  <metadata
     id="metadata5">
    <rdf:RDF>
      <cc:Work
         rdf:about="">
        <dc:format>image/svg+xml</dc:format>
        <dc:type
           rdf:resource="http://purl.org/dc/dcmitype/StillImage" />
        <dc:title></dc:title>
      </cc:Work>
    </rdf:RDF>
  </metadata>
  <path
     style="opacity:0.98000004;fill:none;fill-opacity:1;stroke:#000000;stroke-width:0.10000001;stroke-miterlimit:3.98765421;stroke-dasharray:none;stroke-opacity:1"
     d="M 154.27571,179.63215 H 26.475697 V 94.132141 H 154.27571 l 0.002,31.541299 c 6.04088,0.17782 10.88249,5.12785 10.88249,11.2087 0,6.08127 -4.84228,11.03157 -10.88147,11.2055 z"
     id="rect822"
     inkscape:connector-curvature="0"
     sodipodi:nodetypes="cccccscc" />
  <path
     transform="scale(-1,1)"
     style="opacity:0.98000004;fill:none;fill-opacity:1;stroke:#000000;stroke-width:0.11939054;stroke-miterlimit:3.98765421;stroke-dasharray:none;stroke-opacity:1"
     d="M -175.31601,30.941833 H -5.4353943 V 242.82245 H -175.31601 Z"
     id="rect824" />
  <path
     transform="scale(-1,1)"
     style="opacity:0.98000004;fill:none;fill-opacity:1;stroke:#000000;stroke-width:0.04970314;stroke-miterlimit:3.98765421;stroke-dasharray:none;stroke-opacity:1"
     d="m -141.90056,38.882137 a 4.0751486,4.0751486 0 0 1 -4.07515,4.075149 4.0751486,4.0751486 0 0 1 -4.07515,-4.075149 4.0751486,4.0751486 0 0 1 4.07515,-4.075148 4.0751486,4.0751486 0 0 1 4.07515,4.075148 z"
     id="circle842" />
  <path
     transform="scale(-1,1)"
     style="opacity:0.98000004;fill:none;fill-opacity:1;stroke:#000000;stroke-width:0.04970314;stroke-miterlimit:3.98765421;stroke-dasharray:none;stroke-opacity:1"
     d="m -30.700543,38.882137 a 4.0751486,4.0751486 0 0 1 -4.075149,4.075149 4.0751486,4.0751486 0 0 1 -4.075149,-4.075149 4.0751486,4.0751486 0 0 1 4.075149,-4.075148 4.0751486,4.0751486 0 0 1 4.075149,4.075148 z"
     id="circle844" />
  <path
     transform="scale(-1,1)"
     style="opacity:0.98000004;fill:none;fill-opacity:1;stroke:#000000;stroke-width:0.04970314;stroke-miterlimit:3.98765421;stroke-dasharray:none;stroke-opacity:1"
     d="m -86.300553,234.88214 a 4.0751486,4.0751486 0 0 1 -4.075149,4.07515 4.0751486,4.0751486 0 0 1 -4.075148,-4.07515 4.0751486,4.0751486 0 0 1 4.075148,-4.07515 4.0751486,4.0751486 0 0 1 4.075149,4.07515 z"
     id="circle850" />
</svg>
