<?xml version="1.0" encoding="UTF-8" standalone="no"?>
<svg
   xmlns:dc="http://purl.org/dc/elements/1.1/"
   xmlns:cc="http://creativecommons.org/ns#"
   xmlns:rdf="http://www.w3.org/1999/02/22-rdf-syntax-ns#"
   xmlns:svg="http://www.w3.org/2000/svg"
   xmlns="http://www.w3.org/2000/svg"
   xmlns:sodipodi="http://sodipodi.sourceforge.net/DTD/sodipodi-0.dtd"
   xmlns:inkscape="http://www.inkscape.org/namespaces/inkscape"
   width="220mm"
   height="250mm"
   viewBox="0 0 220.00001 250.00002"
   version="1.1"
   id="svg8"
   sodipodi:docname="vial-tray-spacer.svg"
   inkscape:version="0.92.3 (2405546, 2018-03-11)">
  <sodipodi:namedview
     pagecolor="#ffffff"
     bordercolor="#666666"
     borderopacity="1"
     objecttolerance="10"
     gridtolerance="10"
     guidetolerance="10"
     inkscape:pageopacity="0"
     inkscape:pageshadow="2"
     inkscape:window-width="1017"
     inkscape:window-height="551"
     id="namedview10"
     showgrid="false"
     units="mm"
     inkscape:window-x="129"
     inkscape:window-y="33"
     inkscape:window-maximized="0"
     inkscape:current-layer="layer1"
     inkscape:snap-global="false" />
  <defs
     id="defs2" />
  <metadata
     id="metadata5">
    <rdf:RDF>
      <cc:Work
         rdf:about="">
        <dc:format>image/svg+xml</dc:format>
        <dc:type
           rdf:resource="http://purl.org/dc/dcmitype/StillImage" />
        <dc:title></dc:title>
      </cc:Work>
    </rdf:RDF>
  </metadata>
  <g
     inkscape:groupmode="layer"
     id="layer1"
     inkscape:label="Blech">
    <g
       id="g912"
       transform="translate(-81.510003)">
      <path
         id="path818"
         d="m 204.61482,169.35091 a 4.3509011,4.3509011 0 0 0 4.35091,-4.3509 4.3509011,4.3509011 0 0 0 -4.35091,-4.3509 4.3509011,4.3509011 0 0 0 -4.3509,4.3509 4.3509011,4.3509011 0 0 0 4.3509,4.3509 z"
         style="opacity:0.98000004;fill:none;fill-opacity:1;stroke:#000000;stroke-width:0.0530664;stroke-miterlimit:3.98765421;stroke-dasharray:none;stroke-opacity:1"
         inkscape:connector-curvature="0" />
      <path
         sodipodi:nodetypes="ccccc"
         inkscape:connector-curvature="0"
         id="path891"
         d="m 190.67798,249.94032 h 21.26233 V 80.059712 h -21.26233 z"
         style="opacity:0.98000004;fill:none;fill-opacity:1;stroke:#000000;stroke-width:0.11939054;stroke-miterlimit:3.98765421;stroke-dasharray:none;stroke-opacity:1" />
    </g>
    <g
       id="g908"
       transform="translate(0,4.0098592e-6)">
      <path
         id="circle842"
         d="m 8.1598384,113.47516 a 4.0751486,4.0751486 0 0 0 4.0751486,-4.07515 4.0751486,4.0751486 0 0 0 -4.0751486,-4.07515 4.0751486,4.0751486 0 0 0 -4.0751477,4.07515 4.0751486,4.0751486 0 0 0 4.0751477,4.07515 z"
         style="opacity:0.98000004;fill:none;fill-opacity:1;stroke:#000000;stroke-width:0.04970314;stroke-miterlimit:3.98765421;stroke-dasharray:none;stroke-opacity:1"
         inkscape:connector-curvature="0" />
      <path
         id="circle844"
         d="m 8.1598384,224.67517 a 4.0751486,4.0751486 0 0 0 4.0751486,-4.07515 4.0751486,4.0751486 0 0 0 -4.0751486,-4.07515 4.0751486,4.0751486 0 0 0 -4.0751477,4.07515 4.0751486,4.0751486 0 0 0 4.0751477,4.07515 z"
         style="opacity:0.98000004;fill:none;fill-opacity:1;stroke:#000000;stroke-width:0.04970314;stroke-miterlimit:3.98765421;stroke-dasharray:none;stroke-opacity:1"
         inkscape:connector-curvature="0" />
      <path
         id="path865"
         d="M 18.674923,80.059712 H 0.05969527 V 249.94032 H 18.674923 Z"
         style="opacity:0.98000004;fill:none;fill-opacity:1;stroke:#000000;stroke-width:0.11939054;stroke-miterlimit:3.98765421;stroke-dasharray:none;stroke-opacity:1"
         inkscape:connector-curvature="0" />
    </g>
    <g
       transform="translate(19.994705,4.0098592e-6)"
       id="g920">
      <path
         inkscape:connector-curvature="0"
         style="opacity:0.98000004;fill:none;fill-opacity:1;stroke:#000000;stroke-width:0.04970314;stroke-miterlimit:3.98765421;stroke-dasharray:none;stroke-opacity:1"
         d="m 8.1598384,113.47516 a 4.0751486,4.0751486 0 0 0 4.0751486,-4.07515 4.0751486,4.0751486 0 0 0 -4.0751486,-4.07515 4.0751486,4.0751486 0 0 0 -4.0751477,4.07515 4.0751486,4.0751486 0 0 0 4.0751477,4.07515 z"
         id="path914" />
      <path
         inkscape:connector-curvature="0"
         style="opacity:0.98000004;fill:none;fill-opacity:1;stroke:#000000;stroke-width:0.04970314;stroke-miterlimit:3.98765421;stroke-dasharray:none;stroke-opacity:1"
         d="m 8.1598384,224.67517 a 4.0751486,4.0751486 0 0 0 4.0751486,-4.07515 4.0751486,4.0751486 0 0 0 -4.0751486,-4.07515 4.0751486,4.0751486 0 0 0 -4.0751477,4.07515 4.0751486,4.0751486 0 0 0 4.0751477,4.07515 z"
         id="path916" />
      <path
         inkscape:connector-curvature="0"
         style="opacity:0.98000004;fill:none;fill-opacity:1;stroke:#000000;stroke-width:0.11939054;stroke-miterlimit:3.98765421;stroke-dasharray:none;stroke-opacity:1"
         d="M 18.674923,80.059712 H 0.05969527 V 249.94032 H 18.674923 Z"
         id="path918" />
    </g>
    <g
       id="g928"
       transform="translate(40.121825,4.0098592e-6)">
      <path
         id="path922"
         d="m 8.1598384,113.47516 a 4.0751486,4.0751486 0 0 0 4.0751486,-4.07515 4.0751486,4.0751486 0 0 0 -4.0751486,-4.07515 4.0751486,4.0751486 0 0 0 -4.0751477,4.07515 4.0751486,4.0751486 0 0 0 4.0751477,4.07515 z"
         style="opacity:0.98000004;fill:none;fill-opacity:1;stroke:#000000;stroke-width:0.04970314;stroke-miterlimit:3.98765421;stroke-dasharray:none;stroke-opacity:1"
         inkscape:connector-curvature="0" />
      <path
         id="path924"
         d="m 8.1598384,224.67517 a 4.0751486,4.0751486 0 0 0 4.0751486,-4.07515 4.0751486,4.0751486 0 0 0 -4.0751486,-4.07515 4.0751486,4.0751486 0 0 0 -4.0751477,4.07515 4.0751486,4.0751486 0 0 0 4.0751477,4.07515 z"
         style="opacity:0.98000004;fill:none;fill-opacity:1;stroke:#000000;stroke-width:0.04970314;stroke-miterlimit:3.98765421;stroke-dasharray:none;stroke-opacity:1"
         inkscape:connector-curvature="0" />
      <path
         id="path926"
         d="M 18.674923,80.059712 H 0.05969527 V 249.94032 H 18.674923 Z"
         style="opacity:0.98000004;fill:none;fill-opacity:1;stroke:#000000;stroke-width:0.11939054;stroke-miterlimit:3.98765421;stroke-dasharray:none;stroke-opacity:1"
         inkscape:connector-curvature="0" />
    </g>
    <g
       id="g934"
       transform="translate(-105.74589)">
      <path
         style="opacity:0.98000004;fill:none;fill-opacity:1;stroke:#000000;stroke-width:0.0530664;stroke-miterlimit:3.98765421;stroke-dasharray:none;stroke-opacity:1"
         d="m 204.61482,169.35091 a 4.3509011,4.3509011 0 0 0 4.35091,-4.3509 4.3509011,4.3509011 0 0 0 -4.35091,-4.3509 4.3509011,4.3509011 0 0 0 -4.3509,4.3509 4.3509011,4.3509011 0 0 0 4.3509,4.3509 z"
         id="path930"
         inkscape:connector-curvature="0" />
      <path
         style="opacity:0.98000004;fill:none;fill-opacity:1;stroke:#000000;stroke-width:0.11939054;stroke-miterlimit:3.98765421;stroke-dasharray:none;stroke-opacity:1"
         d="m 190.67798,249.94032 h 21.26233 V 80.059712 h -21.26233 z"
         id="path932"
         inkscape:connector-curvature="0"
         sodipodi:nodetypes="ccccc" />
    </g>
    <g
       transform="translate(-130.56145)"
       id="g940">
      <path
         inkscape:connector-curvature="0"
         id="path936"
         d="m 204.61482,169.35091 a 4.3509011,4.3509011 0 0 0 4.35091,-4.3509 4.3509011,4.3509011 0 0 0 -4.35091,-4.3509 4.3509011,4.3509011 0 0 0 -4.3509,4.3509 4.3509011,4.3509011 0 0 0 4.3509,4.3509 z"
         style="opacity:0.98000004;fill:none;fill-opacity:1;stroke:#000000;stroke-width:0.0530664;stroke-miterlimit:3.98765421;stroke-dasharray:none;stroke-opacity:1" />
      <path
         sodipodi:nodetypes="ccccc"
         inkscape:connector-curvature="0"
         id="path938"
         d="m 190.67798,249.94032 h 21.26233 V 80.059712 h -21.26233 z"
         style="opacity:0.98000004;fill:none;fill-opacity:1;stroke:#000000;stroke-width:0.11939054;stroke-miterlimit:3.98765421;stroke-dasharray:none;stroke-opacity:1" />
    </g>
  </g>
</svg>
