<?xml version="1.0" encoding="UTF-8" standalone="no"?>
<svg
   xmlns:dc="http://purl.org/dc/elements/1.1/"
   xmlns:cc="http://creativecommons.org/ns#"
   xmlns:rdf="http://www.w3.org/1999/02/22-rdf-syntax-ns#"
   xmlns:svg="http://www.w3.org/2000/svg"
   xmlns="http://www.w3.org/2000/svg"
   xmlns:sodipodi="http://sodipodi.sourceforge.net/DTD/sodipodi-0.dtd"
   xmlns:inkscape="http://www.inkscape.org/namespaces/inkscape"
   width="220mm"
   height="250mm"
   viewBox="0 0 220.00001 250.00002"
   version="1.1"
   id="svg8"
   sodipodi:docname="vial-tray.svg"
   inkscape:version="0.92.3 (2405546, 2018-03-11)">
  <sodipodi:namedview
     pagecolor="#ffffff"
     bordercolor="#666666"
     borderopacity="1"
     objecttolerance="10"
     gridtolerance="10"
     guidetolerance="10"
     inkscape:pageopacity="0"
     inkscape:pageshadow="2"
     inkscape:window-width="1366"
     inkscape:window-height="739"
     id="namedview10"
     showgrid="false"
     units="mm"
     inkscape:window-x="0"
     inkscape:window-y="1"
     inkscape:window-maximized="1"
     inkscape:current-layer="svg8" />
  <defs
     id="defs2" />
  <metadata
     id="metadata5">
    <rdf:RDF>
      <cc:Work
         rdf:about="">
        <dc:format>image/svg+xml</dc:format>
        <dc:type
           rdf:resource="http://purl.org/dc/dcmitype/StillImage" />
        <dc:title></dc:title>
      </cc:Work>
    </rdf:RDF>
  </metadata>
  <path
     style="opacity:0.98000004;fill:none;fill-opacity:1;stroke:#000000;stroke-width:0.09971649;stroke-miterlimit:3.98765421;stroke-dasharray:none;stroke-opacity:1"
     d="M 148.45015,101.3768 V 228.90016 H 63.249861 V 101.3768 l 31.430733,-0.002 C 94.85779,95.346999 99.790468,90.51587 105.85,90.51587 c 6.05995,0 10.9929,4.831798 11.16622,10.85792 z"
     id="rect822"
     inkscape:connector-curvature="0"
     sodipodi:nodetypes="cccccscc" />
  <path
     style="opacity:0.98000004;fill:none;fill-opacity:1;stroke:#000000;stroke-width:0.11939054;stroke-miterlimit:3.98765421;stroke-dasharray:none;stroke-opacity:1"
     d="M 0.05969527,80.059708 V 249.94032 H 211.94031 V 80.059708 Z"
     id="rect824"
     inkscape:connector-curvature="0" />
  <path
     style="opacity:0.98000004;fill:none;fill-opacity:1;stroke:#000000;stroke-width:0.04970314;stroke-miterlimit:3.98765421;stroke-dasharray:none;stroke-opacity:1"
     d="m 7.999999,113.47516 a 4.0751486,4.0751486 0 0 0 4.075149,-4.07515 4.0751486,4.0751486 0 0 0 -4.075149,-4.07515 4.0751486,4.0751486 0 0 0 -4.0751477,4.07515 4.0751486,4.0751486 0 0 0 4.0751477,4.07515 z"
     id="circle842"
     inkscape:connector-curvature="0" />
  <path
     style="opacity:0.98000004;fill:none;fill-opacity:1;stroke:#000000;stroke-width:0.04970314;stroke-miterlimit:3.98765421;stroke-dasharray:none;stroke-opacity:1"
     d="m 7.999999,224.67517 a 4.0751486,4.0751486 0 0 0 4.075149,-4.07515 4.0751486,4.0751486 0 0 0 -4.075149,-4.07515 4.0751486,4.0751486 0 0 0 -4.0751477,4.07515 4.0751486,4.0751486 0 0 0 4.0751477,4.07515 z"
     id="circle844"
     inkscape:connector-curvature="0" />
  <path
     style="opacity:0.98000004;fill:none;fill-opacity:1;stroke:#000000;stroke-width:0.04970314;stroke-miterlimit:3.98765421;stroke-dasharray:none;stroke-opacity:1"
     d="m 204,169.07516 a 4.0751486,4.0751486 0 0 0 4.07515,-4.07515 A 4.0751486,4.0751486 0 0 0 204,160.92486 4.0751486,4.0751486 0 0 0 199.92485,165.00001 4.0751486,4.0751486 0 0 0 204,169.07516 Z"
     id="circle850"
     inkscape:connector-curvature="0" />
</svg>
