<?xml version="1.0" encoding="UTF-8" standalone="no"?>
<svg
   xmlns:dc="http://purl.org/dc/elements/1.1/"
   xmlns:cc="http://creativecommons.org/ns#"
   xmlns:rdf="http://www.w3.org/1999/02/22-rdf-syntax-ns#"
   xmlns:svg="http://www.w3.org/2000/svg"
   xmlns="http://www.w3.org/2000/svg"
   xmlns:sodipodi="http://sodipodi.sourceforge.net/DTD/sodipodi-0.dtd"
   xmlns:inkscape="http://www.inkscape.org/namespaces/inkscape"
   width="220mm"
   height="250mm"
   viewBox="0 0 220.00001 250.00002"
   version="1.1"
   id="svg8"
   sodipodi:docname="vial-tray.svg"
   inkscape:version="0.92.3 (2405546, 2018-03-11)">
  <sodipodi:namedview
     pagecolor="#ffffff"
     bordercolor="#666666"
     borderopacity="1"
     objecttolerance="10"
     gridtolerance="10"
     guidetolerance="10"
     inkscape:pageopacity="0"
     inkscape:pageshadow="2"
     inkscape:window-width="695"
     inkscape:window-height="551"
     id="namedview10"
     showgrid="false"
     units="mm"
     inkscape:window-x="129"
     inkscape:window-y="33"
     inkscape:window-maximized="0"
     inkscape:current-layer="layer1"
     inkscape:snap-global="false" />
  <defs
     id="defs2" />
  <metadata
     id="metadata5">
    <rdf:RDF>
      <cc:Work
         rdf:about="">
        <dc:format>image/svg+xml</dc:format>
        <dc:type
           rdf:resource="http://purl.org/dc/dcmitype/StillImage" />
        <dc:title></dc:title>
      </cc:Work>
    </rdf:RDF>
  </metadata>
  <g
     inkscape:groupmode="layer"
     id="layer1"
     inkscape:label="Blech">
    <path
       style="opacity:0.98000004;fill:none;fill-opacity:1;stroke:#000000;stroke-width:0.09892178;stroke-miterlimit:3.98765421;stroke-dasharray:none;stroke-opacity:1"
       d="m 148.34242,101.89316 0,128.06509 H 63.48954 l 0,-128.06509 31.302573,-0.002 c 0.176474,-5.956377 5.089039,-10.730274 11.123857,-10.730274 6.03525,0 10.94808,4.774558 11.12069,10.729284 z"
       id="rect822"
       inkscape:connector-curvature="0"
       sodipodi:nodetypes="cccccscc" />
    <path
       style="opacity:0.98000004;fill:none;fill-opacity:1;stroke:#000000;stroke-width:0.11939054;stroke-miterlimit:3.98765421;stroke-dasharray:none;stroke-opacity:1"
       d="M 0.05969527,80.059712 V 249.94032 H 211.94031 V 80.059712 Z"
       id="rect824"
       inkscape:connector-curvature="0" />
    <path
       style="opacity:0.98000004;fill:none;fill-opacity:1;stroke:#000000;stroke-width:0.04970314;stroke-miterlimit:3.98765421;stroke-dasharray:none;stroke-opacity:1"
       d="m 8.1598384,113.47516 a 4.0751486,4.0751486 0 0 0 4.0751486,-4.07515 4.0751486,4.0751486 0 0 0 -4.0751486,-4.07515 4.0751486,4.0751486 0 0 0 -4.0751477,4.07515 4.0751486,4.0751486 0 0 0 4.0751477,4.07515 z"
       id="circle842"
       inkscape:connector-curvature="0" />
    <path
       style="opacity:0.98000004;fill:none;fill-opacity:1;stroke:#000000;stroke-width:0.04970314;stroke-miterlimit:3.98765421;stroke-dasharray:none;stroke-opacity:1"
       d="m 8.1598384,224.67517 a 4.0751486,4.0751486 0 0 0 4.0751486,-4.07515 4.0751486,4.0751486 0 0 0 -4.0751486,-4.07515 4.0751486,4.0751486 0 0 0 -4.0751477,4.07515 4.0751486,4.0751486 0 0 0 4.0751477,4.07515 z"
       id="circle844"
       inkscape:connector-curvature="0" />
    <path
       inkscape:connector-curvature="0"
       id="path817"
       d="m 204.4162,169.35091 a 4.3509011,4.3509011 0 0 0 4.35091,-4.3509 4.3509011,4.3509011 0 0 0 -4.35091,-4.3509 4.3509011,4.3509011 0 0 0 -4.3509,4.3509 4.3509011,4.3509011 0 0 0 4.3509,4.3509 z"
       style="opacity:0.98000004;fill:none;fill-opacity:1;stroke:#000000;stroke-width:0.0530664;stroke-miterlimit:3.98765421;stroke-dasharray:none;stroke-opacity:1" />
  </g>
</svg>
